<?xml version="1.0" encoding="UTF-8"?>
<svg xmlns="http://www.w3.org/2000/svg" xmlns:xlink="http://www.w3.org/1999/xlink" width="800" height="300" viewBox="0 0 800 300">
<defs>
<g>
<g id="glyph-0-0-39fa0ac0">
<path d="M 13.34375 -7.296875 C 13.34375 -2.765625 11.078125 0 7.40625 0 C 7.40625 0 1.78125 0 1.78125 0 C 1.78125 0 1.78125 -14.578125 1.78125 -14.578125 C 1.78125 -14.578125 7.40625 -14.578125 7.40625 -14.578125 C 11.09375 -14.578125 13.34375 -11.8125 13.34375 -7.296875 Z M 11.484375 -7.28125 C 11.484375 -11 9.953125 -12.9375 7.078125 -12.9375 C 7.078125 -12.9375 3.640625 -12.9375 3.640625 -12.9375 C 3.640625 -12.9375 3.640625 -1.640625 3.640625 -1.640625 C 3.640625 -1.640625 7.078125 -1.640625 7.078125 -1.640625 C 9.953125 -1.640625 11.484375 -3.59375 11.484375 -7.28125 Z M 11.484375 -7.28125 "/>
</g>
<g id="glyph-0-1-39fa0ac0">
<path d="M 10.703125 -0.046875 C 10.15625 0.09375 9.90625 0.140625 9.5625 0.140625 C 8.734375 0.140625 8.015625 -0.4375 7.84375 -1.234375 C 6.921875 -0.265625 5.625 0.296875 4.28125 0.296875 C 2.15625 0.296875 0.84375 -0.8125 0.84375 -2.71875 C 0.84375 -4 1.453125 -4.9375 2.6875 -5.4375 C 3.3125 -5.703125 3.6875 -5.78125 6.046875 -6.078125 C 7.359375 -6.234375 7.78125 -6.546875 7.78125 -7.234375 C 7.78125 -7.234375 7.78125 -7.6875 7.78125 -7.6875 C 7.78125 -8.6875 6.9375 -9.234375 5.4375 -9.234375 C 3.875 -9.234375 3.125 -8.65625 2.984375 -7.375 C 2.984375 -7.375 1.296875 -7.375 1.296875 -7.375 C 1.40625 -9.796875 2.953125 -10.78125 5.5 -10.78125 C 8.078125 -10.78125 9.4375 -9.78125 9.4375 -7.921875 C 9.4375 -7.921875 9.4375 -2.078125 9.4375 -2.078125 C 9.4375 -1.5625 9.765625 -1.265625 10.34375 -1.265625 C 10.4375 -1.265625 10.515625 -1.265625 10.703125 -1.296875 C 10.703125 -1.296875 10.703125 -0.046875 10.703125 -0.046875 Z M 7.78125 -3.625 C 7.78125 -3.625 7.78125 -5.1875 7.78125 -5.1875 C 7.21875 -4.921875 6.859375 -4.84375 5.09375 -4.59375 C 3.3125 -4.34375 2.578125 -3.859375 2.578125 -2.765625 C 2.578125 -1.625 3.34375 -1.15625 4.640625 -1.15625 C 6.265625 -1.15625 7.78125 -2.125 7.78125 -3.625 Z M 7.78125 -3.625 "/>
</g>
<g id="glyph-0-2-39fa0ac0">
<path d="M 5.078125 0 C 4.515625 0.09375 4.125 0.140625 3.71875 0.140625 C 2.421875 0.140625 1.703125 -0.453125 1.703125 -1.515625 C 1.703125 -1.515625 1.703125 -9.125 1.703125 -9.125 C 1.703125 -9.125 0.28125 -9.125 0.28125 -9.125 C 0.28125 -9.125 0.28125 -10.484375 0.28125 -10.484375 C 0.28125 -10.484375 1.703125 -10.484375 1.703125 -10.484375 C 1.703125 -10.484375 1.703125 -13.359375 1.703125 -13.359375 C 1.703125 -13.359375 3.359375 -13.359375 3.359375 -13.359375 C 3.359375 -13.359375 3.359375 -10.484375 3.359375 -10.484375 C 3.359375 -10.484375 5.078125 -10.484375 5.078125 -10.484375 C 5.078125 -10.484375 5.078125 -9.125 5.078125 -9.125 C 5.078125 -9.125 3.359375 -9.125 3.359375 -9.125 C 3.359375 -9.125 3.359375 -2.265625 3.359375 -2.265625 C 3.359375 -1.515625 3.5625 -1.3125 4.28125 -1.3125 C 4.59375 -1.3125 4.859375 -1.34375 5.078125 -1.40625 C 5.078125 -1.40625 5.078125 0 5.078125 0 Z M 5.078125 0 "/>
</g>
<g id="glyph-0-3-39fa0ac0">
<path d="M 10.265625 -4.765625 C 10.265625 -4.765625 2.546875 -4.765625 2.546875 -4.765625 C 2.578125 -2.359375 3.875 -1.234375 5.625 -1.234375 C 6.953125 -1.234375 7.90625 -1.796875 8.359375 -3.1875 C 8.359375 -3.1875 10.046875 -3.1875 10.046875 -3.1875 C 9.625 -1.0625 7.953125 0.296875 5.5625 0.296875 C 2.625 0.296875 0.796875 -1.734375 0.796875 -5.1875 C 0.796875 -8.625 2.6875 -10.78125 5.59375 -10.78125 C 7.5625 -10.78125 9.15625 -9.734375 9.84375 -8.015625 C 10.140625 -7.234375 10.265625 -6.28125 10.265625 -4.765625 Z M 8.484375 -6.234375 C 8.484375 -7.875 7.21875 -9.234375 5.578125 -9.234375 C 3.90625 -9.234375 2.71875 -7.984375 2.578125 -6.125 C 2.578125 -6.125 8.453125 -6.125 8.453125 -6.125 C 8.484375 -6.15625 8.484375 -6.234375 8.484375 -6.234375 Z M 8.484375 -6.234375 "/>
</g>
<g id="glyph-0-4-39fa0ac0">
<path d="M 13.0625 0 C 13.0625 0 10.984375 0 10.984375 0 C 10.984375 0 9.484375 -4.375 9.484375 -4.375 C 9.484375 -4.375 3.859375 -4.375 3.859375 -4.375 C 3.859375 -4.375 2.3125 0 2.3125 0 C 2.3125 0 0.34375 0 0.34375 0 C 0.34375 0 5.546875 -14.578125 5.546875 -14.578125 C 5.546875 -14.578125 7.9375 -14.578125 7.9375 -14.578125 C 7.9375 -14.578125 13.0625 0 13.0625 0 Z M 8.953125 -5.9375 C 8.953125 -5.9375 6.71875 -12.578125 6.71875 -12.578125 C 6.71875 -12.578125 4.3125 -5.9375 4.3125 -5.9375 C 4.3125 -5.9375 8.953125 -5.9375 8.953125 -5.9375 Z M 8.953125 -5.9375 "/>
</g>
<g id="glyph-0-5-39fa0ac0">
<path d="M 9.640625 0 C 9.640625 0 8.140625 0 8.140625 0 C 8.140625 0 8.140625 -1.625 8.140625 -1.625 C 7.15625 -0.234375 6.1875 0.296875 4.640625 0.296875 C 2.59375 0.296875 1.296875 -0.8125 1.296875 -2.5625 C 1.296875 -2.5625 1.296875 -10.484375 1.296875 -10.484375 C 1.296875 -10.484375 2.953125 -10.484375 2.953125 -10.484375 C 2.953125 -10.484375 2.953125 -3.21875 2.953125 -3.21875 C 2.953125 -1.953125 3.796875 -1.15625 5.125 -1.15625 C 6.859375 -1.15625 7.984375 -2.5625 7.984375 -4.703125 C 7.984375 -4.703125 7.984375 -10.484375 7.984375 -10.484375 C 7.984375 -10.484375 9.640625 -10.484375 9.640625 -10.484375 C 9.640625 -10.484375 9.640625 0 9.640625 0 Z M 9.640625 0 "/>
</g>
<g id="glyph-0-6-39fa0ac0">
<path d="M 9.78125 -1.71875 C 9.78125 2.90625 8.375 4.359375 5.09375 4.359375 C 2.640625 4.359375 1.09375 3.1875 0.921875 1.203125 C 0.921875 1.203125 2.625 1.203125 2.625 1.203125 C 2.8125 2.484375 3.84375 2.953125 5.15625 2.953125 C 7.09375 2.953125 8.234375 1.90625 8.234375 -0.875 C 8.234375 -0.875 8.234375 -1.578125 8.234375 -1.578125 C 7.140625 -0.265625 6.21875 0.296875 4.90625 0.296875 C 2.4375 0.296875 0.578125 -1.84375 0.578125 -5.140625 C 0.578125 -8.546875 2.375 -10.78125 5.046875 -10.78125 C 6.375 -10.78125 7.40625 -10.203125 8.234375 -8.953125 C 8.234375 -8.953125 8.234375 -10.484375 8.234375 -10.484375 C 8.234375 -10.484375 9.78125 -10.484375 9.78125 -10.484375 C 9.78125 -10.484375 9.78125 -1.71875 9.78125 -1.71875 Z M 8.078125 -5.1875 C 8.078125 -7.71875 7.015625 -9.234375 5.21875 -9.234375 C 3.4375 -9.234375 2.3125 -7.765625 2.3125 -5.234375 C 2.3125 -2.703125 3.421875 -1.234375 5.234375 -1.234375 C 7 -1.234375 8.078125 -2.6875 8.078125 -5.1875 Z M 8.078125 -5.1875 "/>
</g>
<g id="glyph-0-7-39fa0ac0">
<path d="M 12.421875 -4 C 12.421875 -1.40625 10.421875 0.359375 6.71875 0.359375 C 3.28125 0.359375 0.953125 -1.296875 0.953125 -4.734375 C 0.953125 -4.734375 2.71875 -4.734375 2.71875 -4.734375 C 2.71875 -2.65625 4.078125 -1.28125 6.84375 -1.28125 C 9.359375 -1.28125 10.5625 -2.21875 10.5625 -3.8125 C 10.5625 -4.953125 9.71875 -5.703125 7.875 -6.1875 C 7.875 -6.1875 4.265625 -7.140625 4.265625 -7.140625 C 2.34375 -7.640625 1.40625 -8.765625 1.40625 -10.546875 C 1.40625 -13.1875 3.375 -14.9375 6.578125 -14.9375 C 9.9375 -14.9375 11.921875 -13.28125 11.921875 -10.421875 C 11.921875 -10.421875 10.15625 -10.421875 10.15625 -10.421875 C 10.15625 -12.3125 8.84375 -13.375 6.515625 -13.375 C 4.5625 -13.375 3.265625 -12.28125 3.265625 -10.796875 C 3.265625 -9.6875 3.90625 -9.09375 5.65625 -8.640625 C 5.65625 -8.640625 9.3125 -7.65625 9.3125 -7.65625 C 11.296875 -7.125 12.421875 -5.796875 12.421875 -4 Z M 12.421875 -4 "/>
</g>
<g id="glyph-0-8-39fa0ac0">
<path d="M 10.453125 -5.140625 C 10.453125 -1.796875 8.6875 0.296875 5.984375 0.296875 C 4.625 0.296875 3.640625 -0.1875 2.765625 -1.265625 C 2.765625 -1.265625 2.765625 4.359375 2.765625 4.359375 C 2.765625 4.359375 1.09375 4.359375 1.09375 4.359375 C 1.09375 4.359375 1.09375 -10.484375 1.09375 -10.484375 C 1.09375 -10.484375 2.625 -10.484375 2.625 -10.484375 C 2.625 -10.484375 2.625 -8.90625 2.625 -8.90625 C 3.40625 -10.140625 4.546875 -10.78125 5.953125 -10.78125 C 8.734375 -10.78125 10.453125 -8.65625 10.453125 -5.140625 Z M 8.71875 -5.1875 C 8.71875 -7.6875 7.515625 -9.21875 5.6875 -9.21875 C 3.921875 -9.21875 2.765625 -7.625 2.765625 -5.15625 C 2.765625 -2.703125 3.921875 -1.265625 5.6875 -1.265625 C 7.5 -1.265625 8.71875 -2.796875 8.71875 -5.1875 Z M 8.71875 -5.1875 "/>
</g>
<g id="glyph-0-9-39fa0ac0">
<path d="M 14.84375 -7.0625 C 14.84375 -2.78125 12.078125 0.359375 7.796875 0.359375 C 3.59375 0.359375 0.765625 -2.625 0.765625 -7.1875 C 0.765625 -11.734375 3.59375 -14.9375 7.78125 -14.9375 C 12.0625 -14.9375 14.84375 -11.765625 14.84375 -7.0625 Z M 12.984375 -7.09375 C 12.984375 -10.78125 10.9375 -13.296875 7.78125 -13.296875 C 4.703125 -13.296875 2.625 -10.78125 2.625 -7.1875 C 2.625 -3.578125 4.703125 -1.28125 7.796875 -1.28125 C 10.875 -1.28125 12.984375 -3.578125 12.984375 -7.09375 Z M 12.984375 -7.09375 "/>
</g>
<g id="glyph-0-10-39fa0ac0">
<path d="M 9.546875 -3.59375 C 9.34375 -1.203125 7.765625 0.296875 5.265625 0.296875 C 2.421875 0.296875 0.625 -1.765625 0.625 -5.140625 C 0.625 -8.625 2.453125 -10.78125 5.28125 -10.78125 C 7.625 -10.78125 9.21875 -9.515625 9.421875 -6.953125 C 9.421875 -6.953125 7.734375 -6.953125 7.734375 -6.953125 C 7.546875 -8.421875 6.65625 -9.234375 5.265625 -9.234375 C 3.4375 -9.234375 2.359375 -7.765625 2.359375 -5.140625 C 2.359375 -2.65625 3.453125 -1.234375 5.296875 -1.234375 C 6.71875 -1.234375 7.578125 -1.921875 7.859375 -3.59375 C 7.859375 -3.59375 9.546875 -3.59375 9.546875 -3.59375 Z M 9.546875 -3.59375 "/>
</g>
<g id="glyph-0-11-39fa0ac0">
<path d="M 10.140625 -6.8125 C 10.140625 -2.15625 8.5 0.296875 5.5 0.296875 C 2.453125 0.296875 0.859375 -2.15625 0.859375 -6.9375 C 0.859375 -11.703125 2.4375 -14.1875 5.5 -14.1875 C 8.578125 -14.1875 10.140625 -11.734375 10.140625 -6.8125 Z M 8.34375 -6.984375 C 8.34375 -10.78125 7.40625 -12.625 5.5 -12.625 C 3.59375 -12.625 2.65625 -10.796875 2.65625 -6.921875 C 2.65625 -3.046875 3.59375 -1.15625 5.453125 -1.15625 C 7.421875 -1.15625 8.34375 -2.953125 8.34375 -6.984375 Z M 8.34375 -6.984375 "/>
</g>
<g id="glyph-0-12-39fa0ac0">
<path d="M 6.9375 0 C 6.9375 0 5.1875 0 5.1875 0 C 5.1875 0 5.1875 -10.09375 5.1875 -10.09375 C 5.1875 -10.09375 2.046875 -10.09375 2.046875 -10.09375 C 2.046875 -10.09375 2.046875 -11.359375 2.046875 -11.359375 C 4.765625 -11.703125 5.15625 -12 5.78125 -14.1875 C 5.78125 -14.1875 6.9375 -14.1875 6.9375 -14.1875 C 6.9375 -14.1875 6.9375 0 6.9375 0 Z M 6.9375 0 "/>
</g>
<g id="glyph-0-13-39fa0ac0">
<path d="M 10.21875 -10.015625 C 10.21875 -8.28125 9.203125 -6.796875 7.21875 -5.734375 C 7.21875 -5.734375 5.21875 -4.65625 5.21875 -4.65625 C 3.484375 -3.640625 2.84375 -2.90625 2.65625 -1.734375 C 2.65625 -1.734375 10.125 -1.734375 10.125 -1.734375 C 10.125 -1.734375 10.125 0 10.125 0 C 10.125 0 0.6875 0 0.6875 0 C 0.84375 -3.125 1.703125 -4.453125 4.65625 -6.140625 C 4.65625 -6.140625 6.5 -7.1875 6.5 -7.1875 C 7.765625 -7.90625 8.421875 -8.859375 8.421875 -9.984375 C 8.421875 -11.5 7.21875 -12.640625 5.625 -12.640625 C 3.875 -12.640625 2.90625 -11.640625 2.765625 -9.265625 C 2.765625 -9.265625 1 -9.265625 1 -9.265625 C 1.09375 -12.703125 2.78125 -14.1875 5.6875 -14.1875 C 8.359375 -14.1875 10.21875 -12.421875 10.21875 -10.015625 Z M 10.21875 -10.015625 "/>
</g>
<g id="glyph-0-14-39fa0ac0">
<path d="M 10.125 -4.125 C 10.125 -1.4375 8.234375 0.296875 5.3125 0.296875 C 2.421875 0.296875 0.859375 -1.125 0.640625 -4.28125 C 0.640625 -4.28125 2.40625 -4.28125 2.40625 -4.28125 C 2.515625 -2.21875 3.453125 -1.265625 5.375 -1.265625 C 7.21875 -1.265625 8.3125 -2.3125 8.3125 -4.09375 C 8.3125 -5.6875 7.3125 -6.59375 5.375 -6.59375 C 5.375 -6.59375 4.421875 -6.59375 4.421875 -6.59375 C 4.421875 -6.59375 4.421875 -8.078125 4.421875 -8.078125 C 7.234375 -8.078125 7.90625 -8.703125 7.90625 -10.21875 C 7.90625 -11.71875 6.953125 -12.640625 5.40625 -12.640625 C 3.59375 -12.640625 2.734375 -11.703125 2.703125 -9.59375 C 2.703125 -9.59375 0.9375 -9.59375 0.9375 -9.59375 C 1 -12.625 2.515625 -14.1875 5.375 -14.1875 C 8.078125 -14.1875 9.703125 -12.71875 9.703125 -10.28125 C 9.703125 -8.859375 9.046875 -7.9375 7.71875 -7.421875 C 9.421875 -6.84375 10.125 -5.84375 10.125 -4.125 Z M 10.125 -4.125 "/>
</g>
<g id="glyph-1-0-39fa0ac0">
<path d="M -14.578125 -18.578125 C -14.578125 -18.578125 0 -14.875 0 -14.875 C 0 -14.875 0 -12.84375 0 -12.84375 C 0 -12.84375 -11.984375 -9.484375 -11.984375 -9.484375 C -11.984375 -9.484375 0 -6.21875 0 -6.21875 C 0 -6.21875 0 -4.1875 0 -4.1875 C 0 -4.1875 -14.578125 -0.4375 -14.578125 -0.4375 C -14.578125 -0.4375 -14.578125 -2.515625 -14.578125 -2.515625 C -14.578125 -2.515625 -2.734375 -5.265625 -2.734375 -5.265625 C -2.734375 -5.265625 -14.578125 -8.5 -14.578125 -8.5 C -14.578125 -8.5 -14.578125 -10.5 -14.578125 -10.5 C -14.578125 -10.5 -2.734375 -13.8125 -2.734375 -13.8125 C -2.734375 -13.8125 -14.578125 -16.5 -14.578125 -16.5 C -14.578125 -16.5 -14.578125 -18.578125 -14.578125 -18.578125 Z M -14.578125 -18.578125 "/>
</g>
<g id="glyph-1-1-39fa0ac0">
<path d="M -4.765625 -10.265625 C -4.765625 -10.265625 -4.765625 -2.546875 -4.765625 -2.546875 C -2.359375 -2.578125 -1.234375 -3.875 -1.234375 -5.625 C -1.234375 -6.953125 -1.796875 -7.90625 -3.1875 -8.359375 C -3.1875 -8.359375 -3.1875 -10.046875 -3.1875 -10.046875 C -1.0625 -9.625 0.296875 -7.953125 0.296875 -5.5625 C 0.296875 -2.625 -1.734375 -0.796875 -5.1875 -0.796875 C -8.625 -0.796875 -10.78125 -2.6875 -10.78125 -5.59375 C -10.78125 -7.5625 -9.734375 -9.15625 -8.015625 -9.84375 C -7.234375 -10.140625 -6.28125 -10.265625 -4.765625 -10.265625 Z M -6.234375 -8.484375 C -7.875 -8.484375 -9.234375 -7.21875 -9.234375 -5.578125 C -9.234375 -3.90625 -7.984375 -2.71875 -6.125 -2.578125 C -6.125 -2.578125 -6.125 -8.453125 -6.125 -8.453125 C -6.15625 -8.484375 -6.234375 -8.484375 -6.234375 -8.484375 Z M -6.234375 -8.484375 "/>
</g>
<g id="glyph-1-2-39fa0ac0">
</g>
<g id="glyph-1-3-39fa0ac0">
<path d="M -5.15625 -5.125 C -2.015625 -5.125 1.625 -3.859375 4.234375 -1.859375 C 4.234375 -1.859375 4.234375 -0.765625 4.234375 -0.765625 C 1.40625 -2.515625 -1.984375 -3.5 -5.15625 -3.5 C -8.359375 -3.5 -11.71875 -2.515625 -14.578125 -0.765625 C -14.578125 -0.765625 -14.578125 -1.859375 -14.578125 -1.859375 C -11.953125 -3.859375 -8.3125 -5.125 -5.15625 -5.125 Z M -5.15625 -5.125 "/>
</g>
<g id="glyph-2-0-39fa0ac0">
<path d="M -0.046875 -10.703125 C 0.09375 -10.15625 0.140625 -9.90625 0.140625 -9.5625 C 0.140625 -8.734375 -0.4375 -8.015625 -1.234375 -7.84375 C -0.265625 -6.921875 0.296875 -5.625 0.296875 -4.28125 C 0.296875 -2.15625 -0.8125 -0.84375 -2.71875 -0.84375 C -4 -0.84375 -4.9375 -1.453125 -5.4375 -2.6875 C -5.703125 -3.3125 -5.78125 -3.6875 -6.078125 -6.046875 C -6.234375 -7.359375 -6.546875 -7.78125 -7.234375 -7.78125 C -7.234375 -7.78125 -7.6875 -7.78125 -7.6875 -7.78125 C -8.6875 -7.78125 -9.234375 -6.9375 -9.234375 -5.4375 C -9.234375 -3.875 -8.65625 -3.125 -7.375 -2.984375 C -7.375 -2.984375 -7.375 -1.296875 -7.375 -1.296875 C -9.796875 -1.40625 -10.78125 -2.953125 -10.78125 -5.5 C -10.78125 -8.078125 -9.78125 -9.4375 -7.921875 -9.4375 C -7.921875 -9.4375 -2.078125 -9.4375 -2.078125 -9.4375 C -1.5625 -9.4375 -1.265625 -9.765625 -1.265625 -10.34375 C -1.265625 -10.4375 -1.265625 -10.515625 -1.296875 -10.703125 C -1.296875 -10.703125 -0.046875 -10.703125 -0.046875 -10.703125 Z M -3.625 -7.78125 C -3.625 -7.78125 -5.1875 -7.78125 -5.1875 -7.78125 C -4.921875 -7.21875 -4.84375 -6.859375 -4.59375 -5.09375 C -4.34375 -3.3125 -3.859375 -2.578125 -2.765625 -2.578125 C -1.625 -2.578125 -1.15625 -3.34375 -1.15625 -4.640625 C -1.15625 -6.265625 -2.125 -7.78125 -3.625 -7.78125 Z M -3.625 -7.78125 "/>
</g>
<g id="glyph-3-0-39fa0ac0">
<path d="M 0 -5.078125 C 0.09375 -4.515625 0.140625 -4.125 0.140625 -3.71875 C 0.140625 -2.421875 -0.453125 -1.703125 -1.515625 -1.703125 C -1.515625 -1.703125 -9.125 -1.703125 -9.125 -1.703125 C -9.125 -1.703125 -9.125 -0.28125 -9.125 -0.28125 C -9.125 -0.28125 -10.484375 -0.28125 -10.484375 -0.28125 C -10.484375 -0.28125 -10.484375 -1.703125 -10.484375 -1.703125 C -10.484375 -1.703125 -13.359375 -1.703125 -13.359375 -1.703125 C -13.359375 -1.703125 -13.359375 -3.359375 -13.359375 -3.359375 C -13.359375 -3.359375 -10.484375 -3.359375 -10.484375 -3.359375 C -10.484375 -3.359375 -10.484375 -5.078125 -10.484375 -5.078125 C -10.484375 -5.078125 -9.125 -5.078125 -9.125 -5.078125 C -9.125 -5.078125 -9.125 -3.359375 -9.125 -3.359375 C -9.125 -3.359375 -2.265625 -3.359375 -2.265625 -3.359375 C -1.515625 -3.359375 -1.3125 -3.5625 -1.3125 -4.28125 C -1.3125 -4.59375 -1.34375 -4.859375 -1.40625 -5.078125 C -1.40625 -5.078125 0 -5.078125 0 -5.078125 Z M 0 -5.078125 "/>
</g>
<g id="glyph-3-1-39fa0ac0">
<path d="M 0 -3.015625 C 0 -3.015625 0 -1.359375 0 -1.359375 C 0 -1.359375 -14.578125 -1.359375 -14.578125 -1.359375 C -14.578125 -1.359375 -14.578125 -3.015625 -14.578125 -3.015625 C -14.578125 -3.015625 0 -3.015625 0 -3.015625 Z M 0 -3.015625 "/>
</g>
<g id="glyph-3-2-39fa0ac0">
<path d="M -10.484375 -9.71875 C -10.484375 -9.71875 0 -5.703125 0 -5.703125 C 0 -5.703125 0 -3.875 0 -3.875 C 0 -3.875 -10.484375 -0.203125 -10.484375 -0.203125 C -10.484375 -0.203125 -10.484375 -2.078125 -10.484375 -2.078125 C -10.484375 -2.078125 -1.984375 -4.875 -1.984375 -4.875 C -1.984375 -4.875 -10.484375 -7.84375 -10.484375 -7.84375 C -10.484375 -7.84375 -10.484375 -9.71875 -10.484375 -9.71875 Z M -10.484375 -9.71875 "/>
</g>
<g id="glyph-3-3-39fa0ac0">
<path d="M 4.234375 -5.8125 C 4.234375 -5.8125 4.234375 -4.71875 4.234375 -4.71875 C 1.625 -2.71875 -2.015625 -1.453125 -5.1875 -1.453125 C -8.3125 -1.453125 -11.953125 -2.71875 -14.578125 -4.71875 C -14.578125 -4.71875 -14.578125 -5.8125 -14.578125 -5.8125 C -11.734375 -4.0625 -8.359375 -3.078125 -5.1875 -3.078125 C -1.984375 -3.078125 1.375 -4.0625 4.234375 -5.8125 Z M 4.234375 -5.8125 "/>
</g>
<g id="glyph-4-0-39fa0ac0">
<path d="M -9.015625 -6.421875 C -8.984375 -3.84375 -7.796875 -3.0625 -5.4375 -3.0625 C -5.4375 -3.0625 0 -3.0625 0 -3.0625 C 0 -3.0625 0 -1.40625 0 -1.40625 C 0 -1.40625 -10.484375 -1.40625 -10.484375 -1.40625 C -10.484375 -1.40625 -10.484375 -2.921875 -10.484375 -2.921875 C -10.484375 -2.921875 -8.578125 -2.921875 -8.578125 -2.921875 C -10.140625 -3.875 -10.78125 -4.703125 -10.78125 -5.78125 C -10.78125 -6 -10.765625 -6.140625 -10.71875 -6.421875 C -10.71875 -6.421875 -9.015625 -6.421875 -9.015625 -6.421875 Z M -9.015625 -6.421875 "/>
</g>
<g id="glyph-4-1-39fa0ac0">
<path d="M -4.765625 -10.265625 C -4.765625 -10.265625 -4.765625 -2.546875 -4.765625 -2.546875 C -2.359375 -2.578125 -1.234375 -3.875 -1.234375 -5.625 C -1.234375 -6.953125 -1.796875 -7.90625 -3.1875 -8.359375 C -3.1875 -8.359375 -3.1875 -10.046875 -3.1875 -10.046875 C -1.0625 -9.625 0.296875 -7.953125 0.296875 -5.5625 C 0.296875 -2.625 -1.734375 -0.796875 -5.1875 -0.796875 C -8.625 -0.796875 -10.78125 -2.6875 -10.78125 -5.59375 C -10.78125 -7.5625 -9.734375 -9.15625 -8.015625 -9.84375 C -7.234375 -10.140625 -6.28125 -10.265625 -4.765625 -10.265625 Z M -6.234375 -8.484375 C -7.875 -8.484375 -9.234375 -7.21875 -9.234375 -5.578125 C -9.234375 -3.90625 -7.984375 -2.71875 -6.125 -2.578125 C -6.125 -2.578125 -6.125 -8.453125 -6.125 -8.453125 C -6.15625 -8.484375 -6.234375 -8.484375 -6.234375 -8.484375 Z M -6.234375 -8.484375 "/>
</g>
<g id="glyph-5-0-39fa0ac0">
</g>
<g id="glyph-6-0-39fa0ac0">
<path d="M -4.765625 -10.265625 C -4.765625 -10.265625 -4.765625 -2.546875 -4.765625 -2.546875 C -2.359375 -2.578125 -1.234375 -3.875 -1.234375 -5.625 C -1.234375 -6.953125 -1.796875 -7.90625 -3.1875 -8.359375 C -3.1875 -8.359375 -3.1875 -10.046875 -3.1875 -10.046875 C -1.0625 -9.625 0.296875 -7.953125 0.296875 -5.5625 C 0.296875 -2.625 -1.734375 -0.796875 -5.1875 -0.796875 C -8.625 -0.796875 -10.78125 -2.6875 -10.78125 -5.59375 C -10.78125 -7.5625 -9.734375 -9.15625 -8.015625 -9.84375 C -7.234375 -10.140625 -6.28125 -10.265625 -4.765625 -10.265625 Z M -6.234375 -8.484375 C -7.875 -8.484375 -9.234375 -7.21875 -9.234375 -5.578125 C -9.234375 -3.90625 -7.984375 -2.71875 -6.125 -2.578125 C -6.125 -2.578125 -6.125 -8.453125 -6.125 -8.453125 C -6.15625 -8.484375 -6.234375 -8.484375 -6.234375 -8.484375 Z M -6.234375 -8.484375 "/>
</g>
<g id="glyph-7-0-39fa0ac0">
<path d="M 0 -15.203125 C 0 -15.203125 0 -13.546875 0 -13.546875 C 0 -13.546875 -7.21875 -13.546875 -7.21875 -13.546875 C -8.546875 -13.546875 -9.3125 -12.84375 -9.3125 -11.625 C -9.3125 -10.265625 -8.09375 -9.140625 -6.578125 -9.140625 C -6.578125 -9.140625 0 -9.140625 0 -9.140625 C 0 -9.140625 0 -7.484375 0 -7.484375 C 0 -7.484375 -7.21875 -7.484375 -7.21875 -7.484375 C -8.5625 -7.484375 -9.3125 -6.78125 -9.3125 -5.546875 C -9.3125 -4.1875 -8.09375 -3.078125 -6.578125 -3.078125 C -6.578125 -3.078125 0 -3.078125 0 -3.078125 C 0 -3.078125 0 -1.421875 0 -1.421875 C 0 -1.421875 -10.484375 -1.421875 -10.484375 -1.421875 C -10.484375 -1.421875 -10.484375 -2.9375 -10.484375 -2.9375 C -10.484375 -2.9375 -9 -2.9375 -9 -2.9375 C -10.265625 -3.84375 -10.78125 -4.765625 -10.78125 -6.15625 C -10.78125 -7.515625 -10.296875 -8.359375 -9.1875 -8.984375 C -10.359375 -9.953125 -10.78125 -10.796875 -10.78125 -12.203125 C -10.78125 -14.15625 -9.734375 -15.203125 -7.859375 -15.203125 C -7.859375 -15.203125 0 -15.203125 0 -15.203125 Z M 0 -15.203125 "/>
</g>
</g>
<clipPath id="clip-0-39fa0ac0">
<path clip-rule="nonzero" d="M 57 154 L 784 154 L 784 157 L 57 157 Z M 57 154 "/>
</clipPath>
</defs>
<rect x="-80" y="-30" width="960" height="360" fill="rgb(100%, 100%, 100%)" fill-opacity="1"/>
<g fill="rgb(0%, 0%, 0%)" fill-opacity="1">
<use xlink:href="#glyph-0-0-39fa0ac0" x="399.37999" y="280.239999"/>
<use xlink:href="#glyph-0-1-39fa0ac0" x="413.81999" y="280.239999"/>
<use xlink:href="#glyph-0-2-39fa0ac0" x="424.939991" y="280.239999"/>
<use xlink:href="#glyph-0-3-39fa0ac0" x="430.49999" y="280.239999"/>
</g>
<g fill="rgb(0%, 0%, 0%)" fill-opacity="1">
<use xlink:href="#glyph-0-4-39fa0ac0" x="72.255455" y="253.939999"/>
<use xlink:href="#glyph-0-5-39fa0ac0" x="85.595455" y="253.939999"/>
<use xlink:href="#glyph-0-6-39fa0ac0" x="96.715454" y="253.939999"/>
</g>
<g fill="rgb(0%, 0%, 0%)" fill-opacity="1">
<use xlink:href="#glyph-0-7-39fa0ac0" x="295.559878" y="253.939999"/>
<use xlink:href="#glyph-0-3-39fa0ac0" x="308.899878" y="253.939999"/>
<use xlink:href="#glyph-0-8-39fa0ac0" x="320.019877" y="253.939999"/>
</g>
<g fill="rgb(0%, 0%, 0%)" fill-opacity="1">
<use xlink:href="#glyph-0-9-39fa0ac0" x="512.390245" y="253.939999"/>
<use xlink:href="#glyph-0-10-39fa0ac0" x="527.950245" y="253.939999"/>
<use xlink:href="#glyph-0-2-39fa0ac0" x="537.950244" y="253.939999"/>
</g>
<g fill="rgb(0%, 0%, 0%)" fill-opacity="1">
<use xlink:href="#glyph-1-0-39fa0ac0" x="33.519997" y="191.779996"/>
</g>
<g fill="rgb(0%, 0%, 0%)" fill-opacity="1">
<use xlink:href="#glyph-2-0-39fa0ac0" x="33.519998" y="172.899998"/>
</g>
<g fill="rgb(0%, 0%, 0%)" fill-opacity="1">
<use xlink:href="#glyph-3-0-39fa0ac0" x="33.519999" y="161.779999"/>
</g>
<g fill="rgb(0%, 0%, 0%)" fill-opacity="1">
<use xlink:href="#glyph-1-1-39fa0ac0" x="33.519999" y="156.219998"/>
</g>
<g fill="rgb(0%, 0%, 0%)" fill-opacity="1">
<use xlink:href="#glyph-4-0-39fa0ac0" x="33.52" y="145.1"/>
</g>
<g fill="rgb(0%, 0%, 0%)" fill-opacity="1">
<use xlink:href="#glyph-5-0-39fa0ac0" x="33.52" y="138.440001"/>
</g>
<g fill="rgb(0%, 0%, 0%)" fill-opacity="1">
<use xlink:href="#glyph-3-1-39fa0ac0" x="33.520001" y="132.88"/>
</g>
<g fill="rgb(0%, 0%, 0%)" fill-opacity="1">
<use xlink:href="#glyph-4-1-39fa0ac0" x="33.520001" y="128.440001"/>
</g>
<g fill="rgb(0%, 0%, 0%)" fill-opacity="1">
<use xlink:href="#glyph-3-2-39fa0ac0" x="33.520002" y="117.320003"/>
</g>
<g fill="rgb(0%, 0%, 0%)" fill-opacity="1">
<use xlink:href="#glyph-6-0-39fa0ac0" x="33.520002" y="107.320005"/>
</g>
<g fill="rgb(0%, 0%, 0%)" fill-opacity="1">
<use xlink:href="#glyph-3-1-39fa0ac0" x="33.520003" y="96.200002"/>
</g>
<g fill="rgb(0%, 0%, 0%)" fill-opacity="1">
<use xlink:href="#glyph-1-2-39fa0ac0" x="33.520003" y="91.760001"/>
</g>
<g fill="rgb(0%, 0%, 0%)" fill-opacity="1">
<use xlink:href="#glyph-3-3-39fa0ac0" x="33.520004" y="86.200003"/>
</g>
<g fill="rgb(0%, 0%, 0%)" fill-opacity="1">
<use xlink:href="#glyph-7-0-39fa0ac0" x="33.520004" y="79.539999"/>
</g>
<g fill="rgb(0%, 0%, 0%)" fill-opacity="1">
<use xlink:href="#glyph-1-3-39fa0ac0" x="33.520005" y="62.879995"/>
</g>
<g fill="rgb(0%, 0%, 0%)" fill-opacity="1">
<use xlink:href="#glyph-0-11-39fa0ac0" x="40.879999" y="194.947507"/>
</g>
<g fill="rgb(0%, 0%, 0%)" fill-opacity="1">
<use xlink:href="#glyph-0-12-39fa0ac0" x="40.879999" y="141.833194"/>
</g>
<g fill="rgb(0%, 0%, 0%)" fill-opacity="1">
<use xlink:href="#glyph-0-13-39fa0ac0" x="40.879999" y="88.718874"/>
</g>
<g fill="rgb(0%, 0%, 0%)" fill-opacity="1">
<use xlink:href="#glyph-0-14-39fa0ac0" x="40.879999" y="35.604539"/>
</g>
<path fill="none" stroke-width="0.5" stroke-linecap="butt" stroke-linejoin="miter" stroke="rgb(90.196079%, 62.352943%, 0%)" stroke-opacity="1" stroke-miterlimit="2" d="M 90.046875 199.609375 L 90.34375 205.875 L 90.644531 209.859375 L 90.945312 211.242188 L 91.246094 210.65625 L 91.546875 208.796875 L 91.847656 204.015625 L 92.144531 197.960938 L 92.445312 190.792969 L 92.746094 184.578125 L 93.046875 179.265625 L 93.347656 176.820312 L 93.648438 177.566406 L 93.949219 179.691406 L 94.246094 181.65625 L 94.546875 182.613281 L 94.847656 183.035156 L 95.148438 181.867188 L 95.449219 182.613281 L 95.75 182.664062 L 96.046875 181.496094 L 96.347656 183.25 L 96.648438 185.109375 L 96.949219 188.453125 L 97.25 194.402344 L 97.550781 200.722656 L 97.847656 207.257812 L 98.148438 211.453125 L 98.449219 211.398438 L 98.75 209.964844 L 99.050781 207.46875 L 99.351562 203.328125 L 99.648438 198.757812 L 99.949219 189.996094 L 100.25 183.144531 L 100.550781 181.070312 L 100.851562 180.753906 L 101.152344 183.035156 L 101.449219 186.0625 L 101.75 187.976562 L 102.050781 189.464844 L 102.652344 187.339844 L 102.953125 186.703125 L 103.25 186.117188 L 103.550781 184.3125 L 103.851562 184.949219 L 104.152344 187.816406 L 104.453125 190.578125 L 104.753906 195.414062 L 105.050781 201.203125 L 105.351562 205.238281 L 105.652344 208.585938 L 105.953125 209.0625 L 106.253906 207.628906 L 106.554688 204.917969 L 106.851562 200.40625 L 107.152344 195.464844 L 107.453125 191.324219 L 107.753906 186.542969 L 108.054688 186.753906 L 108.355469 181.496094 L 108.652344 181.921875 L 108.953125 190.046875 L 109.253906 196.261719 L 109.554688 198.015625 L 109.855469 191.269531 L 110.15625 186.171875 L 110.453125 186.0625 L 110.753906 187.179688 L 111.054688 186.277344 L 111.355469 185.90625 L 111.65625 189.304688 L 111.957031 188.613281 L 112.257812 194.351562 L 112.554688 199.660156 L 112.855469 204.175781 L 113.15625 204.230469 L 113.457031 202.6875 L 113.757812 199.078125 L 114.058594 197.75 L 114.355469 196.6875 L 114.65625 191.855469 L 114.957031 187.125 L 115.257812 183.144531 L 115.558594 182.558594 L 115.859375 182.453125 L 116.15625 182.503906 L 116.457031 183.726562 L 116.757812 185.585938 L 117.058594 185.109375 L 117.359375 184.789062 L 117.660156 182.453125 L 117.957031 180.859375 L 118.257812 179.851562 L 118.558594 177.726562 L 118.859375 174.699219 L 119.160156 172.890625 L 119.460938 170.078125 L 119.757812 174.273438 L 120.058594 177.246094 L 120.359375 175.335938 L 120.660156 172.996094 L 120.960938 174.007812 L 121.261719 175.121094 L 121.558594 174.804688 L 121.859375 174.804688 L 122.160156 178.414062 L 122.460938 182.878906 L 122.761719 177.777344 L 123.0625 179 L 123.359375 177.992188 L 123.660156 183.460938 L 123.960938 191.589844 L 124.261719 194.5625 L 124.5625 196.847656 L 124.863281 195.835938 L 125.160156 194.828125 L 125.460938 191.960938 L 125.761719 186.808594 L 126.0625 185.054688 L 126.363281 183.195312 L 126.664062 182.398438 L 126.960938 184.257812 L 127.261719 185.265625 L 127.5625 184.3125 L 127.863281 185.585938 L 128.164062 185.320312 L 128.464844 185.957031 L 128.761719 184.257812 L 129.363281 177.882812 L 129.664062 177.351562 L 129.964844 179.265625 L 130.265625 180.273438 L 130.5625 180.0625 L 130.863281 181.761719 L 131.164062 185.375 L 131.464844 186.808594 L 131.765625 190.632812 L 132.066406 192.226562 L 132.367188 189.730469 L 132.664062 188.347656 L 132.964844 187.605469 L 133.265625 188.402344 L 133.566406 185.640625 L 133.867188 183.941406 L 134.167969 181.601562 L 134.464844 182.1875 L 134.765625 182.824219 L 135.066406 181.867188 L 135.367188 181.921875 L 135.667969 182.292969 L 135.96875 182.238281 L 136.265625 183.726562 L 136.566406 184.097656 L 136.867188 184.789062 L 137.167969 186.382812 L 137.46875 186.703125 L 137.769531 188.347656 L 138.066406 192.117188 L 138.367188 194.988281 L 138.667969 197.429688 L 138.96875 201.148438 L 139.269531 203.378906 L 139.570312 205.078125 L 139.867188 204.230469 L 140.167969 201.574219 L 140.46875 199.128906 L 140.769531 195.304688 L 141.070312 192.226562 L 141.371094 188.984375 L 141.667969 185.640625 L 141.96875 185.054688 L 142.269531 184.578125 L 142.570312 184.3125 L 142.871094 184.152344 L 143.171875 184.3125 L 143.46875 183.886719 L 143.769531 183.195312 L 144.070312 183.410156 L 144.371094 183.25 L 144.671875 186.328125 L 144.972656 188.347656 L 145.269531 191.324219 L 145.570312 194.03125 L 145.871094 196.367188 L 146.171875 199.34375 L 146.472656 200.777344 L 146.773438 204.546875 L 147.070312 204.652344 L 147.371094 202.636719 L 147.671875 199.128906 L 147.972656 197.003906 L 148.273438 191.960938 L 148.574219 192.011719 L 148.871094 187.65625 L 149.171875 183.941406 L 149.472656 182.824219 L 149.773438 180.964844 L 150.074219 179.160156 L 150.375 178.789062 L 150.675781 180.378906 L 150.972656 179.691406 L 151.273438 180.328125 L 151.574219 181.125 L 151.875 182.984375 L 152.175781 183.460938 L 152.476562 185.851562 L 152.773438 188.402344 L 153.074219 189.835938 L 153.375 192.648438 L 153.675781 196.472656 L 153.976562 201.253906 L 154.277344 204.070312 L 154.574219 204.335938 L 154.875 202.265625 L 155.175781 200.5625 L 155.476562 197.269531 L 155.777344 193.394531 L 156.078125 187.871094 L 156.375 183.726562 L 156.675781 179.796875 L 156.976562 178.523438 L 157.277344 180.0625 L 157.578125 182.132812 L 157.878906 181.175781 L 158.175781 179.796875 L 158.476562 178.628906 L 158.777344 178.839844 L 159.078125 180.117188 L 159.378906 180.644531 L 159.679688 182.132812 L 159.976562 184.84375 L 160.277344 187.179688 L 160.578125 191.589844 L 160.878906 197.003906 L 161.179688 200.9375 L 161.480469 203.0625 L 161.777344 205.132812 L 162.078125 204.707031 L 162.378906 203.699219 L 162.679688 201.148438 L 162.980469 198.066406 L 163.28125 193.289062 L 163.578125 188.933594 L 163.878906 185.53125 L 164.179688 181.972656 L 164.480469 180.859375 L 164.78125 180.964844 L 165.082031 181.019531 L 165.378906 180.273438 L 165.679688 180.167969 L 165.980469 180.964844 L 166.28125 181.285156 L 166.582031 181.601562 L 166.882812 182.984375 L 167.179688 186.648438 L 167.480469 189.996094 L 167.78125 193.554688 L 168.082031 197.378906 L 168.382812 200.882812 L 168.683594 204.175781 L 168.980469 206.195312 L 169.28125 208.691406 L 169.582031 210.230469 L 169.882812 208.585938 L 170.183594 204.707031 L 170.484375 200.5625 L 170.785156 197.113281 L 171.082031 191.058594 L 171.382812 186.703125 L 171.683594 183.78125 L 171.984375 183.886719 L 172.285156 183.300781 L 172.585938 182.984375 L 172.882812 183.144531 L 173.183594 183.566406 L 173.484375 185.53125 L 173.785156 186.59375 L 174.085938 188.507812 L 174.386719 188.613281 L 174.683594 189.570312 L 174.984375 192.492188 L 175.285156 196.953125 L 175.585938 200.351562 L 175.886719 203.804688 L 176.1875 207.523438 L 176.484375 210.976562 L 176.785156 213.207031 L 177.085938 213.152344 L 177.386719 210.816406 L 177.6875 207.839844 L 177.988281 202.953125 L 178.285156 198.707031 L 178.585938 194.296875 L 178.886719 189.996094 L 179.1875 186.703125 L 179.488281 185.425781 L 179.789062 186.328125 L 180.085938 186.914062 L 180.386719 187.234375 L 180.6875 187.125 L 180.988281 185.851562 L 181.289062 189.039062 L 181.589844 192.4375 L 181.886719 196.792969 L 182.1875 198.972656 L 182.488281 199.238281 L 182.789062 201.359375 L 183.089844 205.183594 L 183.390625 208.636719 L 183.6875 213.789062 L 183.988281 216.550781 L 184.289062 216.921875 L 184.589844 217.03125 L 184.890625 214.375 L 185.191406 209.382812 L 185.488281 204.070312 L 185.789062 199.820312 L 186.089844 195.679688 L 186.390625 191.003906 L 186.691406 187.125 L 186.992188 185.109375 L 187.289062 184.949219 L 187.589844 186.171875 L 187.890625 186.488281 L 188.191406 186.914062 L 188.492188 187.179688 L 188.792969 185.691406 L 189.09375 185.320312 L 189.390625 185.109375 L 189.691406 185.425781 L 189.992188 187.285156 L 190.292969 190.527344 L 190.59375 194.03125 L 190.894531 199.449219 L 191.191406 204.121094 L 191.492188 205.875 L 191.792969 204.601562 L 192.09375 203.21875 L 192.394531 201.253906 L 192.695312 196.527344 L 192.992188 191.589844 L 193.292969 187.125 L 193.59375 184.3125 L 193.894531 180.964844 L 194.195312 180.539062 L 194.496094 180.753906 L 194.792969 182.238281 L 195.09375 183.726562 L 195.394531 183.355469 L 195.695312 181.816406 L 195.996094 182.878906 L 196.296875 184.097656 L 196.59375 184.683594 L 196.894531 184.523438 L 197.195312 187.285156 L 197.496094 190.3125 L 197.796875 193.976562 L 198.097656 198.015625 L 198.394531 203.804688 L 198.695312 207.945312 L 198.996094 207.628906 L 199.296875 204.175781 L 199.597656 201.203125 L 199.898438 197.644531 L 200.195312 193.925781 L 200.496094 189.039062 L 200.796875 183.78125 L 201.097656 180.273438 L 201.398438 176.183594 L 201.699219 179.742188 L 201.996094 182.613281 L 202.296875 181.335938 L 202.597656 181.230469 L 202.898438 180.117188 L 203.199219 179.585938 L 203.5 184.84375 L 203.796875 186.328125 L 204.097656 188.453125 L 204.398438 189.25 L 204.699219 189.410156 L 205 190.792969 L 205.300781 195.890625 L 205.597656 201.042969 L 205.898438 203.699219 L 206.199219 205.558594 L 206.5 205.875 L 206.800781 205.503906 L 207.101562 203.0625 L 207.398438 199.238281 L 207.699219 195.679688 L 208 190.683594 L 208.300781 184.523438 L 208.601562 182.238281 L 208.902344 181.816406 L 209.203125 182.347656 L 209.5 181.65625 L 209.800781 184.257812 L 210.101562 186.222656 L 210.402344 187.390625 L 210.703125 185.691406 L 211.003906 184.578125 L 211.300781 182.082031 L 211.601562 179.957031 L 211.902344 179.796875 L 212.203125 183.621094 L 212.503906 188.347656 L 212.804688 193.023438 L 213.101562 196.738281 L 213.402344 202.050781 L 213.703125 205.078125 L 214.003906 204.917969 L 214.304688 202.953125 L 214.605469 200.140625 L 214.902344 197.695312 L 215.203125 193.023438 L 215.503906 189.570312 L 215.804688 187.019531 L 216.105469 186.382812 L 216.40625 187.871094 L 216.703125 187.871094 L 217.003906 189.089844 L 217.304688 190.152344 L 217.605469 189.886719 L 217.90625 189.039062 L 218.207031 187.605469 L 218.503906 185.640625 L 218.804688 183.992188 L 219.105469 183.089844 L 219.40625 185.425781 L 219.707031 187.976562 L 220.007812 189.996094 L 220.304688 193.179688 L 220.605469 196.582031 L 220.90625 199.238281 L 221.207031 199.980469 L 221.507812 200.085938 L 221.808594 198.121094 L 222.105469 193.925781 L 222.40625 191.324219 L 222.707031 188.878906 L 223.007812 184.417969 L 223.308594 181.335938 L 223.609375 184.363281 L 223.90625 186.222656 L 224.207031 187.765625 L 224.507812 189.304688 L 224.808594 190.898438 L 225.109375 189.886719 L 225.410156 190.152344 L 225.707031 189.675781 L 226.007812 188.082031 L 226.308594 187.605469 L 226.609375 185.957031 L 226.910156 183.941406 L 227.210938 183.035156 L 227.511719 185.375 L 227.808594 187.125 L 228.109375 189.25 L 228.710938 190.101562 L 229.011719 189.304688 L 229.3125 187.234375 L 229.609375 182.769531 L 229.910156 181.285156 L 230.210938 181.125 L 230.511719 177.460938 L 230.8125 178.945312 L 231.113281 183.25 L 231.410156 185.851562 L 231.710938 188.03125 L 232.011719 191.164062 L 232.3125 194.402344 L 232.613281 191.324219 L 232.914062 194.191406 L 233.210938 193.394531 L 233.511719 188.933594 L 233.8125 185.957031 L 234.113281 183.089844 L 234.414062 181.285156 L 234.714844 183.410156 L 235.011719 184.46875 L 235.3125 182.558594 L 235.613281 184.046875 L 235.914062 183.515625 L 236.214844 182.132812 L 236.515625 181.441406 L 236.8125 182.082031 L 237.113281 181.921875 L 237.414062 181.550781 L 237.714844 178.945312 L 238.015625 179.160156 L 238.316406 181.070312 L 238.613281 185.90625 L 238.914062 189.78125 L 239.214844 194.242188 L 239.515625 195.785156 L 239.816406 195.414062 L 240.117188 195.835938 L 240.414062 195.570312 L 240.714844 193.554688 L 241.015625 190.738281 L 241.316406 187.976562 L 241.617188 185.90625 L 241.917969 183.144531 L 242.214844 180.804688 L 242.515625 181.761719 L 242.816406 183.25 L 243.117188 183.144531 L 243.417969 183.195312 L 243.71875 181.175781 L 244.015625 181.550781 L 244.316406 181.972656 L 244.617188 181.972656 L 244.917969 181.230469 L 245.21875 183.035156 L 245.519531 186.277344 L 245.816406 189.515625 L 246.117188 194.03125 L 246.417969 199.183594 L 246.71875 202.265625 L 247.019531 206.460938 L 247.320312 206.300781 L 247.621094 203.21875 L 247.917969 201.359375 L 248.21875 197.910156 L 248.519531 194.933594 L 248.820312 192.226562 L 249.121094 188.824219 L 249.421875 184.578125 L 249.71875 184.578125 L 250.019531 184.789062 L 250.320312 185.425781 L 250.621094 184.789062 L 250.921875 185.054688 L 251.222656 183.675781 L 251.519531 183.195312 L 251.820312 185.160156 L 252.121094 185.53125 L 252.421875 186.542969 L 252.722656 188.507812 L 253.023438 192.171875 L 253.320312 195.941406 L 253.621094 200.828125 L 253.921875 204.496094 L 254.222656 207.523438 L 254.523438 211.242188 L 254.824219 211.027344 L 255.121094 209.859375 L 255.421875 205.449219 L 255.722656 202.105469 L 256.023438 198.226562 L 256.625 189.835938 L 256.921875 187.234375 L 257.222656 185.375 L 257.523438 185.90625 L 257.824219 186.328125 L 258.125 187.179688 L 258.425781 186.328125 L 258.722656 184.203125 L 259.023438 183.726562 L 259.324219 184.628906 L 259.625 186.117188 L 259.925781 187.65625 L 260.226562 189.199219 L 260.523438 192.863281 L 260.824219 196.367188 L 261.125 200.5625 L 261.425781 205.664062 L 261.726562 209.753906 L 262.027344 212.515625 L 262.324219 213.417969 L 262.625 212.195312 L 262.925781 210.285156 L 263.226562 207.363281 L 263.527344 204.707031 L 263.828125 201.945312 L 264.125 196.898438 L 264.425781 192.4375 L 264.726562 189.78125 L 265.027344 188.03125 L 265.328125 188.773438 L 265.628906 190.152344 L 265.929688 191.855469 L 266.226562 190.683594 L 266.527344 191.058594 L 266.828125 192.863281 L 267.128906 192.703125 L 267.429688 195.253906 L 267.730469 196.898438 L 268.027344 199.394531 L 268.328125 201.574219 L 268.628906 205.449219 L 268.929688 210.070312 L 269.230469 214.640625 L 269.53125 219.207031 L 269.828125 221.652344 L 270.128906 222.183594 L 270.429688 220.480469 L 270.730469 217.03125 L 271.03125 211.503906 L 271.332031 205.558594 L 271.628906 198.707031 L 271.929688 193.710938 L 272.230469 189.515625 L 272.53125 187.65625 L 272.832031 187.65625 L 273.132812 189.25 L 273.429688 190.578125 L 273.730469 190.207031 L 274.03125 190.367188 L 274.332031 190.152344 L 274.632812 187.816406 L 274.933594 188.1875 L 275.230469 187.65625 L 275.53125 190.898438 L 275.832031 193.871094 L 276.132812 198.121094 L 276.433594 203.484375 L 276.734375 208.425781 L 277.03125 211.878906 L 277.332031 214.535156 L 277.632812 212.832031 L 277.933594 211.292969 L 278.234375 207.679688 L 278.535156 202.105469 L 278.832031 194.988281 L 279.132812 188.613281 L 279.433594 184.84375 L 279.734375 182.453125 L 280.035156 182.453125 L 280.335938 183.089844 L 280.632812 184.363281 L 280.933594 184.097656 L 281.234375 184.628906 L 281.535156 184.417969 L 281.835938 185.746094 L 282.136719 185.746094 L 282.433594 184.683594 L 282.734375 185.054688 L 283.035156 187.019531 L 283.335938 189.996094 L 283.636719 195.570312 L 283.9375 202.210938 L 284.234375 207.417969 L 284.535156 211.347656 L 284.835938 213.257812 L 285.136719 214.160156 L 285.4375 210.710938 L 285.738281 206.511719 L 286.039062 201.625 L 286.335938 194.191406 L 286.636719 188.933594 L 286.9375 184.734375 L 287.238281 181.175781 L 287.539062 180.433594 L 287.839844 182.292969 L 288.136719 183.621094 L 288.4375 184.789062 L 288.738281 185.214844 L 289.039062 183.675781 L 289.339844 182.769531 L 289.640625 182.613281 L 289.9375 181.707031 L 290.238281 181.707031 L 290.539062 182.613281 L 290.839844 185.957031 L 291.140625 191.375 L 291.441406 198.015625 L 291.738281 203.328125 L 292.039062 205.769531 L 292.339844 207.042969 L 292.640625 206.671875 L 292.941406 205.664062 L 293.242188 201.359375 L 293.539062 195.730469 L 293.839844 190.3125 L 294.140625 185.160156 L 294.441406 181.125 L 294.742188 179.425781 L 295.042969 180.964844 L 295.339844 182.984375 L 295.640625 182.824219 L 295.941406 183.460938 L 296.242188 184.363281 L 296.542969 183.035156 L 296.84375 182.398438 L 297.140625 181.230469 L 297.441406 180.0625 L 297.742188 179.636719 L 298.042969 181.175781 L 298.34375 185.054688 L 298.644531 189.304688 L 298.941406 194.667969 L 299.242188 200.457031 L 299.542969 204.175781 L 299.84375 205.769531 L 300.144531 204.386719 L 300.445312 201.625 L 300.742188 198.175781 L 301.042969 192.757812 L 301.34375 189.835938 L 301.644531 184.949219 L 301.945312 181.761719 L 302.246094 180.488281 L 302.542969 183.355469 L 302.84375 185.265625 L 303.144531 186.859375 L 303.445312 185.957031 L 303.746094 184.84375 L 304.046875 183.300781 L 304.347656 181.550781 L 304.644531 179.265625 L 304.945312 178.257812 L 305.246094 177.9375 L 305.546875 177.777344 L 305.847656 179.265625 L 306.148438 182.398438 L 306.445312 186.648438 L 306.746094 189.730469 L 307.046875 191.960938 L 307.347656 192.4375 L 307.648438 192.648438 L 307.949219 191.695312 L 308.246094 188.773438 L 308.546875 186.0625 L 308.847656 182.453125 L 309.148438 179.105469 L 309.449219 178.628906 L 309.75 178.679688 L 310.046875 181.707031 L 310.347656 182.558594 L 310.648438 186.277344 L 310.949219 184.894531 L 311.25 184.949219 L 311.550781 183.089844 L 311.847656 181.019531 L 312.148438 178.46875 L 312.449219 176.34375 L 312.75 176.238281 L 313.050781 177.566406 L 313.351562 177.511719 L 313.648438 179.957031 L 313.949219 182.027344 L 314.25 183.035156 L 314.550781 183.300781 L 314.851562 185.214844 L 315.152344 183.621094 L 315.449219 180.859375 L 315.75 178.523438 L 316.050781 172.625 L 316.351562 172.679688 L 316.652344 171.140625 L 316.953125 171.777344 L 317.25 172.414062 L 317.550781 177.035156 L 317.851562 179.371094 L 318.152344 183.25 L 318.453125 188.507812 L 318.753906 190.046875 L 319.050781 188.773438 L 319.351562 189.730469 L 319.652344 191.269531 L 319.953125 191.695312 L 320.253906 193.765625 L 320.554688 193.554688 L 320.851562 195.730469 L 321.453125 206.355469 L 321.753906 207.152344 L 322.054688 208.160156 L 322.355469 209.117188 L 322.65625 208.210938 L 322.953125 205.824219 L 323.253906 202.636719 L 323.554688 198.28125 L 323.855469 193.128906 L 324.15625 189.410156 L 324.457031 189.199219 L 324.753906 190.683594 L 325.054688 192.597656 L 325.355469 194.351562 L 325.65625 193.710938 L 325.957031 191.429688 L 326.257812 189.464844 L 326.554688 184.949219 L 326.855469 178.308594 L 327.15625 173.210938 L 327.457031 171.511719 L 327.757812 169.652344 L 328.058594 170.34375 L 328.355469 171.191406 L 328.65625 171.828125 L 328.957031 173.316406 L 329.257812 173.210938 L 329.558594 171.617188 L 329.859375 170.394531 L 330.15625 168.800781 L 330.457031 168.113281 L 330.757812 167.527344 L 331.058594 168.695312 L 331.359375 168.855469 L 331.660156 170.183594 L 331.957031 174.113281 L 332.257812 179.636719 L 332.558594 183.300781 L 332.859375 184.734375 L 333.160156 184.628906 L 333.460938 182.613281 L 333.757812 182.347656 L 334.058594 181.816406 L 334.359375 176.34375 L 334.660156 174.433594 L 334.960938 171.617188 L 335.261719 169.96875 L 335.558594 170.554688 L 335.859375 172.890625 L 336.160156 174.324219 L 336.460938 173.6875 L 336.761719 174.058594 L 337.0625 174.433594 L 337.359375 173.582031 L 337.660156 174.21875 L 337.960938 175.121094 L 338.261719 176.664062 L 338.5625 176.769531 L 338.863281 179.742188 L 339.160156 185.640625 L 339.460938 188.773438 L 339.761719 192.648438 L 340.0625 195.359375 L 340.363281 198.546875 L 340.664062 198.28125 L 340.960938 198.226562 L 341.261719 196.421875 L 341.5625 193.074219 L 341.863281 189.78125 L 342.164062 185.796875 L 342.464844 184.683594 L 342.765625 182.71875 L 343.0625 181.867188 L 343.363281 179.425781 L 343.664062 179.105469 L 343.964844 179 L 344.265625 179 L 344.566406 176.980469 L 344.863281 174.855469 L 345.164062 171.828125 L 345.464844 170.820312 L 345.765625 173.15625 L 346.066406 176.929688 L 346.367188 178.679688 L 346.664062 181.230469 L 346.964844 183.460938 L 347.265625 186.542969 L 347.566406 187.019531 L 347.867188 188.03125 L 348.167969 188.292969 L 348.464844 188.347656 L 348.765625 189.089844 L 349.066406 187.019531 L 349.367188 183.675781 L 349.667969 180.328125 L 349.96875 177.617188 L 350.265625 175.335938 L 350.566406 173.902344 L 350.867188 173.476562 L 351.167969 172.148438 L 351.46875 169.863281 L 351.769531 169.597656 L 352.066406 171.140625 L 352.367188 172.148438 L 352.667969 173.902344 L 352.96875 173.050781 L 353.269531 174.167969 L 353.570312 175.8125 L 353.867188 177.035156 L 354.167969 179.796875 L 354.46875 182.769531 L 354.769531 185.53125 L 355.070312 188.773438 L 355.371094 191.109375 L 355.667969 192.332031 L 355.96875 191.535156 L 356.269531 188.984375 L 356.570312 188.558594 L 356.871094 185.480469 L 357.171875 181.921875 L 357.46875 177.832031 L 357.769531 174.324219 L 358.070312 172.785156 L 358.371094 171.457031 L 358.671875 171.671875 L 358.972656 171.722656 L 359.269531 170.980469 L 359.570312 169.066406 L 359.871094 170.234375 L 360.171875 169.8125 L 360.472656 171.296875 L 360.773438 172.625 L 361.070312 173.953125 L 361.371094 176.820312 L 361.671875 181.175781 L 361.972656 184.578125 L 362.273438 186.648438 L 362.574219 190.101562 L 362.875 191.535156 L 363.171875 192.382812 L 363.472656 191.855469 L 363.773438 190.578125 L 364.074219 188.03125 L 364.375 184.363281 L 364.675781 179.636719 L 364.972656 175.917969 L 365.273438 173.261719 L 365.574219 171.140625 L 365.875 171.296875 L 366.175781 170.078125 L 366.476562 170.714844 L 366.773438 169.492188 L 367.074219 168.90625 L 367.375 168.800781 L 367.675781 168.855469 L 367.976562 170.660156 L 368.277344 172.308594 L 368.574219 172.996094 L 368.875 176.554688 L 369.175781 178.148438 L 369.476562 180.539062 L 369.777344 183.195312 L 370.078125 185.640625 L 370.375 186.488281 L 370.675781 187.765625 L 370.976562 187.816406 L 371.277344 186.328125 L 371.578125 183.355469 L 371.878906 180.433594 L 372.175781 175.867188 L 372.476562 173.15625 L 372.777344 169.703125 L 373.078125 167.472656 L 373.378906 166.730469 L 373.679688 166.253906 L 373.976562 166.304688 L 374.277344 165.828125 L 374.578125 166.199219 L 374.878906 167.050781 L 375.179688 165.988281 L 375.480469 166.359375 L 375.777344 168.484375 L 376.078125 169.757812 L 376.378906 174.273438 L 376.679688 176.027344 L 376.980469 177.9375 L 377.28125 182.613281 L 377.578125 184.628906 L 377.878906 187.125 L 378.179688 186.96875 L 378.480469 186.011719 L 378.78125 184.46875 L 379.082031 182.398438 L 379.378906 178.042969 L 379.679688 173.742188 L 379.980469 170.234375 L 380.28125 168.164062 L 380.582031 167.472656 L 380.882812 165.457031 L 381.183594 164.710938 L 381.480469 164.445312 L 382.082031 164.554688 L 382.382812 164.976562 L 382.683594 164.554688 L 382.984375 163.648438 L 383.28125 165.082031 L 383.582031 166.890625 L 383.882812 167.421875 L 384.183594 171.351562 L 384.484375 173.792969 L 384.785156 176.183594 L 385.082031 180.433594 L 385.382812 181.761719 L 385.683594 182.71875 L 385.984375 181.441406 L 386.285156 178.839844 L 386.585938 175.175781 L 386.882812 171.777344 L 387.183594 167.847656 L 387.484375 163.96875 L 387.785156 160.730469 L 388.085938 158.65625 L 388.386719 158.230469 L 388.683594 157.964844 L 388.984375 157.859375 L 389.285156 157.328125 L 389.585938 156.375 L 389.886719 155.417969 L 390.1875 154.40625 L 390.484375 152.230469 L 390.785156 151.273438 L 391.085938 153.824219 L 391.386719 155.363281 L 391.6875 156.109375 L 391.988281 158.074219 L 392.285156 161.789062 L 392.585938 164.339844 L 392.886719 165.082031 L 393.1875 163.808594 L 393.488281 159.1875 L 393.789062 154.089844 L 394.085938 148.671875 L 394.386719 142.457031 L 394.6875 141.183594 L 394.988281 139.800781 L 395.289062 134.4375 L 395.589844 129.230469 L 395.886719 124.1875 L 396.1875 120.628906 L 396.488281 115.261719 L 396.789062 112.394531 L 397.089844 106.339844 L 397.390625 101.027344 L 397.6875 94.230469 L 397.988281 84.351562 L 398.289062 83.871094 L 398.589844 71.921875 L 398.890625 72.238281 L 399.191406 71.335938 L 399.492188 73.355469 L 399.789062 59.96875 L 400.089844 56.144531 L 400.390625 49.453125 L 400.691406 41.167969 L 400.992188 25.816406 L 401.292969 57.953125 L 401.589844 81.855469 L 401.890625 99.539062 L 402.191406 96.511719 L 402.492188 98.371094 L 402.792969 106.394531 L 403.09375 110.429688 L 403.390625 111.757812 L 403.691406 114.148438 L 403.992188 109.046875 L 404.292969 105.4375 L 404.59375 109.421875 L 404.894531 115.742188 L 405.191406 121.957031 L 405.492188 127.265625 L 405.792969 132.101562 L 406.09375 134.648438 L 406.394531 133.375 L 406.695312 129.125 L 406.992188 127.054688 L 407.292969 125.621094 L 407.59375 123.175781 L 407.894531 122.113281 L 408.195312 124.875 L 408.496094 129.816406 L 408.792969 134.222656 L 409.09375 141.34375 L 409.394531 147.132812 L 409.695312 146.546875 L 409.996094 157.808594 L 410.296875 158.976562 L 410.59375 158.761719 L 410.894531 159.613281 L 411.195312 158.605469 L 411.496094 158.65625 L 411.796875 159.878906 L 412.097656 163.648438 L 412.394531 166.519531 L 412.695312 171.140625 L 412.996094 172.996094 L 413.296875 175.546875 L 413.597656 174.167969 L 413.898438 171.988281 L 414.195312 172.359375 L 414.496094 170.980469 L 414.796875 168.855469 L 415.097656 166.464844 L 415.398438 164.394531 L 415.699219 163.011719 L 415.996094 163.96875 L 416.296875 163.492188 L 416.597656 167.261719 L 416.898438 169.546875 L 417.199219 173.15625 L 417.5 177.195312 L 417.796875 178.734375 L 418.097656 176.875 L 418.398438 175.867188 L 418.699219 175.601562 L 419 174.804688 L 419.300781 173.902344 L 419.601562 174.699219 L 419.898438 175.386719 L 420.199219 179.054688 L 420.5 182.824219 L 420.800781 186.488281 L 421.101562 187.605469 L 421.402344 188.933594 L 421.699219 189.039062 L 422 185.585938 L 422.300781 180.0625 L 422.601562 174.378906 L 422.902344 171.988281 L 423.203125 172.308594 L 423.5 174.113281 L 423.800781 176.980469 L 424.101562 179.371094 L 424.402344 180.273438 L 424.703125 182.347656 L 425.003906 184.683594 L 425.300781 185.585938 L 425.601562 183.035156 L 425.902344 177.566406 L 426.203125 172.09375 L 426.503906 168.535156 L 426.804688 167.792969 L 427.101562 169.121094 L 427.402344 171.246094 L 427.703125 174.273438 L 428.003906 177.566406 L 428.304688 179.320312 L 428.605469 180.804688 L 428.902344 179.851562 L 429.503906 174.539062 L 429.804688 171.5625 L 430.105469 170.820312 L 430.40625 171.882812 L 430.703125 173.527344 L 431.003906 176.027344 L 431.304688 180.753906 L 431.605469 184.417969 L 431.90625 187.710938 L 432.207031 186.808594 L 432.503906 183.566406 L 432.804688 180.007812 L 433.105469 176.769531 L 433.40625 174.058594 L 433.707031 169.757812 L 434.007812 165.828125 L 434.304688 163.703125 L 434.605469 164.816406 L 434.90625 167.527344 L 435.207031 168.855469 L 435.507812 168.960938 L 435.808594 167.953125 L 436.105469 167.847656 L 436.40625 168.429688 L 436.707031 169.386719 L 437.007812 169.332031 L 437.308594 169.226562 L 437.609375 170.449219 L 437.90625 171.988281 L 438.207031 174.539062 L 438.507812 178.574219 L 438.808594 183.78125 L 439.109375 187.390625 L 439.410156 188.933594 L 439.710938 188.507812 L 440.007812 186.171875 L 440.308594 183.25 L 440.609375 179.476562 L 440.910156 175.28125 L 441.210938 170.449219 L 441.511719 166.785156 L 441.808594 165.191406 L 442.109375 164.925781 L 442.410156 166.359375 L 442.710938 167.6875 L 443.011719 166.519531 L 443.3125 165.828125 L 443.609375 165.933594 L 443.910156 166.835938 L 444.210938 167.207031 L 444.511719 167.367188 L 444.8125 168.535156 L 445.113281 170.234375 L 445.410156 173.15625 L 445.710938 178.46875 L 446.011719 184.523438 L 446.3125 188.292969 L 446.613281 190.527344 L 446.914062 192.863281 L 447.210938 192.277344 L 447.511719 188.1875 L 447.8125 185.480469 L 448.113281 180.910156 L 448.714844 172.519531 L 449.011719 168.113281 L 449.3125 165.933594 L 449.613281 164.976562 L 449.914062 164.339844 L 450.214844 164.023438 L 450.515625 163.066406 L 450.8125 163.117188 L 451.113281 162.320312 L 451.414062 160.199219 L 451.714844 159.933594 L 452.015625 162.054688 L 452.316406 163.332031 L 452.613281 165.402344 L 452.914062 169.226562 L 453.214844 173.6875 L 453.515625 177.9375 L 453.816406 182.769531 L 454.117188 186.542969 L 454.414062 188.984375 L 454.714844 191.324219 L 455.015625 188.402344 L 455.316406 184.46875 L 455.617188 180.117188 L 455.917969 176.078125 L 456.214844 173.476562 L 456.515625 169.226562 L 456.816406 166.464844 L 457.117188 166.144531 L 457.417969 165.722656 L 457.71875 163.96875 L 458.019531 163.914062 L 458.316406 162.585938 L 458.617188 162.429688 L 458.917969 163.542969 L 459.21875 163.597656 L 459.519531 163.492188 L 459.820312 165.722656 L 460.117188 167.632812 L 460.417969 170.660156 L 460.71875 173.210938 L 461.019531 177.460938 L 461.320312 181.707031 L 461.621094 185.375 L 461.917969 188.71875 L 462.21875 190.207031 L 462.519531 188.136719 L 462.820312 183.089844 L 463.121094 178.789062 L 463.421875 175.070312 L 463.71875 170.289062 L 464.019531 167.367188 L 464.320312 163.542969 L 464.621094 162.054688 L 464.921875 161.738281 L 465.222656 161.046875 L 465.519531 161.152344 L 465.820312 160.886719 L 466.421875 158.550781 L 466.722656 159.136719 L 467.023438 159.933594 L 467.320312 163.171875 L 467.621094 163.492188 L 467.921875 166.625 L 468.222656 169.597656 L 468.523438 173.636719 L 468.824219 178.414062 L 469.121094 183.300781 L 469.421875 185.265625 L 469.722656 186.4375 L 470.023438 186.808594 L 470.324219 184.3125 L 470.625 180.59375 L 470.921875 177.566406 L 471.222656 172.308594 L 471.523438 167.632812 L 471.824219 163.4375 L 472.125 161.898438 L 472.425781 160.78125 L 472.722656 159.878906 L 473.023438 158.710938 L 473.324219 157.699219 L 473.625 158.390625 L 473.925781 160.144531 L 474.226562 159.71875 L 474.523438 159.933594 L 474.824219 159.347656 L 475.125 160.039062 L 475.425781 163.066406 L 475.726562 167.582031 L 476.027344 172.46875 L 476.328125 177.726562 L 476.625 179.957031 L 476.925781 183.460938 L 477.226562 186.488281 L 477.527344 187.019531 L 478.128906 180.222656 L 478.425781 175.761719 L 478.726562 171.457031 L 479.027344 165.136719 L 479.328125 160.886719 L 479.628906 160.039062 L 479.929688 159.878906 L 480.226562 158.550781 L 480.527344 157.914062 L 480.828125 157.488281 L 481.128906 157.222656 L 481.429688 157.488281 L 481.730469 158.761719 L 482.027344 159.1875 L 482.328125 159.824219 L 482.628906 160.199219 L 482.929688 161.683594 L 483.230469 165.191406 L 483.53125 168.75 L 483.828125 172.625 L 484.128906 174.964844 L 484.429688 177.777344 L 484.730469 179.796875 L 485.03125 180.804688 L 485.332031 179.160156 L 485.628906 174.964844 L 485.929688 170.078125 L 486.230469 165.082031 L 486.53125 160.304688 L 486.832031 157.117188 L 487.132812 157.117188 L 487.429688 158.230469 L 487.730469 159.507812 L 488.03125 160.355469 L 488.332031 160.089844 L 488.632812 161.152344 L 488.933594 161.578125 L 489.230469 161.152344 L 489.53125 161.683594 L 489.832031 161.3125 L 490.132812 161.101562 L 490.433594 161.632812 L 490.734375 164.660156 L 491.03125 167.632812 L 491.332031 171.828125 L 491.632812 176.078125 L 491.933594 181.175781 L 492.234375 182.238281 L 492.535156 182.984375 L 492.832031 182.027344 L 493.132812 178.574219 L 493.433594 174.699219 L 493.734375 171.085938 L 494.035156 168.960938 L 494.335938 166.625 L 494.632812 166.730469 L 494.933594 167.367188 L 495.234375 167.792969 L 495.535156 169.28125 L 495.835938 170.183594 L 496.136719 169.96875 L 496.4375 171.296875 L 496.734375 171.296875 L 497.035156 169.8125 L 497.335938 166.570312 L 497.636719 165.773438 L 497.9375 166.039062 L 498.238281 169.066406 L 498.535156 173.527344 L 498.835938 176.449219 L 499.136719 180.699219 L 499.4375 183.621094 L 499.738281 186.171875 L 500.039062 186.117188 L 500.335938 183.566406 L 500.636719 180.644531 L 500.9375 177.671875 L 501.238281 175.707031 L 501.539062 173.792969 L 501.839844 173.105469 L 502.136719 174.324219 L 502.4375 175.761719 L 502.738281 178.363281 L 503.039062 180.488281 L 503.339844 182.132812 L 503.640625 182.769531 L 503.9375 183.460938 L 504.238281 181.867188 L 504.539062 178.894531 L 504.839844 176.609375 L 505.140625 175.917969 L 505.441406 175.546875 L 505.738281 176.027344 L 506.039062 178.363281 L 506.339844 180.539062 L 506.640625 181.921875 L 506.941406 184.363281 L 507.242188 184.523438 L 507.539062 184.894531 L 507.839844 184.257812 L 508.140625 181.230469 L 508.441406 178.042969 L 508.742188 175.917969 L 509.042969 175.867188 L 509.339844 175.652344 L 509.640625 176.980469 L 509.941406 180.117188 L 510.242188 181.019531 L 510.542969 182.929688 L 510.84375 183.300781 L 511.140625 184.257812 L 511.441406 182.238281 L 512.042969 176.714844 L 512.34375 174.21875 L 512.644531 172.679688 L 512.941406 173.050781 L 513.242188 173.476562 L 513.542969 175.917969 L 513.84375 177.882812 L 514.144531 179.265625 L 514.445312 180.644531 L 514.742188 181.496094 L 515.042969 181.867188 L 515.34375 180.488281 L 515.644531 177.992188 L 515.945312 176.34375 L 516.246094 175.496094 L 516.546875 176.238281 L 516.84375 176.875 L 517.144531 179.371094 L 517.445312 182.453125 L 517.746094 184.363281 L 518.046875 184.523438 L 518.347656 185.480469 L 518.644531 184.84375 L 518.945312 182.398438 L 519.246094 179 L 519.546875 174.804688 L 519.847656 171.457031 L 520.148438 169.597656 L 520.445312 168.695312 L 520.746094 170.078125 L 521.046875 171.722656 L 521.347656 172.414062 L 521.648438 173.261719 L 521.949219 172.945312 L 522.246094 173.15625 L 522.546875 173.050781 L 522.847656 171.9375 L 523.148438 171.5625 L 523.449219 170.980469 L 523.75 171.671875 L 524.046875 173.476562 L 524.347656 177.085938 L 524.648438 179.796875 L 524.949219 182.558594 L 525.25 185.425781 L 525.550781 186.859375 L 525.847656 186.648438 L 526.148438 184.523438 L 526.449219 181.707031 L 526.75 178.839844 L 527.050781 175.230469 L 527.351562 172.09375 L 527.648438 169.703125 L 527.949219 170.023438 L 528.25 169.96875 L 528.550781 171.246094 L 528.851562 170.765625 L 529.152344 171.777344 L 529.449219 172.730469 L 529.75 174.058594 L 530.050781 173.6875 L 530.351562 173.636719 L 530.652344 173.6875 L 530.953125 174.910156 L 531.25 175.175781 L 531.550781 177.617188 L 531.851562 180.488281 L 532.152344 183.621094 L 532.453125 187.074219 L 532.753906 188.667969 L 533.050781 189.089844 L 533.351562 187.074219 L 533.652344 185.375 L 533.953125 182.929688 L 534.253906 179.371094 L 534.554688 174.910156 L 534.855469 171.40625 L 535.152344 169.652344 L 535.453125 169.066406 L 535.753906 168.003906 L 536.054688 169.597656 L 536.355469 170.554688 L 536.65625 171.882812 L 536.953125 171.777344 L 537.253906 171.882812 L 537.554688 172.359375 L 537.855469 171.40625 L 538.15625 170.714844 L 538.457031 171.457031 L 538.753906 172.414062 L 539.054688 176.34375 L 539.355469 179.53125 L 539.65625 183.621094 L 539.957031 187.074219 L 540.257812 189.355469 L 540.554688 189.886719 L 540.855469 188.402344 L 541.15625 186.222656 L 541.457031 182.664062 L 541.757812 178.839844 L 542.058594 174.378906 L 542.355469 171.617188 L 542.65625 170.980469 L 542.957031 170.820312 L 543.257812 171.246094 L 543.558594 171.5625 L 543.859375 171.296875 L 544.15625 170.554688 L 544.457031 170.609375 L 544.757812 170.183594 L 545.058594 169.066406 L 545.359375 170.34375 L 545.660156 170.554688 L 545.957031 173.210938 L 546.257812 175.8125 L 546.558594 180.804688 L 546.859375 183.566406 L 547.160156 187.65625 L 547.460938 191.058594 L 547.757812 193.023438 L 548.058594 193.289062 L 548.359375 191.429688 L 548.660156 188.558594 L 548.960938 184.734375 L 549.261719 182.347656 L 549.558594 179.425781 L 549.859375 176.503906 L 550.160156 173.6875 L 550.460938 173.105469 L 550.761719 175.015625 L 551.0625 174.113281 L 551.359375 173.527344 L 551.660156 173.371094 L 552.261719 174.644531 L 552.5625 174.964844 L 552.863281 175.652344 L 553.164062 177.882812 L 553.460938 180.0625 L 553.761719 185.585938 L 554.0625 189.410156 L 554.363281 193.074219 L 554.664062 196.367188 L 554.964844 197.378906 L 555.261719 197.535156 L 555.5625 197.058594 L 555.863281 195.199219 L 556.164062 193.023438 L 556.464844 189.089844 L 556.765625 185.265625 L 557.0625 181.441406 L 557.363281 178.308594 L 557.664062 175.972656 L 557.964844 174.21875 L 558.265625 172.148438 L 558.566406 172.09375 L 558.863281 171.351562 L 559.164062 171.140625 L 559.464844 170.5 L 559.765625 170.289062 L 560.066406 170.820312 L 560.367188 171.511719 L 560.664062 173.371094 L 560.964844 176.449219 L 561.265625 179.425781 L 561.566406 182.558594 L 561.867188 186.488281 L 562.167969 188.933594 L 562.464844 190.367188 L 562.765625 189.886719 L 563.066406 189.355469 L 563.367188 188.402344 L 563.667969 186.222656 L 563.96875 182.132812 L 564.265625 179.320312 L 564.566406 174.699219 L 564.867188 171.457031 L 565.167969 168.003906 L 565.46875 166.625 L 565.769531 165.613281 L 566.066406 163.597656 L 566.367188 161.367188 L 566.667969 160.089844 L 566.96875 162.535156 L 567.269531 162.429688 L 567.570312 162.003906 L 567.867188 162.003906 L 568.167969 162.695312 L 568.46875 166.359375 L 568.769531 169.066406 L 569.070312 171.511719 L 569.371094 175.015625 L 569.667969 178.734375 L 569.96875 181.441406 L 570.269531 182.347656 L 570.570312 181.972656 L 570.871094 179.320312 L 571.171875 177.035156 L 571.46875 175.601562 L 571.769531 173.636719 L 572.070312 170.394531 L 572.371094 167.261719 L 572.671875 165.242188 L 572.972656 164.128906 L 573.273438 162.851562 L 573.570312 163.492188 L 573.871094 164.234375 L 574.171875 163.382812 L 574.472656 165.402344 L 574.773438 165.5625 L 575.074219 166.785156 L 575.371094 169.652344 L 575.671875 164.179688 L 575.972656 174.378906 L 576.273438 181.070312 L 576.574219 182.929688 L 576.875 184.734375 L 577.171875 185.691406 L 577.472656 187.816406 L 577.773438 189.199219 L 578.074219 188.292969 L 578.375 187.871094 L 578.675781 184.257812 L 578.972656 181.601562 L 579.273438 179.902344 L 579.574219 175.867188 L 579.875 173.050781 L 580.175781 172.679688 L 580.476562 174.699219 L 580.773438 174.589844 L 581.074219 175.601562 L 581.375 173.050781 L 581.675781 172.839844 L 581.976562 172.203125 L 582.277344 173.210938 L 582.574219 173.316406 L 582.875 173.371094 L 583.175781 175.496094 L 583.476562 177.777344 L 583.777344 181.175781 L 584.078125 186.328125 L 584.375 188.878906 L 584.675781 190.261719 L 584.976562 192.4375 L 585.277344 192.4375 L 585.578125 191.375 L 585.878906 190.152344 L 586.175781 189.039062 L 586.476562 187.5 L 586.777344 185.480469 L 587.078125 181.867188 L 587.378906 178.042969 L 587.679688 174.910156 L 587.976562 174.21875 L 588.277344 174.113281 L 588.578125 172.945312 L 588.878906 172.996094 L 589.179688 174.007812 L 589.480469 173.527344 L 589.777344 173.847656 L 590.078125 173.316406 L 590.378906 174.433594 L 590.679688 173.953125 L 590.980469 174.855469 L 591.28125 176.929688 L 591.578125 180.328125 L 591.878906 183.78125 L 592.179688 185.691406 L 592.480469 187.019531 L 592.78125 187.871094 L 593.082031 188.402344 L 593.382812 187.5 L 593.679688 185.375 L 593.980469 181.972656 L 594.28125 177.992188 L 594.582031 173.792969 L 594.882812 172.945312 L 595.183594 171.085938 L 595.480469 171.882812 L 595.78125 172.09375 L 596.082031 172.46875 L 596.382812 173.050781 L 596.683594 173.15625 L 596.984375 173.847656 L 597.28125 173.636719 L 597.582031 174.058594 L 597.882812 175.917969 L 598.183594 175.761719 L 598.484375 176.398438 L 598.785156 178.734375 L 599.082031 181.65625 L 599.382812 185.320312 L 599.683594 187.65625 L 599.984375 187.605469 L 600.285156 187.976562 L 600.585938 186.753906 L 600.882812 184.203125 L 601.183594 180.753906 L 601.484375 178.257812 L 601.785156 174.75 L 602.085938 172.203125 L 602.386719 170.023438 L 602.683594 170.289062 L 602.984375 171.617188 L 603.285156 171.617188 L 603.585938 172.519531 L 603.886719 172.730469 L 604.1875 173.582031 L 604.484375 173.902344 L 604.785156 174.058594 L 605.085938 172.730469 L 605.386719 171.671875 L 605.6875 172.148438 L 605.988281 173.210938 L 606.285156 174.75 L 606.585938 178.308594 L 606.886719 180.0625 L 607.1875 181.496094 L 607.488281 182.769531 L 607.789062 183.78125 L 608.085938 183.25 L 608.386719 180.59375 L 608.6875 177.882812 L 608.988281 174.113281 L 609.289062 170.714844 L 609.589844 168.695312 L 609.886719 167.472656 L 610.1875 167.953125 L 610.488281 169.226562 L 610.789062 169.597656 L 611.089844 169.8125 L 611.390625 170.5 L 611.6875 170.078125 L 611.988281 168.484375 L 612.289062 166.410156 L 612.589844 164.128906 L 612.890625 164.925781 L 613.191406 163.277344 L 613.492188 163.382812 L 613.789062 165.082031 L 614.089844 167.738281 L 614.390625 168.640625 L 614.691406 170.554688 L 614.992188 172.574219 L 615.292969 172.09375 L 615.589844 171.246094 L 615.890625 169.96875 L 616.191406 168.589844 L 616.492188 166.304688 L 616.792969 165.136719 L 617.09375 164.605469 L 617.390625 164.554688 L 617.691406 167.15625 L 617.992188 170.554688 L 618.292969 173.050781 L 618.59375 175.496094 L 618.894531 175.230469 L 619.191406 175.015625 L 619.492188 173.050781 L 619.792969 171.191406 L 620.09375 167.898438 L 620.394531 165.136719 L 620.695312 163.808594 L 620.992188 162.960938 L 621.292969 165.296875 L 621.59375 167.15625 L 621.894531 167.953125 L 622.195312 167.898438 L 622.496094 170.609375 L 622.792969 170.183594 L 623.09375 169.546875 L 623.394531 166.835938 L 623.695312 163.492188 L 623.996094 162.695312 L 624.296875 164.074219 L 624.59375 165.988281 L 624.894531 168.695312 L 625.195312 172.679688 L 625.496094 174.804688 L 625.796875 174.644531 L 626.097656 175.761719 L 626.394531 174.113281 L 626.695312 171.671875 L 626.996094 168.640625 L 627.296875 165.5625 L 627.597656 162.375 L 627.898438 158.019531 L 628.195312 156.054688 L 628.496094 156.375 L 628.796875 158.074219 L 629.097656 160.464844 L 629.398438 161.472656 L 629.699219 159.773438 L 630 158.816406 L 630.296875 159.71875 L 630.597656 158.921875 L 630.898438 157.699219 L 631.199219 158.285156 L 631.5 158.976562 L 631.800781 160.621094 L 632.097656 163.492188 L 632.398438 167.6875 L 632.699219 172.945312 L 633 176.664062 L 633.300781 180.328125 L 633.601562 181.285156 L 633.898438 180.0625 L 634.199219 175.601562 L 634.5 171.03125 L 634.800781 167.367188 L 635.101562 163.863281 L 635.402344 159.933594 L 635.699219 156.585938 L 636 156.109375 L 636.300781 157.542969 L 636.601562 159.933594 L 636.902344 160.675781 L 637.203125 159.558594 L 637.5 160.304688 L 637.800781 159.878906 L 638.402344 159.667969 L 638.703125 160.304688 L 639.003906 161.523438 L 639.300781 164.5 L 639.601562 168.113281 L 639.902344 174.167969 L 640.203125 179.265625 L 640.503906 183.992188 L 640.804688 187.445312 L 641.101562 188.292969 L 641.402344 187.285156 L 641.703125 185.480469 L 642.003906 179.636719 L 642.304688 174.378906 L 642.605469 169.96875 L 642.902344 165.402344 L 643.203125 163.808594 L 643.503906 163.171875 L 643.804688 165.03125 L 644.105469 165.507812 L 644.40625 168.324219 L 644.703125 169.226562 L 645.003906 170.128906 L 645.304688 170.289062 L 645.605469 169.332031 L 645.90625 169.597656 L 646.207031 170.980469 L 646.503906 173.476562 L 646.804688 177.035156 L 647.105469 181.335938 L 647.40625 188.507812 L 647.707031 194.828125 L 648.007812 198.757812 L 648.304688 199.554688 L 648.605469 198.972656 L 648.90625 196.101562 L 649.207031 191.589844 L 649.507812 185.265625 L 649.808594 178.839844 L 650.109375 174.699219 L 650.40625 170.765625 L 650.707031 168.695312 L 651.007812 169.171875 L 651.308594 171.191406 L 651.609375 172.042969 L 651.910156 171.140625 L 652.207031 170.023438 L 652.507812 169.917969 L 652.808594 169.652344 L 653.109375 169.863281 L 653.410156 169.757812 L 653.710938 172.519531 L 654.007812 174.21875 L 654.308594 178.894531 L 654.609375 184.203125 L 654.910156 190.417969 L 655.210938 194.722656 L 655.511719 198.121094 L 655.808594 199.554688 L 656.109375 199.609375 L 656.410156 196.421875 L 656.710938 190.683594 L 657.011719 184.734375 L 657.3125 178.789062 L 657.609375 174.75 L 657.910156 171.191406 L 658.210938 169.332031 L 658.511719 168.113281 L 658.8125 167.738281 L 659.113281 166.785156 L 659.410156 166.039062 L 659.710938 165.613281 L 660.011719 164.605469 L 660.3125 164.765625 L 660.613281 164.289062 L 660.914062 164.289062 L 661.210938 166.199219 L 661.511719 168.003906 L 661.8125 171.828125 L 662.113281 175.917969 L 662.414062 182.238281 L 662.714844 187.285156 L 663.011719 190.898438 L 663.3125 193.074219 L 663.613281 193.710938 L 663.914062 190.898438 L 664.214844 187.179688 L 664.515625 183.410156 L 664.8125 179.105469 L 665.113281 173.792969 L 665.414062 169.386719 L 665.714844 166.039062 L 666.015625 164.871094 L 666.316406 164.710938 L 666.613281 164.660156 L 666.914062 164.394531 L 667.214844 164.925781 L 667.515625 165.136719 L 667.816406 165.136719 L 668.117188 165.5625 L 668.414062 166.464844 L 668.714844 168.75 L 669.015625 170.660156 L 669.316406 175.761719 L 669.617188 180.007812 L 669.917969 185 L 670.21875 189.730469 L 670.515625 193.976562 L 670.816406 196.101562 L 671.117188 196.847656 L 671.417969 194.933594 L 671.71875 191.003906 L 672.019531 186.542969 L 672.316406 183.195312 L 672.617188 177.9375 L 672.917969 172.308594 L 673.21875 169.015625 L 673.519531 168.378906 L 673.820312 168.164062 L 674.117188 168.429688 L 674.417969 169.015625 L 674.71875 169.066406 L 675.019531 168.484375 L 675.320312 168.429688 L 675.621094 168.695312 L 675.917969 169.863281 L 676.21875 170.023438 L 676.519531 172.414062 L 676.820312 174.75 L 677.121094 178.789062 L 677.421875 183.410156 L 677.71875 186.859375 L 678.019531 190.84375 L 678.320312 193.179688 L 678.621094 193.394531 L 678.921875 192.914062 L 679.222656 190.152344 L 679.519531 186.222656 L 679.820312 182.347656 L 680.121094 178.203125 L 680.421875 173.953125 L 680.722656 169.546875 L 681.023438 167.472656 L 681.320312 168.535156 L 681.621094 168.378906 L 681.921875 169.492188 L 682.222656 168.429688 L 682.523438 168.429688 L 682.824219 169.28125 L 683.121094 168.113281 L 683.421875 168.640625 L 683.722656 168.378906 L 684.023438 167.527344 L 684.324219 169.4375 L 684.625 171.03125 L 684.921875 174.855469 L 685.222656 177.351562 L 685.523438 181.441406 L 685.824219 183.144531 L 686.125 183.941406 L 686.425781 183.25 L 686.722656 182.613281 L 687.023438 179.105469 L 687.324219 176.929688 L 687.625 173.636719 L 687.925781 163.863281 L 688.226562 161.367188 L 688.523438 163.332031 L 688.824219 170.394531 L 689.125 178.789062 L 689.425781 182.984375 L 689.726562 184.203125 L 690.027344 184.46875 L 690.328125 185.691406 L 690.625 181.816406 L 690.925781 180.378906 L 691.226562 179.054688 L 691.527344 177.726562 L 691.828125 173.742188 L 692.128906 173.636719 L 692.425781 175.601562 L 692.726562 179.796875 L 693.027344 181.601562 L 693.328125 182.347656 L 693.628906 185.160156 L 693.929688 187.550781 L 694.226562 184.417969 L 694.527344 180.167969 L 694.828125 176.503906 L 695.128906 174.855469 L 695.429688 172.308594 L 695.730469 170.765625 L 696.027344 171.828125 L 696.328125 171.988281 L 696.628906 173.105469 L 696.929688 174.644531 L 697.230469 175.386719 L 697.53125 176.554688 L 697.828125 176.292969 L 698.128906 175.386719 L 698.429688 172.730469 L 698.730469 170.234375 L 699.03125 168.855469 L 699.332031 168.003906 L 699.628906 168.058594 L 699.929688 171.9375 L 700.230469 174.804688 L 700.53125 175.917969 L 700.832031 177.40625 L 701.132812 179.902344 L 701.429688 178.789062 L 701.730469 176.609375 L 702.03125 172.996094 L 702.332031 170.023438 L 702.632812 167.15625 L 702.933594 165.5625 L 703.230469 165.296875 L 703.53125 168.058594 L 703.832031 169.546875 L 704.132812 171.296875 L 704.433594 171.722656 L 704.734375 171.722656 L 705.03125 173.105469 L 705.332031 172.996094 L 705.632812 171.9375 L 705.933594 170.023438 L 706.234375 167.632812 L 706.535156 165.878906 L 706.835938 165.347656 L 707.132812 166.625 L 707.433594 167.847656 L 707.734375 167.792969 L 708.035156 169.171875 L 708.335938 170.023438 L 708.636719 170.5 L 708.933594 169.917969 L 709.234375 170.980469 L 709.535156 169.28125 L 709.835938 169.226562 L 710.136719 167.207031 L 710.4375 166.996094 L 710.734375 168.058594 L 711.035156 169.171875 L 711.335938 172.414062 L 711.636719 176.027344 L 711.9375 179.105469 L 712.238281 181.65625 L 712.535156 181.972656 L 712.835938 180.804688 L 713.136719 177.992188 L 713.4375 176.398438 L 713.738281 174.273438 L 714.039062 172.308594 L 714.335938 171.617188 L 714.9375 172.890625 L 715.238281 174.589844 L 715.539062 175.175781 L 715.839844 177.085938 L 716.136719 178.203125 L 716.4375 179.53125 L 716.738281 180.328125 L 717.039062 178.414062 L 717.339844 176.929688 L 717.640625 176.980469 L 717.9375 177.035156 L 718.238281 178.523438 L 718.539062 185.265625 L 718.839844 192.332031 L 719.140625 198.066406 L 719.441406 203.59375 L 719.738281 207.152344 L 720.039062 205.292969 L 720.339844 199.503906 L 720.640625 194.191406 L 720.941406 190.632812 L 721.242188 189.515625 L 721.539062 184.3125 L 721.839844 179.636719 L 722.140625 178.523438 L 722.441406 180.699219 L 722.742188 185.109375 L 723.042969 189.355469 L 723.339844 192.117188 L 723.640625 194.191406 L 723.941406 193.871094 L 724.242188 190.578125 L 724.542969 188.03125 L 724.84375 188.1875 L 725.140625 189.464844 L 725.441406 190.367188 L 725.742188 193.234375 L 726.042969 196.898438 L 726.34375 200.246094 L 726.644531 202.105469 L 726.945312 203.007812 L 727.242188 202.6875 L 727.542969 199.554688 L 727.84375 195.039062 L 728.144531 188.824219 L 728.445312 183.355469 L 728.746094 178.523438 L 729.042969 175.335938 L 729.34375 174.804688 L 729.644531 176.449219 L 729.945312 177.777344 L 730.246094 178.734375 L 730.546875 178.308594 L 730.84375 177.351562 L 731.144531 177.140625 L 731.445312 177.085938 L 731.746094 176.554688 L 732.046875 177.40625 L 732.347656 178.363281 L 732.644531 181.335938 L 732.945312 185.691406 L 733.246094 191.480469 L 733.546875 196.207031 L 733.847656 201.359375 L 734.148438 202.742188 L 734.445312 202.582031 L 734.746094 200.40625 L 735.046875 195.730469 L 735.347656 192.757812 L 735.648438 188.933594 L 735.949219 185.851562 L 736.246094 183.195312 L 736.546875 179.210938 L 736.847656 178.308594 L 737.148438 178.679688 L 737.449219 179.796875 L 737.75 180.167969 L 738.046875 179.851562 L 738.347656 179.691406 L 738.648438 178.789062 L 738.949219 178.839844 L 739.25 179.320312 L 739.550781 180.117188 L 739.847656 183.035156 L 740.148438 185.160156 L 740.449219 188.507812 L 740.75 194.351562 L 741.050781 199.449219 L 741.351562 202.847656 L 741.648438 204.917969 L 741.949219 204.230469 L 742.25 201.890625 L 742.550781 198.28125 L 742.851562 194.402344 L 743.152344 187.816406 L 743.449219 183.726562 L 743.75 179.851562 L 744.050781 177.085938 L 744.351562 176.980469 L 744.652344 177.566406 L 744.953125 177.9375 L 745.25 177.777344 L 745.550781 177.40625 L 745.851562 176.183594 L 746.152344 175.601562 L 746.453125 176.292969 L 746.753906 177.035156 L 747.054688 177.671875 L 747.351562 181.550781 L 747.652344 185.054688 L 747.953125 189.886719 L 748.253906 194.351562 L 748.554688 199.023438 L 748.855469 201.148438 L 749.152344 201.890625 L 749.453125 201.785156 L 749.753906 197.855469 L 750.054688 194.242188 L 750.355469 190.527344 L 750.65625 186.382812 L 750.953125 181.65625 "/>
<g clip-path="url(#clip-0-39fa0ac0)">
<path fill="none" stroke-width="2" stroke-linecap="butt" stroke-linejoin="miter" stroke="rgb(100%, 0%, 0%)" stroke-opacity="1" stroke-dasharray="6 6" stroke-miterlimit="1.154701" d="M 57 155.789062 L 784 155.789062 "/>
</g>
<path fill="none" stroke-width="1" stroke-linecap="butt" stroke-linejoin="miter" stroke="rgb(0%, 0%, 0%)" stroke-opacity="1" stroke-miterlimit="1.154701" d="M 56.5 232 L 784.5 232 "/>
<path fill="none" stroke-width="1" stroke-linecap="butt" stroke-linejoin="miter" stroke="rgb(0%, 0%, 0%)" stroke-opacity="1" stroke-miterlimit="1.154701" d="M 57 232.5 L 57 15.5 "/>
</svg>
