<?xml version="1.0" encoding="UTF-8"?>
<svg xmlns="http://www.w3.org/2000/svg" xmlns:xlink="http://www.w3.org/1999/xlink" width="800" height="300" viewBox="0 0 800 300">
<defs>
<g>
<g id="glyph-0-0-f277be17">
<path d="M 10.265625 -4.765625 C 10.265625 -4.765625 2.546875 -4.765625 2.546875 -4.765625 C 2.578125 -2.359375 3.875 -1.234375 5.625 -1.234375 C 6.953125 -1.234375 7.90625 -1.796875 8.359375 -3.1875 C 8.359375 -3.1875 10.046875 -3.1875 10.046875 -3.1875 C 9.625 -1.0625 7.953125 0.296875 5.5625 0.296875 C 2.625 0.296875 0.796875 -1.734375 0.796875 -5.1875 C 0.796875 -8.625 2.6875 -10.78125 5.59375 -10.78125 C 7.5625 -10.78125 9.15625 -9.734375 9.84375 -8.015625 C 10.140625 -7.234375 10.265625 -6.28125 10.265625 -4.765625 Z M 8.484375 -6.234375 C 8.484375 -7.875 7.21875 -9.234375 5.578125 -9.234375 C 3.90625 -9.234375 2.71875 -7.984375 2.578125 -6.125 C 2.578125 -6.125 8.453125 -6.125 8.453125 -6.125 C 8.484375 -6.15625 8.484375 -6.234375 8.484375 -6.234375 Z M 8.484375 -6.234375 "/>
</g>
<g id="glyph-0-1-f277be17">
<path d="M 9.453125 0 C 9.453125 0 7.515625 0 7.515625 0 C 7.515625 0 4.90625 -4.015625 4.90625 -4.015625 C 4.90625 -4.015625 2.234375 0 2.234375 0 C 2.234375 0 0.34375 0 0.34375 0 C 0.34375 0 4.046875 -5.34375 4.046875 -5.34375 C 4.046875 -5.34375 0.546875 -10.484375 0.546875 -10.484375 C 0.546875 -10.484375 2.4375 -10.484375 2.4375 -10.484375 C 2.4375 -10.484375 4.953125 -6.6875 4.953125 -6.6875 C 4.953125 -6.6875 7.484375 -10.484375 7.484375 -10.484375 C 7.484375 -10.484375 9.359375 -10.484375 9.359375 -10.484375 C 9.359375 -10.484375 5.84375 -5.421875 5.84375 -5.421875 C 5.84375 -5.421875 9.453125 0 9.453125 0 Z M 9.453125 0 "/>
</g>
<g id="glyph-0-2-f277be17">
<path d="M 10.453125 -5.140625 C 10.453125 -1.796875 8.6875 0.296875 5.984375 0.296875 C 4.625 0.296875 3.640625 -0.1875 2.765625 -1.265625 C 2.765625 -1.265625 2.765625 4.359375 2.765625 4.359375 C 2.765625 4.359375 1.09375 4.359375 1.09375 4.359375 C 1.09375 4.359375 1.09375 -10.484375 1.09375 -10.484375 C 1.09375 -10.484375 2.625 -10.484375 2.625 -10.484375 C 2.625 -10.484375 2.625 -8.90625 2.625 -8.90625 C 3.40625 -10.140625 4.546875 -10.78125 5.953125 -10.78125 C 8.734375 -10.78125 10.453125 -8.65625 10.453125 -5.140625 Z M 8.71875 -5.1875 C 8.71875 -7.6875 7.515625 -9.21875 5.6875 -9.21875 C 3.921875 -9.21875 2.765625 -7.625 2.765625 -5.15625 C 2.765625 -2.703125 3.921875 -1.265625 5.6875 -1.265625 C 7.5 -1.265625 8.71875 -2.796875 8.71875 -5.1875 Z M 8.71875 -5.1875 "/>
</g>
<g id="glyph-0-3-f277be17">
<path d="M 9.546875 -3.59375 C 9.34375 -1.203125 7.765625 0.296875 5.265625 0.296875 C 2.421875 0.296875 0.625 -1.765625 0.625 -5.140625 C 0.625 -8.625 2.453125 -10.78125 5.28125 -10.78125 C 7.625 -10.78125 9.21875 -9.515625 9.421875 -6.953125 C 9.421875 -6.953125 7.734375 -6.953125 7.734375 -6.953125 C 7.546875 -8.421875 6.65625 -9.234375 5.265625 -9.234375 C 3.4375 -9.234375 2.359375 -7.765625 2.359375 -5.140625 C 2.359375 -2.65625 3.453125 -1.234375 5.296875 -1.234375 C 6.71875 -1.234375 7.578125 -1.921875 7.859375 -3.59375 C 7.859375 -3.59375 9.546875 -3.59375 9.546875 -3.59375 Z M 9.546875 -3.59375 "/>
</g>
<g id="glyph-0-4-f277be17">
<path d="M 5.078125 0 C 4.515625 0.09375 4.125 0.140625 3.71875 0.140625 C 2.421875 0.140625 1.703125 -0.453125 1.703125 -1.515625 C 1.703125 -1.515625 1.703125 -9.125 1.703125 -9.125 C 1.703125 -9.125 0.28125 -9.125 0.28125 -9.125 C 0.28125 -9.125 0.28125 -10.484375 0.28125 -10.484375 C 0.28125 -10.484375 1.703125 -10.484375 1.703125 -10.484375 C 1.703125 -10.484375 1.703125 -13.359375 1.703125 -13.359375 C 1.703125 -13.359375 3.359375 -13.359375 3.359375 -13.359375 C 3.359375 -13.359375 3.359375 -10.484375 3.359375 -10.484375 C 3.359375 -10.484375 5.078125 -10.484375 5.078125 -10.484375 C 5.078125 -10.484375 5.078125 -9.125 5.078125 -9.125 C 5.078125 -9.125 3.359375 -9.125 3.359375 -9.125 C 3.359375 -9.125 3.359375 -2.265625 3.359375 -2.265625 C 3.359375 -1.515625 3.5625 -1.3125 4.28125 -1.3125 C 4.59375 -1.3125 4.859375 -1.34375 5.078125 -1.40625 C 5.078125 -1.40625 5.078125 0 5.078125 0 Z M 5.078125 0 "/>
</g>
<g id="glyph-0-5-f277be17">
<path d="M 9.90625 0 C 9.90625 0 8.421875 0 8.421875 0 C 8.421875 0 8.421875 -1.546875 8.421875 -1.546875 C 7.515625 -0.234375 6.515625 0.296875 5.078125 0.296875 C 2.265625 0.296875 0.515625 -1.796875 0.515625 -5.34375 C 0.515625 -8.6875 2.296875 -10.78125 5.015625 -10.78125 C 6.421875 -10.78125 7.546875 -10.21875 8.234375 -9.15625 C 8.234375 -9.15625 8.234375 -14.578125 8.234375 -14.578125 C 8.234375 -14.578125 9.90625 -14.578125 9.90625 -14.578125 C 9.90625 -14.578125 9.90625 0 9.90625 0 Z M 8.234375 -5.203125 C 8.234375 -7.625 7.09375 -9.21875 5.296875 -9.21875 C 3.484375 -9.21875 2.265625 -7.6875 2.265625 -5.234375 C 2.265625 -2.796875 3.484375 -1.265625 5.3125 -1.265625 C 7.078125 -1.265625 8.234375 -2.78125 8.234375 -5.203125 Z M 8.234375 -5.203125 "/>
</g>
<g id="glyph-0-6-f277be17">
</g>
<g id="glyph-0-7-f277be17">
<path d="M 10.703125 -0.046875 C 10.15625 0.09375 9.90625 0.140625 9.5625 0.140625 C 8.734375 0.140625 8.015625 -0.4375 7.84375 -1.234375 C 6.921875 -0.265625 5.625 0.296875 4.28125 0.296875 C 2.15625 0.296875 0.84375 -0.8125 0.84375 -2.71875 C 0.84375 -4 1.453125 -4.9375 2.6875 -5.4375 C 3.3125 -5.703125 3.6875 -5.78125 6.046875 -6.078125 C 7.359375 -6.234375 7.78125 -6.546875 7.78125 -7.234375 C 7.78125 -7.234375 7.78125 -7.6875 7.78125 -7.6875 C 7.78125 -8.6875 6.9375 -9.234375 5.4375 -9.234375 C 3.875 -9.234375 3.125 -8.65625 2.984375 -7.375 C 2.984375 -7.375 1.296875 -7.375 1.296875 -7.375 C 1.40625 -9.796875 2.953125 -10.78125 5.5 -10.78125 C 8.078125 -10.78125 9.4375 -9.78125 9.4375 -7.921875 C 9.4375 -7.921875 9.4375 -2.078125 9.4375 -2.078125 C 9.4375 -1.5625 9.765625 -1.265625 10.34375 -1.265625 C 10.4375 -1.265625 10.515625 -1.265625 10.703125 -1.296875 C 10.703125 -1.296875 10.703125 -0.046875 10.703125 -0.046875 Z M 7.78125 -3.625 C 7.78125 -3.625 7.78125 -5.1875 7.78125 -5.1875 C 7.21875 -4.921875 6.859375 -4.84375 5.09375 -4.59375 C 3.3125 -4.34375 2.578125 -3.859375 2.578125 -2.765625 C 2.578125 -1.625 3.34375 -1.15625 4.640625 -1.15625 C 6.265625 -1.15625 7.78125 -2.125 7.78125 -3.625 Z M 7.78125 -3.625 "/>
</g>
<g id="glyph-0-8-f277be17">
<path d="M 9.734375 0 C 9.734375 0 8.078125 0 8.078125 0 C 8.078125 0 8.078125 -7.265625 8.078125 -7.265625 C 8.078125 -8.515625 7.234375 -9.3125 5.921875 -9.3125 C 4.21875 -9.3125 3.0625 -7.921875 3.0625 -5.78125 C 3.0625 -5.78125 3.0625 0 3.0625 0 C 3.0625 0 1.40625 0 1.40625 0 C 1.40625 0 1.40625 -10.484375 1.40625 -10.484375 C 1.40625 -10.484375 2.9375 -10.484375 2.9375 -10.484375 C 2.9375 -10.484375 2.9375 -8.71875 2.9375 -8.71875 C 3.859375 -10.1875 4.859375 -10.78125 6.421875 -10.78125 C 8.4375 -10.78125 9.734375 -9.65625 9.734375 -7.921875 C 9.734375 -7.921875 9.734375 0 9.734375 0 Z M 9.734375 0 "/>
</g>
<g id="glyph-0-9-f277be17">
<path d="M 9.640625 0 C 9.640625 0 8.140625 0 8.140625 0 C 8.140625 0 8.140625 -1.625 8.140625 -1.625 C 7.15625 -0.234375 6.1875 0.296875 4.640625 0.296875 C 2.59375 0.296875 1.296875 -0.8125 1.296875 -2.5625 C 1.296875 -2.5625 1.296875 -10.484375 1.296875 -10.484375 C 1.296875 -10.484375 2.953125 -10.484375 2.953125 -10.484375 C 2.953125 -10.484375 2.953125 -3.21875 2.953125 -3.21875 C 2.953125 -1.953125 3.796875 -1.15625 5.125 -1.15625 C 6.859375 -1.15625 7.984375 -2.5625 7.984375 -4.703125 C 7.984375 -4.703125 7.984375 -10.484375 7.984375 -10.484375 C 7.984375 -10.484375 9.640625 -10.484375 9.640625 -10.484375 C 9.640625 -10.484375 9.640625 0 9.640625 0 Z M 9.640625 0 "/>
</g>
<g id="glyph-0-10-f277be17">
<path d="M 3.015625 0 C 3.015625 0 1.359375 0 1.359375 0 C 1.359375 0 1.359375 -14.578125 1.359375 -14.578125 C 1.359375 -14.578125 3.015625 -14.578125 3.015625 -14.578125 C 3.015625 -14.578125 3.015625 0 3.015625 0 Z M 3.015625 0 "/>
</g>
<g id="glyph-0-11-f277be17">
<path d="M 15.203125 0 C 15.203125 0 13.546875 0 13.546875 0 C 13.546875 0 13.546875 -7.21875 13.546875 -7.21875 C 13.546875 -8.546875 12.84375 -9.3125 11.625 -9.3125 C 10.265625 -9.3125 9.140625 -8.09375 9.140625 -6.578125 C 9.140625 -6.578125 9.140625 0 9.140625 0 C 9.140625 0 7.484375 0 7.484375 0 C 7.484375 0 7.484375 -7.21875 7.484375 -7.21875 C 7.484375 -8.5625 6.78125 -9.3125 5.546875 -9.3125 C 4.1875 -9.3125 3.078125 -8.09375 3.078125 -6.578125 C 3.078125 -6.578125 3.078125 0 3.078125 0 C 3.078125 0 1.421875 0 1.421875 0 C 1.421875 0 1.421875 -10.484375 1.421875 -10.484375 C 1.421875 -10.484375 2.9375 -10.484375 2.9375 -10.484375 C 2.9375 -10.484375 2.9375 -9 2.9375 -9 C 3.84375 -10.265625 4.765625 -10.78125 6.15625 -10.78125 C 7.515625 -10.78125 8.359375 -10.296875 8.984375 -9.1875 C 9.953125 -10.359375 10.796875 -10.78125 12.203125 -10.78125 C 14.15625 -10.78125 15.203125 -9.734375 15.203125 -7.859375 C 15.203125 -7.859375 15.203125 0 15.203125 0 Z M 15.203125 0 "/>
</g>
<g id="glyph-0-12-f277be17">
<path d="M 9.78125 -1.71875 C 9.78125 2.90625 8.375 4.359375 5.09375 4.359375 C 2.640625 4.359375 1.09375 3.1875 0.921875 1.203125 C 0.921875 1.203125 2.625 1.203125 2.625 1.203125 C 2.8125 2.484375 3.84375 2.953125 5.15625 2.953125 C 7.09375 2.953125 8.234375 1.90625 8.234375 -0.875 C 8.234375 -0.875 8.234375 -1.578125 8.234375 -1.578125 C 7.140625 -0.265625 6.21875 0.296875 4.90625 0.296875 C 2.4375 0.296875 0.578125 -1.84375 0.578125 -5.140625 C 0.578125 -8.546875 2.375 -10.78125 5.046875 -10.78125 C 6.375 -10.78125 7.40625 -10.203125 8.234375 -8.953125 C 8.234375 -8.953125 8.234375 -10.484375 8.234375 -10.484375 C 8.234375 -10.484375 9.78125 -10.484375 9.78125 -10.484375 C 9.78125 -10.484375 9.78125 -1.71875 9.78125 -1.71875 Z M 8.078125 -5.1875 C 8.078125 -7.71875 7.015625 -9.234375 5.21875 -9.234375 C 3.4375 -9.234375 2.3125 -7.765625 2.3125 -5.234375 C 2.3125 -2.703125 3.421875 -1.234375 5.234375 -1.234375 C 7 -1.234375 8.078125 -2.6875 8.078125 -5.1875 Z M 8.078125 -5.1875 "/>
</g>
<g id="glyph-0-13-f277be17">
<path d="M 5.15625 -9.125 C 5.15625 -9.125 3.421875 -9.125 3.421875 -9.125 C 3.421875 -9.125 3.421875 0 3.421875 0 C 3.421875 0 1.765625 0 1.765625 0 C 1.765625 0 1.765625 -9.125 1.765625 -9.125 C 1.765625 -9.125 0.359375 -9.125 0.359375 -9.125 C 0.359375 -9.125 0.359375 -10.484375 0.359375 -10.484375 C 0.359375 -10.484375 1.765625 -10.484375 1.765625 -10.484375 C 1.765625 -10.484375 1.765625 -12.265625 1.765625 -12.265625 C 1.765625 -13.765625 2.6875 -14.640625 4.21875 -14.640625 C 4.5625 -14.640625 4.78125 -14.625 5.15625 -14.546875 C 5.15625 -14.546875 5.15625 -13.15625 5.15625 -13.15625 C 4.78125 -13.1875 4.71875 -13.1875 4.578125 -13.1875 C 3.8125 -13.1875 3.421875 -12.8125 3.421875 -12.125 C 3.421875 -12.125 3.421875 -10.484375 3.421875 -10.484375 C 3.421875 -10.484375 5.15625 -10.484375 5.15625 -10.484375 C 5.15625 -10.484375 5.15625 -9.125 5.15625 -9.125 Z M 5.15625 -9.125 "/>
</g>
<g id="glyph-0-14-f277be17">
<path d="M 6.421875 -9.015625 C 3.84375 -8.984375 3.0625 -7.796875 3.0625 -5.4375 C 3.0625 -5.4375 3.0625 0 3.0625 0 C 3.0625 0 1.40625 0 1.40625 0 C 1.40625 0 1.40625 -10.484375 1.40625 -10.484375 C 1.40625 -10.484375 2.921875 -10.484375 2.921875 -10.484375 C 2.921875 -10.484375 2.921875 -8.578125 2.921875 -8.578125 C 3.875 -10.140625 4.703125 -10.78125 5.78125 -10.78125 C 6 -10.78125 6.140625 -10.765625 6.421875 -10.71875 C 6.421875 -10.71875 6.421875 -9.015625 6.421875 -9.015625 Z M 6.421875 -9.015625 "/>
</g>
<g id="glyph-0-15-f277be17">
<path d="M 3.0625 0 C 3.0625 0 1.40625 0 1.40625 0 C 1.40625 0 1.40625 -10.484375 1.40625 -10.484375 C 1.40625 -10.484375 3.0625 -10.484375 3.0625 -10.484375 C 3.0625 -10.484375 3.0625 0 3.0625 0 Z M 3.28125 -12.0625 C 3.28125 -12.0625 1.203125 -12.0625 1.203125 -12.0625 C 1.203125 -12.0625 1.203125 -14.140625 1.203125 -14.140625 C 1.203125 -14.140625 3.28125 -14.140625 3.28125 -14.140625 C 3.28125 -14.140625 3.28125 -12.0625 3.28125 -12.0625 Z M 3.28125 -12.0625 "/>
</g>
<g id="glyph-0-16-f277be17">
<path d="M 10.203125 -5.15625 C 10.203125 -1.71875 8.40625 0.296875 5.453125 0.296875 C 2.484375 0.296875 0.71875 -1.71875 0.71875 -5.234375 C 0.71875 -8.765625 2.5 -10.78125 5.4375 -10.78125 C 8.453125 -10.78125 10.203125 -8.78125 10.203125 -5.15625 Z M 8.453125 -5.1875 C 8.453125 -7.78125 7.34375 -9.234375 5.453125 -9.234375 C 3.59375 -9.234375 2.453125 -7.765625 2.453125 -5.234375 C 2.453125 -2.703125 3.59375 -1.234375 5.453125 -1.234375 C 7.296875 -1.234375 8.453125 -2.71875 8.453125 -5.1875 Z M 8.453125 -5.1875 "/>
</g>
<g id="glyph-0-17-f277be17">
<path d="M 10.140625 -6.8125 C 10.140625 -2.15625 8.5 0.296875 5.5 0.296875 C 2.453125 0.296875 0.859375 -2.15625 0.859375 -6.9375 C 0.859375 -11.703125 2.4375 -14.1875 5.5 -14.1875 C 8.578125 -14.1875 10.140625 -11.734375 10.140625 -6.8125 Z M 8.34375 -6.984375 C 8.34375 -10.78125 7.40625 -12.625 5.5 -12.625 C 3.59375 -12.625 2.65625 -10.796875 2.65625 -6.921875 C 2.65625 -3.046875 3.59375 -1.15625 5.453125 -1.15625 C 7.421875 -1.15625 8.34375 -2.953125 8.34375 -6.984375 Z M 8.34375 -6.984375 "/>
</g>
<g id="glyph-0-18-f277be17">
<path d="M 3.8125 0 C 3.8125 0 1.734375 0 1.734375 0 C 1.734375 0 1.734375 -2.078125 1.734375 -2.078125 C 1.734375 -2.078125 3.8125 -2.078125 3.8125 -2.078125 C 3.8125 -2.078125 3.8125 0 3.8125 0 Z M 3.8125 0 "/>
</g>
<g id="glyph-0-19-f277be17">
<path d="M 6.9375 0 C 6.9375 0 5.1875 0 5.1875 0 C 5.1875 0 5.1875 -10.09375 5.1875 -10.09375 C 5.1875 -10.09375 2.046875 -10.09375 2.046875 -10.09375 C 2.046875 -10.09375 2.046875 -11.359375 2.046875 -11.359375 C 4.765625 -11.703125 5.15625 -12 5.78125 -14.1875 C 5.78125 -14.1875 6.9375 -14.1875 6.9375 -14.1875 C 6.9375 -14.1875 6.9375 0 6.9375 0 Z M 6.9375 0 "/>
</g>
<g id="glyph-0-20-f277be17">
<path d="M 10.21875 -10.015625 C 10.21875 -8.28125 9.203125 -6.796875 7.21875 -5.734375 C 7.21875 -5.734375 5.21875 -4.65625 5.21875 -4.65625 C 3.484375 -3.640625 2.84375 -2.90625 2.65625 -1.734375 C 2.65625 -1.734375 10.125 -1.734375 10.125 -1.734375 C 10.125 -1.734375 10.125 0 10.125 0 C 10.125 0 0.6875 0 0.6875 0 C 0.84375 -3.125 1.703125 -4.453125 4.65625 -6.140625 C 4.65625 -6.140625 6.5 -7.1875 6.5 -7.1875 C 7.765625 -7.90625 8.421875 -8.859375 8.421875 -9.984375 C 8.421875 -11.5 7.21875 -12.640625 5.625 -12.640625 C 3.875 -12.640625 2.90625 -11.640625 2.765625 -9.265625 C 2.765625 -9.265625 1 -9.265625 1 -9.265625 C 1.09375 -12.703125 2.78125 -14.1875 5.6875 -14.1875 C 8.359375 -14.1875 10.21875 -12.421875 10.21875 -10.015625 Z M 10.21875 -10.015625 "/>
</g>
<g id="glyph-0-21-f277be17">
<path d="M 10.125 -4.125 C 10.125 -1.4375 8.234375 0.296875 5.3125 0.296875 C 2.421875 0.296875 0.859375 -1.125 0.640625 -4.28125 C 0.640625 -4.28125 2.40625 -4.28125 2.40625 -4.28125 C 2.515625 -2.21875 3.453125 -1.265625 5.375 -1.265625 C 7.21875 -1.265625 8.3125 -2.3125 8.3125 -4.09375 C 8.3125 -5.6875 7.3125 -6.59375 5.375 -6.59375 C 5.375 -6.59375 4.421875 -6.59375 4.421875 -6.59375 C 4.421875 -6.59375 4.421875 -8.078125 4.421875 -8.078125 C 7.234375 -8.078125 7.90625 -8.703125 7.90625 -10.21875 C 7.90625 -11.71875 6.953125 -12.640625 5.40625 -12.640625 C 3.59375 -12.640625 2.734375 -11.703125 2.703125 -9.59375 C 2.703125 -9.59375 0.9375 -9.59375 0.9375 -9.59375 C 1 -12.625 2.515625 -14.1875 5.375 -14.1875 C 8.078125 -14.1875 9.703125 -12.71875 9.703125 -10.28125 C 9.703125 -8.859375 9.046875 -7.9375 7.71875 -7.421875 C 9.421875 -6.84375 10.125 -5.84375 10.125 -4.125 Z M 10.125 -4.125 "/>
</g>
<g id="glyph-0-22-f277be17">
<path d="M 10.40625 -3.40625 C 10.40625 -3.40625 8.296875 -3.40625 8.296875 -3.40625 C 8.296875 -3.40625 8.296875 0 8.296875 0 C 8.296875 0 6.546875 0 6.546875 0 C 6.546875 0 6.546875 -3.40625 6.546875 -3.40625 C 6.546875 -3.40625 0.5625 -3.40625 0.5625 -3.40625 C 0.5625 -3.40625 0.5625 -5.265625 0.5625 -5.265625 C 0.5625 -5.265625 7 -14.1875 7 -14.1875 C 7 -14.1875 8.296875 -14.1875 8.296875 -14.1875 C 8.296875 -14.1875 8.296875 -4.984375 8.296875 -4.984375 C 8.296875 -4.984375 10.40625 -4.984375 10.40625 -4.984375 C 10.40625 -4.984375 10.40625 -3.40625 10.40625 -3.40625 Z M 6.546875 -4.984375 C 6.546875 -4.984375 6.546875 -11.1875 6.546875 -11.1875 C 6.546875 -11.1875 2.09375 -4.984375 2.09375 -4.984375 C 2.09375 -4.984375 6.546875 -4.984375 6.546875 -4.984375 Z M 6.546875 -4.984375 "/>
</g>
<g id="glyph-0-23-f277be17">
<path d="M 9.71875 0 C 9.71875 0 8.0625 0 8.0625 0 C 8.0625 0 8.0625 -7.265625 8.0625 -7.265625 C 8.0625 -8.640625 7.078125 -9.3125 5.90625 -9.3125 C 4.1875 -9.3125 3.0625 -7.921875 3.0625 -5.78125 C 3.0625 -5.78125 3.0625 0 3.0625 0 C 3.0625 0 1.40625 0 1.40625 0 C 1.40625 0 1.40625 -14.578125 1.40625 -14.578125 C 1.40625 -14.578125 3.0625 -14.578125 3.0625 -14.578125 C 3.0625 -14.578125 3.0625 -9.046875 3.0625 -9.046875 C 4.046875 -10.3125 4.9375 -10.78125 6.421875 -10.78125 C 8.453125 -10.78125 9.71875 -9.6875 9.71875 -7.921875 C 9.71875 -7.921875 9.71875 0 9.71875 0 Z M 9.71875 0 "/>
</g>
<g id="glyph-0-24-f277be17">
<path d="M 9.1875 -2.9375 C 9.1875 -0.921875 7.5 0.296875 4.859375 0.296875 C 2.125 0.296875 0.765625 -0.78125 0.6875 -3.203125 C 0.6875 -3.203125 2.4375 -3.203125 2.4375 -3.203125 C 2.65625 -1.59375 3.5 -1.234375 5 -1.234375 C 6.453125 -1.234375 7.4375 -1.8125 7.4375 -2.796875 C 7.4375 -3.5625 6.984375 -3.90625 5.8125 -4.1875 C 5.8125 -4.1875 4.265625 -4.5625 4.265625 -4.5625 C 1.78125 -5.15625 0.9375 -5.9375 0.9375 -7.578125 C 0.9375 -9.515625 2.515625 -10.78125 4.953125 -10.78125 C 7.375 -10.78125 8.734375 -9.625 8.765625 -7.5625 C 8.765625 -7.5625 7 -7.5625 7 -7.5625 C 6.953125 -8.65625 6.234375 -9.234375 4.90625 -9.234375 C 3.546875 -9.234375 2.6875 -8.625 2.6875 -7.65625 C 2.6875 -6.921875 3.265625 -6.484375 4.625 -6.15625 C 4.625 -6.15625 6.21875 -5.78125 6.21875 -5.78125 C 8.296875 -5.28125 9.1875 -4.5 9.1875 -2.9375 Z M 9.1875 -2.9375 "/>
</g>
<g id="glyph-0-25-f277be17">
<path d="M 10.265625 -7.046875 C 10.265625 -3.4375 8.9375 0.234375 5.796875 0.234375 C 2.6875 0.234375 1.359375 -3.4375 1.359375 -7.046875 C 1.359375 -10.84375 2.515625 -14.8125 5.796875 -14.8125 C 9.09375 -14.8125 10.265625 -10.84375 10.265625 -7.046875 Z M 8.625 -7.796875 C 8.5625 -10.515625 8.140625 -13.296875 5.796875 -13.296875 C 3.484375 -13.296875 3.0625 -10.515625 3 -7.796875 C 3 -7.796875 8.625 -7.796875 8.625 -7.796875 Z M 8.59375 -6.28125 C 8.59375 -6.28125 3.015625 -6.28125 3.015625 -6.28125 C 3.09375 -3.765625 3.6875 -1.28125 5.796875 -1.28125 C 7.9375 -1.28125 8.515625 -3.765625 8.59375 -6.28125 Z M 8.59375 -6.28125 "/>
</g>
<g id="glyph-0-26-f277be17">
<path d="M 15.21875 0 C 15.21875 0 13.453125 0 13.453125 0 C 13.453125 0 13.453125 -12.21875 13.453125 -12.21875 C 13.453125 -12.21875 9.359375 0 9.359375 0 C 9.359375 0 7.40625 0 7.40625 0 C 7.40625 0 3.265625 -12.21875 3.265625 -12.21875 C 3.265625 -12.21875 3.265625 0 3.265625 0 C 3.265625 0 1.5 0 1.5 0 C 1.5 0 1.5 -14.578125 1.5 -14.578125 C 1.5 -14.578125 4.078125 -14.578125 4.078125 -14.578125 C 4.078125 -14.578125 8.40625 -1.875 8.40625 -1.875 C 8.40625 -1.875 12.640625 -14.578125 12.640625 -14.578125 C 12.640625 -14.578125 15.21875 -14.578125 15.21875 -14.578125 C 15.21875 -14.578125 15.21875 0 15.21875 0 Z M 15.21875 0 "/>
</g>
<g id="glyph-0-27-f277be17">
<path d="M 10.65625 0 C 10.65625 0 1.59375 0 1.59375 0 C 1.59375 0 1.59375 -14.578125 1.59375 -14.578125 C 1.59375 -14.578125 3.453125 -14.578125 3.453125 -14.578125 C 3.453125 -14.578125 3.453125 -1.640625 3.453125 -1.640625 C 3.453125 -1.640625 10.65625 -1.640625 10.65625 -1.640625 C 10.65625 -1.640625 10.65625 0 10.65625 0 Z M 10.65625 0 "/>
</g>
<g id="glyph-0-28-f277be17">
<path d="M 12.265625 0 C 12.265625 0 1.796875 0 1.796875 0 C 1.796875 0 1.796875 -14.578125 1.796875 -14.578125 C 1.796875 -14.578125 11.90625 -14.578125 11.90625 -14.578125 C 11.90625 -14.578125 11.90625 -12.9375 11.90625 -12.9375 C 11.90625 -12.9375 3.65625 -12.9375 3.65625 -12.9375 C 3.65625 -12.9375 3.65625 -8.28125 3.65625 -8.28125 C 3.65625 -8.28125 11.59375 -8.28125 11.59375 -8.28125 C 11.59375 -8.28125 11.59375 -6.640625 11.59375 -6.640625 C 11.59375 -6.640625 3.65625 -6.640625 3.65625 -6.640625 C 3.65625 -6.640625 3.65625 -1.640625 3.65625 -1.640625 C 3.65625 -1.640625 12.265625 -1.640625 12.265625 -1.640625 C 12.265625 -1.640625 12.265625 0 12.265625 0 Z M 12.265625 0 "/>
</g>
<g id="glyph-1-0-f277be17">
<path d="M 3.8125 0 C 3.8125 0 1.734375 0 1.734375 0 C 1.734375 0 1.734375 -2.078125 1.734375 -2.078125 C 1.734375 -2.078125 3.8125 -2.078125 3.8125 -2.078125 C 3.8125 -2.078125 3.8125 0 3.8125 0 Z M 3.8125 0 "/>
</g>
<g id="glyph-2-0-f277be17">
<path d="M 0 -9.90625 C 0 -9.90625 0 -8.421875 0 -8.421875 C 0 -8.421875 -1.546875 -8.421875 -1.546875 -8.421875 C -0.234375 -7.515625 0.296875 -6.515625 0.296875 -5.078125 C 0.296875 -2.265625 -1.796875 -0.515625 -5.34375 -0.515625 C -8.6875 -0.515625 -10.78125 -2.296875 -10.78125 -5.015625 C -10.78125 -6.421875 -10.21875 -7.546875 -9.15625 -8.234375 C -9.15625 -8.234375 -14.578125 -8.234375 -14.578125 -8.234375 C -14.578125 -8.234375 -14.578125 -9.90625 -14.578125 -9.90625 C -14.578125 -9.90625 0 -9.90625 0 -9.90625 Z M -5.203125 -8.234375 C -7.625 -8.234375 -9.21875 -7.09375 -9.21875 -5.296875 C -9.21875 -3.484375 -7.6875 -2.265625 -5.234375 -2.265625 C -2.796875 -2.265625 -1.265625 -3.484375 -1.265625 -5.3125 C -1.265625 -7.078125 -2.78125 -8.234375 -5.203125 -8.234375 Z M -5.203125 -8.234375 "/>
</g>
<g id="glyph-3-0-f277be17">
<path d="M -4.765625 -10.265625 C -4.765625 -10.265625 -4.765625 -2.546875 -4.765625 -2.546875 C -2.359375 -2.578125 -1.234375 -3.875 -1.234375 -5.625 C -1.234375 -6.953125 -1.796875 -7.90625 -3.1875 -8.359375 C -3.1875 -8.359375 -3.1875 -10.046875 -3.1875 -10.046875 C -1.0625 -9.625 0.296875 -7.953125 0.296875 -5.5625 C 0.296875 -2.625 -1.734375 -0.796875 -5.1875 -0.796875 C -8.625 -0.796875 -10.78125 -2.6875 -10.78125 -5.59375 C -10.78125 -7.5625 -9.734375 -9.15625 -8.015625 -9.84375 C -7.234375 -10.140625 -6.28125 -10.265625 -4.765625 -10.265625 Z M -6.234375 -8.484375 C -7.875 -8.484375 -9.234375 -7.21875 -9.234375 -5.578125 C -9.234375 -3.90625 -7.984375 -2.71875 -6.125 -2.578125 C -6.125 -2.578125 -6.125 -8.453125 -6.125 -8.453125 C -6.15625 -8.484375 -6.234375 -8.484375 -6.234375 -8.484375 Z M -6.234375 -8.484375 "/>
</g>
<g id="glyph-3-1-f277be17">
<path d="M 0 -9.734375 C 0 -9.734375 0 -8.078125 0 -8.078125 C 0 -8.078125 -7.265625 -8.078125 -7.265625 -8.078125 C -8.515625 -8.078125 -9.3125 -7.234375 -9.3125 -5.921875 C -9.3125 -4.21875 -7.921875 -3.0625 -5.78125 -3.0625 C -5.78125 -3.0625 0 -3.0625 0 -3.0625 C 0 -3.0625 0 -1.40625 0 -1.40625 C 0 -1.40625 -10.484375 -1.40625 -10.484375 -1.40625 C -10.484375 -1.40625 -10.484375 -2.9375 -10.484375 -2.9375 C -10.484375 -2.9375 -8.71875 -2.9375 -8.71875 -2.9375 C -10.1875 -3.859375 -10.78125 -4.859375 -10.78125 -6.421875 C -10.78125 -8.4375 -9.65625 -9.734375 -7.921875 -9.734375 C -7.921875 -9.734375 0 -9.734375 0 -9.734375 Z M 0 -9.734375 "/>
</g>
<g id="glyph-4-0-f277be17">
<path d="M -2.9375 -9.1875 C -0.921875 -9.1875 0.296875 -7.5 0.296875 -4.859375 C 0.296875 -2.125 -0.78125 -0.765625 -3.203125 -0.6875 C -3.203125 -0.6875 -3.203125 -2.4375 -3.203125 -2.4375 C -1.59375 -2.65625 -1.234375 -3.5 -1.234375 -5 C -1.234375 -6.453125 -1.8125 -7.4375 -2.796875 -7.4375 C -3.5625 -7.4375 -3.90625 -6.984375 -4.1875 -5.8125 C -4.1875 -5.8125 -4.5625 -4.265625 -4.5625 -4.265625 C -5.15625 -1.78125 -5.9375 -0.9375 -7.578125 -0.9375 C -9.515625 -0.9375 -10.78125 -2.515625 -10.78125 -4.953125 C -10.78125 -7.375 -9.625 -8.734375 -7.5625 -8.765625 C -7.5625 -8.765625 -7.5625 -7 -7.5625 -7 C -8.65625 -6.953125 -9.234375 -6.234375 -9.234375 -4.90625 C -9.234375 -3.546875 -8.625 -2.6875 -7.65625 -2.6875 C -6.921875 -2.6875 -6.484375 -3.265625 -6.15625 -4.625 C -6.15625 -4.625 -5.78125 -6.21875 -5.78125 -6.21875 C -5.28125 -8.296875 -4.5 -9.1875 -2.9375 -9.1875 Z M -2.9375 -9.1875 "/>
</g>
<g id="glyph-5-0-f277be17">
<path d="M 0 -3.0625 C 0 -3.0625 0 -1.40625 0 -1.40625 C 0 -1.40625 -10.484375 -1.40625 -10.484375 -1.40625 C -10.484375 -1.40625 -10.484375 -3.0625 -10.484375 -3.0625 C -10.484375 -3.0625 0 -3.0625 0 -3.0625 Z M -12.0625 -3.28125 C -12.0625 -3.28125 -12.0625 -1.203125 -12.0625 -1.203125 C -12.0625 -1.203125 -14.140625 -1.203125 -14.140625 -1.203125 C -14.140625 -1.203125 -14.140625 -3.28125 -14.140625 -3.28125 C -14.140625 -3.28125 -12.0625 -3.28125 -12.0625 -3.28125 Z M -12.0625 -3.28125 "/>
</g>
<g id="glyph-5-1-f277be17">
<path d="M -10.484375 -9.5625 C -10.484375 -9.5625 2.203125 -4.90625 2.203125 -4.90625 C 3.703125 -4.34375 4.359375 -3.375 4.359375 -2.203125 C 4.359375 -1.765625 4.28125 -1.421875 4.09375 -1.078125 C 4.09375 -1.078125 2.59375 -1.078125 2.59375 -1.078125 C 2.6875 -1.4375 2.71875 -1.71875 2.71875 -1.953125 C 2.71875 -2.6875 2.4375 -3.015625 1.703125 -3.296875 C 1.703125 -3.296875 0.046875 -3.9375 0.046875 -3.9375 C 0.046875 -3.9375 -10.484375 -0.40625 -10.484375 -0.40625 C -10.484375 -0.40625 -10.484375 -2.1875 -10.484375 -2.1875 C -10.484375 -2.1875 -2.3125 -4.859375 -2.3125 -4.859375 C -2.3125 -4.859375 -10.484375 -7.765625 -10.484375 -7.765625 C -10.484375 -7.765625 -10.484375 -9.5625 -10.484375 -9.5625 Z M -10.484375 -9.5625 "/>
</g>
<g id="glyph-6-0-f277be17">
<path d="M 0 -5.078125 C 0.09375 -4.515625 0.140625 -4.125 0.140625 -3.71875 C 0.140625 -2.421875 -0.453125 -1.703125 -1.515625 -1.703125 C -1.515625 -1.703125 -9.125 -1.703125 -9.125 -1.703125 C -9.125 -1.703125 -9.125 -0.28125 -9.125 -0.28125 C -9.125 -0.28125 -10.484375 -0.28125 -10.484375 -0.28125 C -10.484375 -0.28125 -10.484375 -1.703125 -10.484375 -1.703125 C -10.484375 -1.703125 -13.359375 -1.703125 -13.359375 -1.703125 C -13.359375 -1.703125 -13.359375 -3.359375 -13.359375 -3.359375 C -13.359375 -3.359375 -10.484375 -3.359375 -10.484375 -3.359375 C -10.484375 -3.359375 -10.484375 -5.078125 -10.484375 -5.078125 C -10.484375 -5.078125 -9.125 -5.078125 -9.125 -5.078125 C -9.125 -5.078125 -9.125 -3.359375 -9.125 -3.359375 C -9.125 -3.359375 -2.265625 -3.359375 -2.265625 -3.359375 C -1.515625 -3.359375 -1.3125 -3.5625 -1.3125 -4.28125 C -1.3125 -4.59375 -1.34375 -4.859375 -1.40625 -5.078125 C -1.40625 -5.078125 0 -5.078125 0 -5.078125 Z M 0 -5.078125 "/>
</g>
</g>
<clipPath id="clip-0-f277be17">
<path clip-rule="nonzero" d="M 154 16 L 158 16 L 158 232 L 154 232 Z M 154 16 "/>
</clipPath>
</defs>
<rect x="-80" y="-30" width="960" height="360" fill="rgb(100%, 100%, 100%)" fill-opacity="1"/>
<g fill="rgb(0%, 0%, 0%)" fill-opacity="1">
<use xlink:href="#glyph-0-0-f277be17" x="265.140009" y="280.239999"/>
<use xlink:href="#glyph-0-1-f277be17" x="276.260004" y="280.239999"/>
<use xlink:href="#glyph-0-2-f277be17" x="286.260003" y="280.239999"/>
<use xlink:href="#glyph-0-0-f277be17" x="297.380006" y="280.239999"/>
<use xlink:href="#glyph-0-3-f277be17" x="308.500008" y="280.239999"/>
<use xlink:href="#glyph-0-4-f277be17" x="318.500008" y="280.239999"/>
<use xlink:href="#glyph-0-0-f277be17" x="324.060006" y="280.239999"/>
<use xlink:href="#glyph-0-5-f277be17" x="335.180008" y="280.239999"/>
<use xlink:href="#glyph-0-6-f277be17" x="346.300011" y="280.239999"/>
<use xlink:href="#glyph-0-7-f277be17" x="351.860008" y="280.239999"/>
<use xlink:href="#glyph-0-8-f277be17" x="362.980011" y="280.239999"/>
<use xlink:href="#glyph-0-8-f277be17" x="374.100013" y="280.239999"/>
<use xlink:href="#glyph-0-9-f277be17" x="385.220015" y="280.239999"/>
<use xlink:href="#glyph-0-7-f277be17" x="396.340018" y="280.239999"/>
<use xlink:href="#glyph-0-10-f277be17" x="407.460013" y="280.239999"/>
<use xlink:href="#glyph-0-6-f277be17" x="411.900015" y="280.239999"/>
<use xlink:href="#glyph-0-5-f277be17" x="417.460013" y="280.239999"/>
<use xlink:href="#glyph-0-7-f277be17" x="428.580008" y="280.239999"/>
<use xlink:href="#glyph-0-11-f277be17" x="439.700002" y="280.239999"/>
<use xlink:href="#glyph-0-7-f277be17" x="456.360006" y="280.239999"/>
<use xlink:href="#glyph-0-12-f277be17" x="467.480001" y="280.239999"/>
<use xlink:href="#glyph-0-0-f277be17" x="478.599995" y="280.239999"/>
<use xlink:href="#glyph-0-6-f277be17" x="489.71999" y="280.239999"/>
<use xlink:href="#glyph-0-13-f277be17" x="495.279988" y="280.239999"/>
<use xlink:href="#glyph-0-14-f277be17" x="500.839985" y="280.239999"/>
<use xlink:href="#glyph-0-7-f277be17" x="507.499989" y="280.239999"/>
<use xlink:href="#glyph-0-3-f277be17" x="518.619984" y="280.239999"/>
<use xlink:href="#glyph-0-4-f277be17" x="528.619983" y="280.239999"/>
<use xlink:href="#glyph-0-15-f277be17" x="534.179981" y="280.239999"/>
<use xlink:href="#glyph-0-16-f277be17" x="538.619983" y="280.239999"/>
<use xlink:href="#glyph-0-8-f277be17" x="549.739978" y="280.239999"/>
</g>
<g fill="rgb(0%, 0%, 0%)" fill-opacity="1">
<use xlink:href="#glyph-0-17-f277be17" x="56.267272" y="253.939999"/>
<use xlink:href="#glyph-0-18-f277be17" x="67.387271" y="253.939999"/>
<use xlink:href="#glyph-0-17-f277be17" x="72.947272" y="253.939999"/>
<use xlink:href="#glyph-0-17-f277be17" x="84.06727" y="253.939999"/>
</g>
<g fill="rgb(0%, 0%, 0%)" fill-opacity="1">
<use xlink:href="#glyph-0-17-f277be17" x="198.2457" y="253.939999"/>
<use xlink:href="#glyph-0-18-f277be17" x="209.3657" y="253.939999"/>
<use xlink:href="#glyph-0-17-f277be17" x="214.9257" y="253.939999"/>
<use xlink:href="#glyph-0-19-f277be17" x="226.045699" y="253.939999"/>
</g>
<g fill="rgb(0%, 0%, 0%)" fill-opacity="1">
<use xlink:href="#glyph-0-17-f277be17" x="340.224136" y="253.939999"/>
<use xlink:href="#glyph-0-18-f277be17" x="351.344136" y="253.939999"/>
<use xlink:href="#glyph-0-17-f277be17" x="356.904136" y="253.939999"/>
<use xlink:href="#glyph-0-20-f277be17" x="368.024135" y="253.939999"/>
</g>
<g fill="rgb(0%, 0%, 0%)" fill-opacity="1">
<use xlink:href="#glyph-0-17-f277be17" x="482.202557" y="253.939999"/>
</g>
<g fill="rgb(0%, 0%, 0%)" fill-opacity="1">
<use xlink:href="#glyph-1-0-f277be17" x="493.322557" y="253.939999"/>
</g>
<g fill="rgb(0%, 0%, 0%)" fill-opacity="1">
<use xlink:href="#glyph-0-17-f277be17" x="498.882557" y="253.939999"/>
<use xlink:href="#glyph-0-21-f277be17" x="510.002556" y="253.939999"/>
</g>
<g fill="rgb(0%, 0%, 0%)" fill-opacity="1">
<use xlink:href="#glyph-0-17-f277be17" x="624.180978" y="253.939999"/>
<use xlink:href="#glyph-0-18-f277be17" x="635.300978" y="253.939999"/>
<use xlink:href="#glyph-0-17-f277be17" x="640.860978" y="253.939999"/>
<use xlink:href="#glyph-0-22-f277be17" x="651.980977" y="253.939999"/>
</g>
<g fill="rgb(0%, 0%, 0%)" fill-opacity="1">
<use xlink:href="#glyph-2-0-f277be17" x="33.639998" y="155.679995"/>
</g>
<g fill="rgb(0%, 0%, 0%)" fill-opacity="1">
<use xlink:href="#glyph-3-0-f277be17" x="33.639999" y="144.559996"/>
<use xlink:href="#glyph-3-1-f277be17" x="33.64" y="133.439996"/>
</g>
<g fill="rgb(0%, 0%, 0%)" fill-opacity="1">
<use xlink:href="#glyph-4-0-f277be17" x="33.64" y="122.319995"/>
</g>
<g fill="rgb(0%, 0%, 0%)" fill-opacity="1">
<use xlink:href="#glyph-5-0-f277be17" x="33.640001" y="112.319996"/>
</g>
<g fill="rgb(0%, 0%, 0%)" fill-opacity="1">
<use xlink:href="#glyph-6-0-f277be17" x="33.640001" y="107.879998"/>
</g>
<g fill="rgb(0%, 0%, 0%)" fill-opacity="1">
<use xlink:href="#glyph-5-1-f277be17" x="33.640001" y="102.319997"/>
</g>
<path fill-rule="nonzero" fill="rgb(0%, 44.705883%, 69.803923%)" fill-opacity="0.6" d="M 75.726562 222.183594 L 92.589844 222.183594 L 92.589844 125.960938 L 75.726562 125.960938 Z M 75.726562 222.183594 "/>
<path fill-rule="nonzero" fill="rgb(0%, 44.705883%, 69.803923%)" fill-opacity="0.6" d="M 92.589844 222.183594 L 109.453125 222.183594 L 109.453125 51.8125 L 92.589844 51.8125 Z M 92.589844 222.183594 "/>
<path fill-rule="nonzero" fill="rgb(0%, 44.705883%, 69.803923%)" fill-opacity="0.6" d="M 109.453125 222.183594 L 126.316406 222.183594 L 126.316406 25.820312 L 109.453125 25.820312 Z M 109.453125 222.183594 "/>
<path fill-rule="nonzero" fill="rgb(0%, 44.705883%, 69.803923%)" fill-opacity="0.6" d="M 126.316406 222.183594 L 143.179688 222.183594 L 143.179688 31.363281 L 126.316406 31.363281 Z M 126.316406 222.183594 "/>
<path fill-rule="nonzero" fill="rgb(0%, 44.705883%, 69.803923%)" fill-opacity="0.6" d="M 143.183594 222.183594 L 160.046875 222.183594 L 160.046875 49.328125 L 143.183594 49.328125 Z M 143.183594 222.183594 "/>
<path fill-rule="nonzero" fill="rgb(0%, 44.705883%, 69.803923%)" fill-opacity="0.6" d="M 160.046875 222.183594 L 176.910156 222.183594 L 176.910156 66.429688 L 160.046875 66.429688 Z M 160.046875 222.183594 "/>
<path fill-rule="nonzero" fill="rgb(0%, 44.705883%, 69.803923%)" fill-opacity="0.6" d="M 176.910156 222.183594 L 193.773438 222.183594 L 193.773438 101.59375 L 176.910156 101.59375 Z M 176.910156 222.183594 "/>
<path fill-rule="nonzero" fill="rgb(0%, 44.705883%, 69.803923%)" fill-opacity="0.6" d="M 193.773438 222.183594 L 210.636719 222.183594 L 210.636719 121.566406 L 193.773438 121.566406 Z M 193.773438 222.183594 "/>
<path fill-rule="nonzero" fill="rgb(0%, 44.705883%, 69.803923%)" fill-opacity="0.6" d="M 210.636719 222.183594 L 227.5 222.183594 L 227.5 148.511719 L 210.636719 148.511719 Z M 210.636719 222.183594 "/>
<path fill-rule="nonzero" fill="rgb(0%, 44.705883%, 69.803923%)" fill-opacity="0.6" d="M 227.5 222.183594 L 244.363281 222.183594 L 244.363281 162.460938 L 227.5 162.460938 Z M 227.5 222.183594 "/>
<path fill-rule="nonzero" fill="rgb(0%, 44.705883%, 69.803923%)" fill-opacity="0.6" d="M 244.363281 222.183594 L 261.226562 222.183594 L 261.226562 177.75 L 244.363281 177.75 Z M 244.363281 222.183594 "/>
<path fill-rule="nonzero" fill="rgb(0%, 44.705883%, 69.803923%)" fill-opacity="0.6" d="M 261.226562 222.183594 L 278.089844 222.183594 L 278.089844 186.828125 L 261.226562 186.828125 Z M 261.226562 222.183594 "/>
<path fill-rule="nonzero" fill="rgb(0%, 44.705883%, 69.803923%)" fill-opacity="0.6" d="M 278.089844 222.183594 L 294.953125 222.183594 L 294.953125 198.582031 L 278.089844 198.582031 Z M 278.089844 222.183594 "/>
<path fill-rule="nonzero" fill="rgb(0%, 44.705883%, 69.803923%)" fill-opacity="0.6" d="M 294.953125 222.183594 L 311.816406 222.183594 L 311.816406 201.832031 L 294.953125 201.832031 Z M 294.953125 222.183594 "/>
<path fill-rule="nonzero" fill="rgb(0%, 44.705883%, 69.803923%)" fill-opacity="0.6" d="M 311.816406 222.183594 L 328.679688 222.183594 L 328.679688 206.800781 L 311.816406 206.800781 Z M 311.816406 222.183594 "/>
<path fill-rule="nonzero" fill="rgb(0%, 44.705883%, 69.803923%)" fill-opacity="0.6" d="M 328.683594 222.183594 L 345.546875 222.183594 L 345.546875 210.429688 L 328.683594 210.429688 Z M 328.683594 222.183594 "/>
<path fill-rule="nonzero" fill="rgb(0%, 44.705883%, 69.803923%)" fill-opacity="0.6" d="M 345.546875 222.183594 L 362.410156 222.183594 L 362.410156 213.488281 L 345.546875 213.488281 Z M 345.546875 222.183594 "/>
<path fill-rule="nonzero" fill="rgb(0%, 44.705883%, 69.803923%)" fill-opacity="0.6" d="M 362.410156 222.183594 L 379.273438 222.183594 L 379.273438 214.824219 L 362.410156 214.824219 Z M 362.410156 222.183594 "/>
<path fill-rule="nonzero" fill="rgb(0%, 44.705883%, 69.803923%)" fill-opacity="0.6" d="M 379.273438 222.183594 L 396.136719 222.183594 L 396.136719 217.308594 L 379.273438 217.308594 Z M 379.273438 222.183594 "/>
<path fill-rule="nonzero" fill="rgb(0%, 44.705883%, 69.803923%)" fill-opacity="0.6" d="M 396.136719 222.183594 L 413 222.183594 L 413 216.640625 L 396.136719 216.640625 Z M 396.136719 222.183594 "/>
<path fill-rule="nonzero" fill="rgb(0%, 44.705883%, 69.803923%)" fill-opacity="0.6" d="M 413 222.183594 L 429.863281 222.183594 L 429.863281 218.265625 L 413 218.265625 Z M 413 222.183594 "/>
<path fill-rule="nonzero" fill="rgb(0%, 44.705883%, 69.803923%)" fill-opacity="0.6" d="M 429.863281 222.183594 L 446.726562 222.183594 L 446.726562 219.792969 L 429.863281 219.792969 Z M 429.863281 222.183594 "/>
<path fill-rule="nonzero" fill="rgb(0%, 44.705883%, 69.803923%)" fill-opacity="0.6" d="M 446.726562 222.183594 L 463.589844 222.183594 L 463.589844 220.273438 L 446.726562 220.273438 Z M 446.726562 222.183594 "/>
<path fill-rule="nonzero" fill="rgb(0%, 44.705883%, 69.803923%)" fill-opacity="0.6" d="M 463.589844 222.183594 L 480.453125 222.183594 L 480.453125 220.75 L 463.589844 220.75 Z M 463.589844 222.183594 "/>
<path fill-rule="nonzero" fill="rgb(0%, 44.705883%, 69.803923%)" fill-opacity="0.6" d="M 480.453125 222.183594 L 497.316406 222.183594 L 497.316406 221.035156 L 480.453125 221.035156 Z M 480.453125 222.183594 "/>
<path fill-rule="nonzero" fill="rgb(0%, 44.705883%, 69.803923%)" fill-opacity="0.6" d="M 497.316406 222.183594 L 514.179688 222.183594 L 514.179688 221.707031 L 497.316406 221.707031 Z M 497.316406 222.183594 "/>
<path fill-rule="nonzero" fill="rgb(0%, 44.705883%, 69.803923%)" fill-opacity="0.6" d="M 514.183594 222.183594 L 531.046875 222.183594 L 531.046875 221.609375 L 514.183594 221.609375 Z M 514.183594 222.183594 "/>
<path fill-rule="nonzero" fill="rgb(0%, 44.705883%, 69.803923%)" fill-opacity="0.6" d="M 531.046875 222.183594 L 547.910156 222.183594 L 547.910156 221.707031 L 531.046875 221.707031 Z M 531.046875 222.183594 "/>
<path fill-rule="nonzero" fill="rgb(0%, 44.705883%, 69.803923%)" fill-opacity="0.6" d="M 547.910156 222.183594 L 564.773438 222.183594 L 564.773438 221.707031 L 547.910156 221.707031 Z M 547.910156 222.183594 "/>
<path fill-rule="nonzero" fill="rgb(0%, 44.705883%, 69.803923%)" fill-opacity="0.6" d="M 564.773438 222.183594 L 581.636719 222.183594 L 581.636719 221.609375 L 564.773438 221.609375 Z M 564.773438 222.183594 "/>
<path fill-rule="nonzero" fill="rgb(0%, 44.705883%, 69.803923%)" fill-opacity="0.6" d="M 581.636719 222.183594 L 598.5 222.183594 L 598.5 222.089844 L 581.636719 222.089844 Z M 581.636719 222.183594 "/>
<path fill-rule="nonzero" fill="rgb(0%, 44.705883%, 69.803923%)" fill-opacity="0.6" d="M 598.5 222.183594 L 615.363281 222.183594 L 615.363281 222.089844 L 598.5 222.089844 Z M 598.5 222.183594 "/>
<path fill-rule="nonzero" fill="rgb(0%, 44.705883%, 69.803923%)" fill-opacity="0.6" d="M 615.363281 222.183594 L 632.226562 222.183594 L 632.226562 221.992188 L 615.363281 221.992188 Z M 615.363281 222.183594 "/>
<path fill-rule="nonzero" fill="rgb(0%, 44.705883%, 69.803923%)" fill-opacity="0.6" d="M 632.226562 222.183594 L 649.089844 222.183594 L 649.089844 221.800781 L 632.226562 221.800781 Z M 632.226562 222.183594 "/>
<path fill-rule="nonzero" fill="rgb(0%, 44.705883%, 69.803923%)" fill-opacity="0.6" d="M 649.089844 222.183594 L 665.953125 222.183594 L 665.953125 221.992188 L 649.089844 221.992188 Z M 649.089844 222.183594 "/>
<path fill-rule="nonzero" fill="rgb(0%, 44.705883%, 69.803923%)" fill-opacity="0.6" d="M 665.953125 222.183594 L 682.816406 222.183594 L 682.816406 222.089844 L 665.953125 222.089844 Z M 665.953125 222.183594 "/>
<path fill-rule="nonzero" fill="rgb(0%, 44.705883%, 69.803923%)" fill-opacity="0.6" d="M 733.410156 222.183594 L 750.273438 222.183594 L 750.273438 222.089844 L 733.410156 222.089844 Z M 733.410156 222.183594 "/>
<g clip-path="url(#clip-0-f277be17)">
<path fill="none" stroke-width="3" stroke-linecap="butt" stroke-linejoin="miter" stroke="rgb(90.196079%, 62.352943%, 0%)" stroke-opacity="1" stroke-miterlimit="1.154701" d="M 155.535156 232 L 155.535156 16 "/>
</g>
<path fill-rule="nonzero" fill="rgb(0%, 44.705883%, 69.803923%)" fill-opacity="0.6" d="M 581.910156 43.851562 L 601.910156 43.851562 L 601.910156 23.851562 L 581.910156 23.851562 Z M 581.910156 43.851562 "/>
<path fill="none" stroke-width="3" stroke-linecap="butt" stroke-linejoin="miter" stroke="rgb(90.196079%, 62.352943%, 0%)" stroke-opacity="1" stroke-miterlimit="2" d="M 581.910156 60.148438 L 601.910156 60.148438 "/>
<g fill="rgb(0%, 0%, 0%)" fill-opacity="1">
<use xlink:href="#glyph-0-0-f277be17" x="606.910036" y="41.14"/>
<use xlink:href="#glyph-0-7-f277be17" x="618.030035" y="41.14"/>
<use xlink:href="#glyph-0-3-f277be17" x="629.150033" y="41.14"/>
<use xlink:href="#glyph-0-23-f277be17" x="639.150033" y="41.14"/>
<use xlink:href="#glyph-0-6-f277be17" x="650.270032" y="41.14"/>
<use xlink:href="#glyph-0-2-f277be17" x="655.830033" y="41.14"/>
<use xlink:href="#glyph-0-16-f277be17" x="666.950032" y="41.14"/>
<use xlink:href="#glyph-0-24-f277be17" x="678.07003" y="41.14"/>
<use xlink:href="#glyph-0-4-f277be17" x="688.07003" y="41.14"/>
<use xlink:href="#glyph-0-0-f277be17" x="693.630028" y="41.14"/>
<use xlink:href="#glyph-0-14-f277be17" x="704.75003" y="41.14"/>
<use xlink:href="#glyph-0-15-f277be17" x="711.410034" y="41.14"/>
<use xlink:href="#glyph-0-16-f277be17" x="715.850036" y="41.14"/>
<use xlink:href="#glyph-0-14-f277be17" x="726.970038" y="41.14"/>
<use xlink:href="#glyph-0-6-f277be17" x="733.630034" y="41.14"/>
<use xlink:href="#glyph-0-25-f277be17" x="739.190032" y="41.14"/>
</g>
<g fill="rgb(0%, 0%, 0%)" fill-opacity="1">
<use xlink:href="#glyph-0-26-f277be17" x="606.90999" y="67.440019"/>
<use xlink:href="#glyph-0-27-f277be17" x="623.569993" y="67.440019"/>
<use xlink:href="#glyph-0-28-f277be17" x="634.689988" y="67.440019"/>
<use xlink:href="#glyph-0-6-f277be17" x="648.029988" y="67.440019"/>
<use xlink:href="#glyph-0-2-f277be17" x="653.589989" y="67.440019"/>
<use xlink:href="#glyph-0-16-f277be17" x="664.709988" y="67.440019"/>
<use xlink:href="#glyph-0-15-f277be17" x="675.829987" y="67.440019"/>
<use xlink:href="#glyph-0-8-f277be17" x="680.269989" y="67.440019"/>
<use xlink:href="#glyph-0-4-f277be17" x="691.389992" y="67.440019"/>
<use xlink:href="#glyph-0-6-f277be17" x="696.949989" y="67.440019"/>
<use xlink:href="#glyph-0-0-f277be17" x="702.509986" y="67.440019"/>
<use xlink:href="#glyph-0-24-f277be17" x="713.629989" y="67.440019"/>
<use xlink:href="#glyph-0-4-f277be17" x="723.629989" y="67.440019"/>
<use xlink:href="#glyph-0-15-f277be17" x="729.189986" y="67.440019"/>
<use xlink:href="#glyph-0-11-f277be17" x="733.629988" y="67.440019"/>
<use xlink:href="#glyph-0-7-f277be17" x="750.289992" y="67.440019"/>
<use xlink:href="#glyph-0-4-f277be17" x="761.409987" y="67.440019"/>
<use xlink:href="#glyph-0-0-f277be17" x="766.969984" y="67.440019"/>
</g>
<path fill="none" stroke-width="1" stroke-linecap="butt" stroke-linejoin="miter" stroke="rgb(0%, 0%, 0%)" stroke-opacity="1" stroke-miterlimit="1.154701" d="M 41.5 232 L 784.5 232 "/>
<path fill="none" stroke-width="1" stroke-linecap="butt" stroke-linejoin="miter" stroke="rgb(0%, 0%, 0%)" stroke-opacity="1" stroke-miterlimit="1.154701" d="M 42 232.5 L 42 15.5 "/>
</svg>
