<?xml version="1.0" encoding="UTF-8"?>
<svg xmlns="http://www.w3.org/2000/svg" xmlns:xlink="http://www.w3.org/1999/xlink" width="900" height="300" viewBox="0 0 900 300">
<defs>
<g>
<g id="glyph-0-0-172db4ac">
<path d="M 9.09375 -10 C 9.09375 -11.3125 8.734375 -14.09375 6.703125 -14.09375 C 3.921875 -14.09375 0.84375 -8.453125 0.84375 -3.875 C 0.84375 -2 1.421875 0.21875 3.234375 0.21875 C 6.0625 0.21875 9.09375 -5.515625 9.09375 -10 Z M 7.78125 -11.234375 C 7.78125 -10.265625 7.625 -9.234375 7.140625 -7.265625 L 2.953125 -7.265625 C 3.296875 -8.546875 3.703125 -10.140625 4.5 -11.5625 C 5.046875 -12.546875 5.78125 -13.65625 6.6875 -13.65625 C 7.65625 -13.65625 7.78125 -12.375 7.78125 -11.234375 Z M 6.953125 -6.625 C 6.734375 -5.703125 6.3125 -4 5.5625 -2.5625 C 4.859375 -1.203125 4.09375 -0.21875 3.234375 -0.21875 C 2.578125 -0.21875 2.15625 -0.796875 2.15625 -2.65625 C 2.15625 -3.5 2.28125 -4.65625 2.796875 -6.625 Z M 6.953125 -6.625 "/>
</g>
<g id="glyph-0-1-172db4ac">
<path d="M -1.640625 -12.140625 C -2.765625 -13.125 -3.984375 -13.953125 -5.28125 -14.6875 C -6.578125 -13.953125 -7.796875 -13.125 -8.921875 -12.140625 L -8.6875 -11.734375 C -7.515625 -12.234375 -6.375 -12.8125 -5.28125 -13.4375 C -4.1875 -12.8125 -3.046875 -12.234375 -1.875 -11.734375 Z M -1.640625 -12.140625 "/>
</g>
<g id="glyph-1-0-172db4ac">
<path d="M 7.03125 -1.71875 C 7.03125 -1.84375 6.9375 -1.84375 6.859375 -1.84375 C 6.703125 -1.84375 6.703125 -1.8125 6.640625 -1.625 C 6.546875 -1.3125 6.234375 -0.125 5.53125 -0.125 C 5.28125 -0.125 5.265625 -0.3125 5.265625 -0.484375 C 5.265625 -0.78125 5.390625 -1.09375 5.484375 -1.375 C 5.71875 -2.015625 6.21875 -3.359375 6.21875 -4.0625 C 6.21875 -5.046875 5.5625 -5.296875 4.96875 -5.296875 C 3.984375 -5.296875 3.40625 -4.578125 3.25 -4.359375 C 3.171875 -4.9375 2.765625 -5.296875 2.25 -5.296875 C 1.8125 -5.296875 1.578125 -5.03125 1.375 -4.671875 C 1.15625 -4.1875 1 -3.453125 1 -3.453125 C 1 -3.34375 1.109375 -3.34375 1.171875 -3.34375 C 1.328125 -3.34375 1.34375 -3.34375 1.40625 -3.609375 C 1.625 -4.453125 1.84375 -5.046875 2.21875 -5.046875 C 2.53125 -5.046875 2.53125 -4.6875 2.53125 -4.5625 C 2.53125 -4.375 2.5 -4.140625 2.453125 -3.953125 L 1.546875 -0.34375 C 1.53125 -0.28125 1.515625 -0.21875 1.515625 -0.1875 C 1.515625 -0.046875 1.609375 0.125 1.84375 0.125 C 1.984375 0.125 2.203125 0.046875 2.28125 -0.1875 L 2.765625 -2.09375 C 2.8125 -2.359375 2.890625 -2.609375 2.953125 -2.875 C 3.109375 -3.484375 3.109375 -3.5 3.3125 -3.859375 C 3.484375 -4.140625 4.015625 -5.046875 4.9375 -5.046875 C 5.453125 -5.046875 5.484375 -4.5 5.484375 -4.25 C 5.484375 -3.5 4.953125 -2.078125 4.78125 -1.59375 C 4.625 -1.1875 4.59375 -1.078125 4.59375 -0.828125 C 4.59375 -0.296875 4.9375 0.125 5.515625 0.125 C 6.625 0.125 7.03125 -1.65625 7.03125 -1.71875 Z M 7.03125 -1.71875 "/>
</g>
<g id="glyph-2-0-172db4ac">
<path d="M 10.140625 -6.8125 C 10.140625 -2.15625 8.5 0.296875 5.5 0.296875 C 2.453125 0.296875 0.859375 -2.15625 0.859375 -6.9375 C 0.859375 -11.703125 2.4375 -14.1875 5.5 -14.1875 C 8.578125 -14.1875 10.140625 -11.734375 10.140625 -6.8125 Z M 8.34375 -6.984375 C 8.34375 -10.78125 7.40625 -12.625 5.5 -12.625 C 3.59375 -12.625 2.65625 -10.796875 2.65625 -6.921875 C 2.65625 -3.046875 3.59375 -1.15625 5.453125 -1.15625 C 7.421875 -1.15625 8.34375 -2.953125 8.34375 -6.984375 Z M 8.34375 -6.984375 "/>
</g>
<g id="glyph-2-1-172db4ac">
<path d="M 3.8125 0 C 3.8125 0 1.734375 0 1.734375 0 C 1.734375 0 1.734375 -2.078125 1.734375 -2.078125 C 1.734375 -2.078125 3.8125 -2.078125 3.8125 -2.078125 C 3.8125 -2.078125 3.8125 0 3.8125 0 Z M 3.8125 0 "/>
</g>
<g id="glyph-2-2-172db4ac">
<path d="M 10.21875 -10.015625 C 10.21875 -8.28125 9.203125 -6.796875 7.21875 -5.734375 C 7.21875 -5.734375 5.21875 -4.65625 5.21875 -4.65625 C 3.484375 -3.640625 2.84375 -2.90625 2.65625 -1.734375 C 2.65625 -1.734375 10.125 -1.734375 10.125 -1.734375 C 10.125 -1.734375 10.125 0 10.125 0 C 10.125 0 0.6875 0 0.6875 0 C 0.84375 -3.125 1.703125 -4.453125 4.65625 -6.140625 C 4.65625 -6.140625 6.5 -7.1875 6.5 -7.1875 C 7.765625 -7.90625 8.421875 -8.859375 8.421875 -9.984375 C 8.421875 -11.5 7.21875 -12.640625 5.625 -12.640625 C 3.875 -12.640625 2.90625 -11.640625 2.765625 -9.265625 C 2.765625 -9.265625 1 -9.265625 1 -9.265625 C 1.09375 -12.703125 2.78125 -14.1875 5.6875 -14.1875 C 8.359375 -14.1875 10.21875 -12.421875 10.21875 -10.015625 Z M 10.21875 -10.015625 "/>
</g>
<g id="glyph-2-3-172db4ac">
<path d="M 10.265625 -4.703125 C 10.265625 -1.703125 8.265625 0.296875 5.40625 0.296875 C 2.875 0.296875 1.28125 -0.8125 0.703125 -3.640625 C 0.703125 -3.640625 2.453125 -3.640625 2.453125 -3.640625 C 2.875 -2.046875 3.8125 -1.265625 5.359375 -1.265625 C 7.28125 -1.265625 8.453125 -2.421875 8.453125 -4.453125 C 8.453125 -6.5625 7.265625 -7.78125 5.359375 -7.78125 C 4.265625 -7.78125 3.578125 -7.4375 2.765625 -6.453125 C 2.765625 -6.453125 1.140625 -6.453125 1.140625 -6.453125 C 1.140625 -6.453125 2.203125 -13.875 2.203125 -13.875 C 2.203125 -13.875 9.515625 -13.875 9.515625 -13.875 C 9.515625 -13.875 9.515625 -12.140625 9.515625 -12.140625 C 9.515625 -12.140625 3.625 -12.140625 3.625 -12.140625 C 3.625 -12.140625 3.0625 -8.484375 3.0625 -8.484375 C 3.875 -9.078125 4.6875 -9.34375 5.6875 -9.34375 C 8.40625 -9.34375 10.265625 -7.5 10.265625 -4.703125 Z M 10.265625 -4.703125 "/>
</g>
<g id="glyph-2-4-172db4ac">
<path d="M 6.9375 0 C 6.9375 0 5.1875 0 5.1875 0 C 5.1875 0 5.1875 -10.09375 5.1875 -10.09375 C 5.1875 -10.09375 2.046875 -10.09375 2.046875 -10.09375 C 2.046875 -10.09375 2.046875 -11.359375 2.046875 -11.359375 C 4.765625 -11.703125 5.15625 -12 5.78125 -14.1875 C 5.78125 -14.1875 6.9375 -14.1875 6.9375 -14.1875 C 6.9375 -14.1875 6.9375 0 6.9375 0 Z M 6.9375 0 "/>
</g>
<g id="glyph-2-5-172db4ac">
<path d="M 10.40625 -12.40625 C 7.421875 -8.859375 5.421875 -4.578125 4.640625 0 C 4.640625 0 2.765625 0 2.765625 0 C 3.765625 -4.4375 5.765625 -8.578125 8.578125 -12.140625 C 8.578125 -12.140625 0.921875 -12.140625 0.921875 -12.140625 C 0.921875 -12.140625 0.921875 -13.875 0.921875 -13.875 C 0.921875 -13.875 10.40625 -13.875 10.40625 -13.875 C 10.40625 -13.875 10.40625 -12.40625 10.40625 -12.40625 Z M 10.40625 -12.40625 "/>
</g>
<g id="glyph-3-0-172db4ac">
<path d="M 10.140625 -6.8125 C 10.140625 -2.15625 8.5 0.296875 5.5 0.296875 C 2.453125 0.296875 0.859375 -2.15625 0.859375 -6.9375 C 0.859375 -11.703125 2.4375 -14.1875 5.5 -14.1875 C 8.578125 -14.1875 10.140625 -11.734375 10.140625 -6.8125 Z M 8.34375 -6.984375 C 8.34375 -10.78125 7.40625 -12.625 5.5 -12.625 C 3.59375 -12.625 2.65625 -10.796875 2.65625 -6.921875 C 2.65625 -3.046875 3.59375 -1.15625 5.453125 -1.15625 C 7.421875 -1.15625 8.34375 -2.953125 8.34375 -6.984375 Z M 8.34375 -6.984375 "/>
</g>
<g id="glyph-4-0-172db4ac">
<path d="M 10.921875 0 C 10.921875 0 8.125 0 8.125 0 C 8.125 0 8.125 -6.65625 8.125 -6.65625 C 8.125 -7.9375 7.515625 -8.59375 6.3125 -8.59375 C 4.953125 -8.59375 4.0625 -7.765625 4.0625 -6.484375 C 4.0625 -6.484375 4.0625 0 4.0625 0 C 4.0625 0 1.265625 0 1.265625 0 C 1.265625 0 1.265625 -10.796875 1.265625 -10.796875 C 1.265625 -10.796875 4.0625 -10.796875 4.0625 -10.796875 C 4.0625 -10.796875 4.0625 -9.234375 4.0625 -9.234375 C 4.859375 -10.4375 5.84375 -10.984375 7.296875 -10.984375 C 9.59375 -10.984375 10.921875 -9.625 10.921875 -7.234375 C 10.921875 -7.234375 10.921875 0 10.921875 0 Z M 10.921875 0 "/>
</g>
<g id="glyph-4-1-172db4ac">
</g>
<g id="glyph-4-2-172db4ac">
<path d="M 10.484375 -5.8125 C 10.484375 -5.8125 1.203125 -5.8125 1.203125 -5.8125 C 1.203125 -5.8125 1.203125 -7.8125 1.203125 -7.8125 C 1.203125 -7.8125 10.484375 -7.8125 10.484375 -7.8125 C 10.484375 -7.8125 10.484375 -5.8125 10.484375 -5.8125 Z M 10.484375 -2.1875 C 10.484375 -2.1875 1.203125 -2.1875 1.203125 -2.1875 C 1.203125 -2.1875 1.203125 -4.1875 1.203125 -4.1875 C 1.203125 -4.1875 10.484375 -4.1875 10.484375 -4.1875 C 10.484375 -4.1875 10.484375 -2.1875 10.484375 -2.1875 Z M 10.484375 -2.1875 "/>
</g>
<g id="glyph-4-3-172db4ac">
<path d="M 7.5625 0 C 7.5625 0 4.765625 0 4.765625 0 C 4.765625 0 4.765625 -9.78125 4.765625 -9.78125 C 4.765625 -9.78125 1.359375 -9.78125 1.359375 -9.78125 C 1.359375 -9.78125 1.359375 -11.640625 1.359375 -11.640625 C 3.796875 -11.640625 5.265625 -12.5 5.703125 -14.1875 C 5.703125 -14.1875 7.5625 -14.1875 7.5625 -14.1875 C 7.5625 -14.1875 7.5625 0 7.5625 0 Z M 7.5625 0 "/>
</g>
<g id="glyph-4-4-172db4ac">
<path d="M 10.34375 -7.0625 C 10.34375 -1.453125 8.34375 0.1875 5.453125 0.1875 C 1.359375 0.1875 0.578125 -3.1875 0.578125 -7.140625 C 0.578125 -11.21875 1.40625 -14.484375 5.453125 -14.484375 C 9.625 -14.484375 10.34375 -11.078125 10.34375 -7.0625 Z M 7.546875 -7.125 C 7.546875 -11.515625 6.84375 -12.21875 5.453125 -12.21875 C 3.953125 -12.21875 3.375 -11.28125 3.375 -7.15625 C 3.375 -2.9375 4.046875 -2.21875 5.453125 -2.21875 C 6.953125 -2.21875 7.546875 -3.140625 7.546875 -7.125 Z M 7.546875 -7.125 "/>
</g>
</g>
<clipPath id="clip-0-172db4ac">
<path clip-rule="nonzero" d="M 130 43 L 134 43 L 134 228 L 130 228 Z M 130 43 "/>
</clipPath>
<clipPath id="clip-1-172db4ac">
<path clip-rule="nonzero" d="M 80 43 L 83 43 L 83 228 L 80 228 Z M 80 43 "/>
</clipPath>
<clipPath id="clip-2-172db4ac">
<path clip-rule="nonzero" d="M 181 43 L 184 43 L 184 228 L 181 228 Z M 181 43 "/>
</clipPath>
<clipPath id="clip-3-172db4ac">
<path clip-rule="nonzero" d="M 678 43 L 682 43 L 682 228 L 678 228 Z M 678 43 "/>
</clipPath>
<clipPath id="clip-4-172db4ac">
<path clip-rule="nonzero" d="M 632 43 L 635 43 L 635 228 L 632 228 Z M 632 43 "/>
</clipPath>
<clipPath id="clip-5-172db4ac">
<path clip-rule="nonzero" d="M 725 43 L 728 43 L 728 228 L 725 228 Z M 725 43 "/>
</clipPath>
</defs>
<rect x="-90" y="-30" width="1080" height="360" fill="rgb(100%, 100%, 100%)" fill-opacity="1"/>
<g fill="rgb(0%, 0%, 0%)" fill-opacity="1">
<use xlink:href="#glyph-0-0-172db4ac" x="219.009118" y="278.899997"/>
<use xlink:href="#glyph-0-1-172db4ac" x="231.246894" y="273.419998"/>
</g>
<g fill="rgb(0%, 0%, 0%)" fill-opacity="1">
<use xlink:href="#glyph-1-0-172db4ac" x="231.246894" y="282.899997"/>
</g>
<g fill="rgb(0%, 0%, 0%)" fill-opacity="1">
<use xlink:href="#glyph-2-0-172db4ac" x="10.298186" y="249.939999"/>
<use xlink:href="#glyph-2-1-172db4ac" x="21.418186" y="249.939999"/>
</g>
<g fill="rgb(0%, 0%, 0%)" fill-opacity="1">
<use xlink:href="#glyph-3-0-172db4ac" x="26.978186" y="249.939999"/>
</g>
<g fill="rgb(0%, 0%, 0%)" fill-opacity="1">
<use xlink:href="#glyph-2-0-172db4ac" x="38.098186" y="249.939999"/>
<use xlink:href="#glyph-2-0-172db4ac" x="49.218185" y="249.939999"/>
</g>
<g fill="rgb(0%, 0%, 0%)" fill-opacity="1">
<use xlink:href="#glyph-2-0-172db4ac" x="146.53866" y="249.939999"/>
<use xlink:href="#glyph-2-1-172db4ac" x="157.65866" y="249.939999"/>
<use xlink:href="#glyph-2-0-172db4ac" x="163.21866" y="249.939999"/>
<use xlink:href="#glyph-2-2-172db4ac" x="174.33866" y="249.939999"/>
<use xlink:href="#glyph-2-3-172db4ac" x="185.458659" y="249.939999"/>
</g>
<g fill="rgb(0%, 0%, 0%)" fill-opacity="1">
<use xlink:href="#glyph-2-0-172db4ac" x="282.779142" y="249.939999"/>
<use xlink:href="#glyph-2-1-172db4ac" x="293.899142" y="249.939999"/>
<use xlink:href="#glyph-2-0-172db4ac" x="299.459142" y="249.939999"/>
<use xlink:href="#glyph-2-3-172db4ac" x="310.579142" y="249.939999"/>
<use xlink:href="#glyph-2-0-172db4ac" x="321.699141" y="249.939999"/>
</g>
<g fill="rgb(0%, 0%, 0%)" fill-opacity="1">
<use xlink:href="#glyph-4-0-172db4ac" x="194.310006" y="34.639994"/>
<use xlink:href="#glyph-4-1-172db4ac" x="206.530008" y="34.639994"/>
<use xlink:href="#glyph-4-2-172db4ac" x="212.090007" y="34.639994"/>
<use xlink:href="#glyph-4-1-172db4ac" x="223.770008" y="34.639994"/>
<use xlink:href="#glyph-4-3-172db4ac" x="229.330007" y="34.639994"/>
<use xlink:href="#glyph-4-4-172db4ac" x="240.450007" y="34.639994"/>
<use xlink:href="#glyph-4-4-172db4ac" x="251.570006" y="34.639994"/>
</g>
<path fill-rule="nonzero" fill="rgb(90.196079%, 62.352943%, 0%)" fill-opacity="0.7" d="M 35.316406 219.589844 L 41.753906 219.589844 L 41.753906 212.289062 L 35.316406 212.289062 Z M 35.316406 219.589844 "/>
<path fill-rule="nonzero" fill="rgb(90.196079%, 62.352943%, 0%)" fill-opacity="0.7" d="M 41.757812 219.589844 L 48.195312 219.589844 L 48.195312 197.398438 L 41.757812 197.398438 Z M 41.757812 219.589844 "/>
<path fill-rule="nonzero" fill="rgb(90.196079%, 62.352943%, 0%)" fill-opacity="0.7" d="M 48.195312 219.589844 L 54.632812 219.589844 L 54.632812 179.003906 L 48.195312 179.003906 Z M 48.195312 219.589844 "/>
<path fill-rule="nonzero" fill="rgb(90.196079%, 62.352943%, 0%)" fill-opacity="0.7" d="M 54.636719 219.589844 L 61.074219 219.589844 L 61.074219 148.636719 L 54.636719 148.636719 Z M 54.636719 219.589844 "/>
<path fill-rule="nonzero" fill="rgb(90.196079%, 62.352943%, 0%)" fill-opacity="0.7" d="M 61.074219 219.589844 L 67.511719 219.589844 L 67.511719 135.207031 L 61.074219 135.207031 Z M 61.074219 219.589844 "/>
<path fill-rule="nonzero" fill="rgb(90.196079%, 62.352943%, 0%)" fill-opacity="0.7" d="M 67.515625 219.589844 L 73.953125 219.589844 L 73.953125 115.058594 L 67.515625 115.058594 Z M 67.515625 219.589844 "/>
<path fill-rule="nonzero" fill="rgb(90.196079%, 62.352943%, 0%)" fill-opacity="0.7" d="M 73.953125 219.589844 L 80.390625 219.589844 L 80.390625 107.46875 L 73.953125 107.46875 Z M 73.953125 219.589844 "/>
<path fill-rule="nonzero" fill="rgb(90.196079%, 62.352943%, 0%)" fill-opacity="0.7" d="M 80.394531 219.589844 L 86.832031 219.589844 L 86.832031 89.367188 L 80.394531 89.367188 Z M 80.394531 219.589844 "/>
<path fill-rule="nonzero" fill="rgb(90.196079%, 62.352943%, 0%)" fill-opacity="0.7" d="M 86.832031 219.589844 L 93.269531 219.589844 L 93.269531 77.976562 L 86.832031 77.976562 Z M 86.832031 219.589844 "/>
<path fill-rule="nonzero" fill="rgb(90.196079%, 62.352943%, 0%)" fill-opacity="0.7" d="M 93.273438 219.589844 L 99.710938 219.589844 L 99.710938 83.234375 L 93.273438 83.234375 Z M 93.273438 219.589844 "/>
<path fill-rule="nonzero" fill="rgb(90.196079%, 62.352943%, 0%)" fill-opacity="0.7" d="M 99.710938 219.589844 L 106.148438 219.589844 L 106.148438 73.890625 L 99.710938 73.890625 Z M 99.710938 219.589844 "/>
<path fill-rule="nonzero" fill="rgb(90.196079%, 62.352943%, 0%)" fill-opacity="0.7" d="M 106.152344 219.589844 L 112.589844 219.589844 L 112.589844 58.125 L 106.152344 58.125 Z M 106.152344 219.589844 "/>
<path fill-rule="nonzero" fill="rgb(90.196079%, 62.352943%, 0%)" fill-opacity="0.7" d="M 112.589844 219.589844 L 119.027344 219.589844 L 119.027344 51.40625 L 112.589844 51.40625 Z M 112.589844 219.589844 "/>
<path fill-rule="nonzero" fill="rgb(90.196079%, 62.352943%, 0%)" fill-opacity="0.7" d="M 119.03125 219.589844 L 125.46875 219.589844 L 125.46875 66.589844 L 119.03125 66.589844 Z M 119.03125 219.589844 "/>
<path fill-rule="nonzero" fill="rgb(90.196079%, 62.352943%, 0%)" fill-opacity="0.7" d="M 125.46875 219.589844 L 131.90625 219.589844 L 131.90625 80.898438 L 125.46875 80.898438 Z M 125.46875 219.589844 "/>
<path fill-rule="nonzero" fill="rgb(90.196079%, 62.352943%, 0%)" fill-opacity="0.7" d="M 131.910156 219.589844 L 138.347656 219.589844 L 138.347656 79.144531 L 131.910156 79.144531 Z M 131.910156 219.589844 "/>
<path fill-rule="nonzero" fill="rgb(90.196079%, 62.352943%, 0%)" fill-opacity="0.7" d="M 138.347656 219.589844 L 144.785156 219.589844 L 144.785156 89.65625 L 138.347656 89.65625 Z M 138.347656 219.589844 "/>
<path fill-rule="nonzero" fill="rgb(90.196079%, 62.352943%, 0%)" fill-opacity="0.7" d="M 144.789062 219.589844 L 151.226562 219.589844 L 151.226562 103.382812 L 144.789062 103.382812 Z M 144.789062 219.589844 "/>
<path fill-rule="nonzero" fill="rgb(90.196079%, 62.352943%, 0%)" fill-opacity="0.7" d="M 151.226562 219.589844 L 157.664062 219.589844 L 157.664062 106.007812 L 151.226562 106.007812 Z M 151.226562 219.589844 "/>
<path fill-rule="nonzero" fill="rgb(90.196079%, 62.352943%, 0%)" fill-opacity="0.7" d="M 157.667969 219.589844 L 164.105469 219.589844 L 164.105469 117.105469 L 157.667969 117.105469 Z M 157.667969 219.589844 "/>
<path fill-rule="nonzero" fill="rgb(90.196079%, 62.352943%, 0%)" fill-opacity="0.7" d="M 164.105469 219.589844 L 170.542969 219.589844 L 170.542969 127.03125 L 164.105469 127.03125 Z M 164.105469 219.589844 "/>
<path fill-rule="nonzero" fill="rgb(90.196079%, 62.352943%, 0%)" fill-opacity="0.7" d="M 170.546875 219.589844 L 176.984375 219.589844 L 176.984375 128.199219 L 170.546875 128.199219 Z M 170.546875 219.589844 "/>
<path fill-rule="nonzero" fill="rgb(90.196079%, 62.352943%, 0%)" fill-opacity="0.7" d="M 176.984375 219.589844 L 183.421875 219.589844 L 183.421875 146.011719 L 176.984375 146.011719 Z M 176.984375 219.589844 "/>
<path fill-rule="nonzero" fill="rgb(90.196079%, 62.352943%, 0%)" fill-opacity="0.7" d="M 183.425781 219.589844 L 189.863281 219.589844 L 189.863281 160.609375 L 183.425781 160.609375 Z M 183.425781 219.589844 "/>
<path fill-rule="nonzero" fill="rgb(90.196079%, 62.352943%, 0%)" fill-opacity="0.7" d="M 189.863281 219.589844 L 196.300781 219.589844 L 196.300781 161.777344 L 189.863281 161.777344 Z M 189.863281 219.589844 "/>
<path fill-rule="nonzero" fill="rgb(90.196079%, 62.352943%, 0%)" fill-opacity="0.7" d="M 196.304688 219.589844 L 202.742188 219.589844 L 202.742188 171.121094 L 196.304688 171.121094 Z M 196.304688 219.589844 "/>
<path fill-rule="nonzero" fill="rgb(90.196079%, 62.352943%, 0%)" fill-opacity="0.7" d="M 202.742188 219.589844 L 209.179688 219.589844 L 209.179688 179.296875 L 202.742188 179.296875 Z M 202.742188 219.589844 "/>
<path fill-rule="nonzero" fill="rgb(90.196079%, 62.352943%, 0%)" fill-opacity="0.7" d="M 209.183594 219.589844 L 215.621094 219.589844 L 215.621094 180.757812 L 209.183594 180.757812 Z M 209.183594 219.589844 "/>
<path fill-rule="nonzero" fill="rgb(90.196079%, 62.352943%, 0%)" fill-opacity="0.7" d="M 215.621094 219.589844 L 222.058594 219.589844 L 222.058594 183.382812 L 215.621094 183.382812 Z M 215.621094 219.589844 "/>
<path fill-rule="nonzero" fill="rgb(90.196079%, 62.352943%, 0%)" fill-opacity="0.7" d="M 222.0625 219.589844 L 228.5 219.589844 L 228.5 188.054688 L 222.0625 188.054688 Z M 222.0625 219.589844 "/>
<path fill-rule="nonzero" fill="rgb(90.196079%, 62.352943%, 0%)" fill-opacity="0.7" d="M 228.5 219.589844 L 234.9375 219.589844 L 234.9375 197.105469 L 228.5 197.105469 Z M 228.5 219.589844 "/>
<path fill-rule="nonzero" fill="rgb(90.196079%, 62.352943%, 0%)" fill-opacity="0.7" d="M 234.9375 219.589844 L 241.375 219.589844 L 241.375 200.027344 L 234.9375 200.027344 Z M 234.9375 219.589844 "/>
<path fill-rule="nonzero" fill="rgb(90.196079%, 62.352943%, 0%)" fill-opacity="0.7" d="M 241.378906 219.589844 L 247.816406 219.589844 L 247.816406 204.113281 L 241.378906 204.113281 Z M 241.378906 219.589844 "/>
<path fill-rule="nonzero" fill="rgb(90.196079%, 62.352943%, 0%)" fill-opacity="0.7" d="M 247.816406 219.589844 L 254.253906 219.589844 L 254.253906 203.53125 L 247.816406 203.53125 Z M 247.816406 219.589844 "/>
<path fill-rule="nonzero" fill="rgb(90.196079%, 62.352943%, 0%)" fill-opacity="0.7" d="M 254.257812 219.589844 L 260.695312 219.589844 L 260.695312 214.335938 L 254.257812 214.335938 Z M 254.257812 219.589844 "/>
<path fill-rule="nonzero" fill="rgb(90.196079%, 62.352943%, 0%)" fill-opacity="0.7" d="M 260.695312 219.589844 L 267.132812 219.589844 L 267.132812 208.203125 L 260.695312 208.203125 Z M 260.695312 219.589844 "/>
<path fill-rule="nonzero" fill="rgb(90.196079%, 62.352943%, 0%)" fill-opacity="0.7" d="M 267.136719 219.589844 L 273.574219 219.589844 L 273.574219 211.121094 L 267.136719 211.121094 Z M 267.136719 219.589844 "/>
<path fill-rule="nonzero" fill="rgb(90.196079%, 62.352943%, 0%)" fill-opacity="0.7" d="M 273.574219 219.589844 L 280.011719 219.589844 L 280.011719 213.167969 L 273.574219 213.167969 Z M 273.574219 219.589844 "/>
<path fill-rule="nonzero" fill="rgb(90.196079%, 62.352943%, 0%)" fill-opacity="0.7" d="M 280.015625 219.589844 L 286.453125 219.589844 L 286.453125 213.75 L 280.015625 213.75 Z M 280.015625 219.589844 "/>
<path fill-rule="nonzero" fill="rgb(90.196079%, 62.352943%, 0%)" fill-opacity="0.7" d="M 286.453125 219.589844 L 292.890625 219.589844 L 292.890625 215.210938 L 286.453125 215.210938 Z M 286.453125 219.589844 "/>
<path fill-rule="nonzero" fill="rgb(90.196079%, 62.352943%, 0%)" fill-opacity="0.7" d="M 292.894531 219.589844 L 299.332031 219.589844 L 299.332031 216.378906 L 292.894531 216.378906 Z M 292.894531 219.589844 "/>
<path fill-rule="nonzero" fill="rgb(90.196079%, 62.352943%, 0%)" fill-opacity="0.7" d="M 299.332031 219.589844 L 305.769531 219.589844 L 305.769531 216.960938 L 299.332031 216.960938 Z M 299.332031 219.589844 "/>
<path fill-rule="nonzero" fill="rgb(90.196079%, 62.352943%, 0%)" fill-opacity="0.7" d="M 305.773438 219.589844 L 312.210938 219.589844 L 312.210938 218.128906 L 305.773438 218.128906 Z M 305.773438 219.589844 "/>
<path fill-rule="nonzero" fill="rgb(90.196079%, 62.352943%, 0%)" fill-opacity="0.7" d="M 312.210938 219.589844 L 318.648438 219.589844 L 318.648438 217.839844 L 312.210938 217.839844 Z M 312.210938 219.589844 "/>
<path fill-rule="nonzero" fill="rgb(90.196079%, 62.352943%, 0%)" fill-opacity="0.7" d="M 318.652344 219.589844 L 325.089844 219.589844 L 325.089844 218.421875 L 318.652344 218.421875 Z M 318.652344 219.589844 "/>
<path fill-rule="nonzero" fill="rgb(90.196079%, 62.352943%, 0%)" fill-opacity="0.7" d="M 325.089844 219.589844 L 331.527344 219.589844 L 331.527344 218.128906 L 325.089844 218.128906 Z M 325.089844 219.589844 "/>
<path fill-rule="nonzero" fill="rgb(90.196079%, 62.352943%, 0%)" fill-opacity="0.7" d="M 331.53125 219.589844 L 337.96875 219.589844 L 337.96875 219.007812 L 331.53125 219.007812 Z M 331.53125 219.589844 "/>
<path fill-rule="nonzero" fill="rgb(90.196079%, 62.352943%, 0%)" fill-opacity="0.7" d="M 337.96875 219.589844 L 344.40625 219.589844 L 344.40625 219.007812 L 337.96875 219.007812 Z M 337.96875 219.589844 "/>
<path fill-rule="nonzero" fill="rgb(90.196079%, 62.352943%, 0%)" fill-opacity="0.7" d="M 350.847656 219.589844 L 357.285156 219.589844 L 357.285156 219.007812 L 350.847656 219.007812 Z M 350.847656 219.589844 "/>
<path fill-rule="nonzero" fill="rgb(90.196079%, 62.352943%, 0%)" fill-opacity="0.7" d="M 357.289062 219.589844 L 363.726562 219.589844 L 363.726562 218.714844 L 357.289062 218.714844 Z M 357.289062 219.589844 "/>
<path fill-rule="nonzero" fill="rgb(90.196079%, 62.352943%, 0%)" fill-opacity="0.7" d="M 402.363281 219.589844 L 408.800781 219.589844 L 408.800781 219.296875 L 402.363281 219.296875 Z M 402.363281 219.589844 "/>
<path fill-rule="nonzero" fill="rgb(90.196079%, 62.352943%, 0%)" fill-opacity="0.7" d="M 415.242188 219.589844 L 421.679688 219.589844 L 421.679688 219.296875 L 415.242188 219.296875 Z M 415.242188 219.589844 "/>
<g clip-path="url(#clip-0-172db4ac)">
<path fill="none" stroke-width="3" stroke-linecap="butt" stroke-linejoin="miter" stroke="rgb(0%, 44.705883%, 69.803923%)" stroke-opacity="1" stroke-miterlimit="1.154701" d="M 131.824219 228 L 131.824219 43 "/>
</g>
<g clip-path="url(#clip-1-172db4ac)">
<path fill="none" stroke-width="2" stroke-linecap="butt" stroke-linejoin="miter" stroke="rgb(0%, 44.705883%, 69.803923%)" stroke-opacity="1" stroke-dasharray="6 6" stroke-miterlimit="1.154701" d="M 81.257812 228 L 81.257812 43 "/>
</g>
<g clip-path="url(#clip-2-172db4ac)">
<path fill="none" stroke-width="2" stroke-linecap="butt" stroke-linejoin="miter" stroke="rgb(0%, 44.705883%, 69.803923%)" stroke-opacity="1" stroke-dasharray="6 6" stroke-miterlimit="1.154701" d="M 182.390625 228 L 182.390625 43 "/>
</g>
<g fill="rgb(0%, 0%, 0%)" fill-opacity="1">
<use xlink:href="#glyph-0-0-172db4ac" x="662.009128" y="278.899997"/>
<use xlink:href="#glyph-0-1-172db4ac" x="674.246904" y="273.419998"/>
</g>
<g fill="rgb(0%, 0%, 0%)" fill-opacity="1">
<use xlink:href="#glyph-1-0-172db4ac" x="674.246904" y="282.899997"/>
</g>
<g fill="rgb(0%, 0%, 0%)" fill-opacity="1">
<use xlink:href="#glyph-2-0-172db4ac" x="509.32071" y="249.939999"/>
<use xlink:href="#glyph-2-1-172db4ac" x="520.440709" y="249.939999"/>
<use xlink:href="#glyph-2-0-172db4ac" x="526.000711" y="249.939999"/>
<use xlink:href="#glyph-2-4-172db4ac" x="537.12071" y="249.939999"/>
<use xlink:href="#glyph-2-3-172db4ac" x="548.240709" y="249.939999"/>
<use xlink:href="#glyph-2-0-172db4ac" x="559.360708" y="249.939999"/>
</g>
<g fill="rgb(0%, 0%, 0%)" fill-opacity="1">
<use xlink:href="#glyph-2-0-172db4ac" x="634.597935" y="249.939999"/>
<use xlink:href="#glyph-2-1-172db4ac" x="645.717934" y="249.939999"/>
<use xlink:href="#glyph-2-0-172db4ac" x="651.277936" y="249.939999"/>
<use xlink:href="#glyph-2-4-172db4ac" x="662.397935" y="249.939999"/>
<use xlink:href="#glyph-2-5-172db4ac" x="673.517934" y="249.939999"/>
<use xlink:href="#glyph-2-3-172db4ac" x="684.637933" y="249.939999"/>
</g>
<g fill="rgb(0%, 0%, 0%)" fill-opacity="1">
<use xlink:href="#glyph-2-0-172db4ac" x="759.87516" y="249.939999"/>
<use xlink:href="#glyph-2-1-172db4ac" x="770.995159" y="249.939999"/>
<use xlink:href="#glyph-2-0-172db4ac" x="776.55516" y="249.939999"/>
<use xlink:href="#glyph-2-2-172db4ac" x="787.675159" y="249.939999"/>
<use xlink:href="#glyph-2-0-172db4ac" x="798.795159" y="249.939999"/>
<use xlink:href="#glyph-2-0-172db4ac" x="809.915158" y="249.939999"/>
</g>
<g fill="rgb(0%, 0%, 0%)" fill-opacity="1">
<use xlink:href="#glyph-4-0-172db4ac" x="626.190014" y="34.639994"/>
<use xlink:href="#glyph-4-1-172db4ac" x="638.410015" y="34.639994"/>
<use xlink:href="#glyph-4-2-172db4ac" x="643.970015" y="34.639994"/>
<use xlink:href="#glyph-4-1-172db4ac" x="655.650015" y="34.639994"/>
<use xlink:href="#glyph-4-3-172db4ac" x="661.210015" y="34.639994"/>
<use xlink:href="#glyph-4-4-172db4ac" x="672.330014" y="34.639994"/>
<use xlink:href="#glyph-4-4-172db4ac" x="683.450013" y="34.639994"/>
<use xlink:href="#glyph-4-4-172db4ac" x="694.570013" y="34.639994"/>
<use xlink:href="#glyph-4-4-172db4ac" x="705.690016" y="34.639994"/>
</g>
<path fill-rule="nonzero" fill="rgb(90.196079%, 62.352943%, 0%)" fill-opacity="0.7" d="M 478.316406 219.589844 L 484.753906 219.589844 L 484.753906 219.300781 L 478.316406 219.300781 Z M 478.316406 219.589844 "/>
<path fill-rule="nonzero" fill="rgb(90.196079%, 62.352943%, 0%)" fill-opacity="0.7" d="M 516.953125 219.589844 L 523.390625 219.589844 L 523.390625 219.300781 L 516.953125 219.300781 Z M 516.953125 219.589844 "/>
<path fill-rule="nonzero" fill="rgb(90.196079%, 62.352943%, 0%)" fill-opacity="0.7" d="M 523.394531 219.589844 L 529.832031 219.589844 L 529.832031 219.011719 L 523.394531 219.011719 Z M 523.394531 219.589844 "/>
<path fill-rule="nonzero" fill="rgb(90.196079%, 62.352943%, 0%)" fill-opacity="0.7" d="M 529.832031 219.589844 L 536.269531 219.589844 L 536.269531 219.300781 L 529.832031 219.300781 Z M 529.832031 219.589844 "/>
<path fill-rule="nonzero" fill="rgb(90.196079%, 62.352943%, 0%)" fill-opacity="0.7" d="M 536.273438 219.589844 L 542.710938 219.589844 L 542.710938 218.433594 L 536.273438 218.433594 Z M 536.273438 219.589844 "/>
<path fill-rule="nonzero" fill="rgb(90.196079%, 62.352943%, 0%)" fill-opacity="0.7" d="M 542.710938 219.589844 L 549.148438 219.589844 L 549.148438 217.277344 L 542.710938 217.277344 Z M 542.710938 219.589844 "/>
<path fill-rule="nonzero" fill="rgb(90.196079%, 62.352943%, 0%)" fill-opacity="0.7" d="M 549.152344 219.589844 L 555.589844 219.589844 L 555.589844 216.988281 L 549.152344 216.988281 Z M 549.152344 219.589844 "/>
<path fill-rule="nonzero" fill="rgb(90.196079%, 62.352943%, 0%)" fill-opacity="0.7" d="M 555.589844 219.589844 L 562.027344 219.589844 L 562.027344 215.832031 L 555.589844 215.832031 Z M 555.589844 219.589844 "/>
<path fill-rule="nonzero" fill="rgb(90.196079%, 62.352943%, 0%)" fill-opacity="0.7" d="M 562.03125 219.589844 L 568.46875 219.589844 L 568.46875 213.519531 L 562.03125 213.519531 Z M 562.03125 219.589844 "/>
<path fill-rule="nonzero" fill="rgb(90.196079%, 62.352943%, 0%)" fill-opacity="0.7" d="M 568.46875 219.589844 L 574.90625 219.589844 L 574.90625 210.34375 L 568.46875 210.34375 Z M 568.46875 219.589844 "/>
<path fill-rule="nonzero" fill="rgb(90.196079%, 62.352943%, 0%)" fill-opacity="0.7" d="M 574.910156 219.589844 L 581.347656 219.589844 L 581.347656 206.875 L 574.910156 206.875 Z M 574.910156 219.589844 "/>
<path fill-rule="nonzero" fill="rgb(90.196079%, 62.352943%, 0%)" fill-opacity="0.7" d="M 581.347656 219.589844 L 587.785156 219.589844 L 587.785156 203.117188 L 581.347656 203.117188 Z M 581.347656 219.589844 "/>
<path fill-rule="nonzero" fill="rgb(90.196079%, 62.352943%, 0%)" fill-opacity="0.7" d="M 587.789062 219.589844 L 594.226562 219.589844 L 594.226562 195.894531 L 587.789062 195.894531 Z M 587.789062 219.589844 "/>
<path fill-rule="nonzero" fill="rgb(90.196079%, 62.352943%, 0%)" fill-opacity="0.7" d="M 594.226562 219.589844 L 600.664062 219.589844 L 600.664062 188.957031 L 594.226562 188.957031 Z M 594.226562 219.589844 "/>
<path fill-rule="nonzero" fill="rgb(90.196079%, 62.352943%, 0%)" fill-opacity="0.7" d="M 600.667969 219.589844 L 607.105469 219.589844 L 607.105469 175.953125 L 600.667969 175.953125 Z M 600.667969 219.589844 "/>
<path fill-rule="nonzero" fill="rgb(90.196079%, 62.352943%, 0%)" fill-opacity="0.7" d="M 607.105469 219.589844 L 613.542969 219.589844 L 613.542969 165.550781 L 607.105469 165.550781 Z M 607.105469 219.589844 "/>
<path fill-rule="nonzero" fill="rgb(90.196079%, 62.352943%, 0%)" fill-opacity="0.7" d="M 613.546875 219.589844 L 619.984375 219.589844 L 619.984375 154.570312 L 613.546875 154.570312 Z M 613.546875 219.589844 "/>
<path fill-rule="nonzero" fill="rgb(90.196079%, 62.352943%, 0%)" fill-opacity="0.7" d="M 619.984375 219.589844 L 626.421875 219.589844 L 626.421875 137.8125 L 619.984375 137.8125 Z M 619.984375 219.589844 "/>
<path fill-rule="nonzero" fill="rgb(90.196079%, 62.352943%, 0%)" fill-opacity="0.7" d="M 626.425781 219.589844 L 632.863281 219.589844 L 632.863281 134.921875 L 626.425781 134.921875 Z M 626.425781 219.589844 "/>
<path fill-rule="nonzero" fill="rgb(90.196079%, 62.352943%, 0%)" fill-opacity="0.7" d="M 632.863281 219.589844 L 639.300781 219.589844 L 639.300781 121.339844 L 632.863281 121.339844 Z M 632.863281 219.589844 "/>
<path fill-rule="nonzero" fill="rgb(90.196079%, 62.352943%, 0%)" fill-opacity="0.7" d="M 639.304688 219.589844 L 645.742188 219.589844 L 645.742188 94.175781 L 639.304688 94.175781 Z M 639.304688 219.589844 "/>
<path fill-rule="nonzero" fill="rgb(90.196079%, 62.352943%, 0%)" fill-opacity="0.7" d="M 645.742188 219.589844 L 652.179688 219.589844 L 652.179688 90.417969 L 645.742188 90.417969 Z M 645.742188 219.589844 "/>
<path fill-rule="nonzero" fill="rgb(90.196079%, 62.352943%, 0%)" fill-opacity="0.7" d="M 652.183594 219.589844 L 658.621094 219.589844 L 658.621094 79.726562 L 652.183594 79.726562 Z M 652.183594 219.589844 "/>
<path fill-rule="nonzero" fill="rgb(90.196079%, 62.352943%, 0%)" fill-opacity="0.7" d="M 658.621094 219.589844 L 665.058594 219.589844 L 665.058594 73.949219 L 658.621094 73.949219 Z M 658.621094 219.589844 "/>
<path fill-rule="nonzero" fill="rgb(90.196079%, 62.352943%, 0%)" fill-opacity="0.7" d="M 665.058594 219.589844 L 671.496094 219.589844 L 671.496094 66.433594 L 665.058594 66.433594 Z M 665.058594 219.589844 "/>
<path fill-rule="nonzero" fill="rgb(90.196079%, 62.352943%, 0%)" fill-opacity="0.7" d="M 671.5 219.589844 L 677.9375 219.589844 L 677.9375 64.410156 L 671.5 64.410156 Z M 671.5 219.589844 "/>
<path fill-rule="nonzero" fill="rgb(90.196079%, 62.352943%, 0%)" fill-opacity="0.7" d="M 677.9375 219.589844 L 684.375 219.589844 L 684.375 51.40625 L 677.9375 51.40625 Z M 677.9375 219.589844 "/>
<path fill-rule="nonzero" fill="rgb(90.196079%, 62.352943%, 0%)" fill-opacity="0.7" d="M 684.378906 219.589844 L 690.816406 219.589844 L 690.816406 64.699219 L 684.378906 64.699219 Z M 684.378906 219.589844 "/>
<path fill-rule="nonzero" fill="rgb(90.196079%, 62.352943%, 0%)" fill-opacity="0.7" d="M 690.816406 219.589844 L 697.253906 219.589844 L 697.253906 56.898438 L 690.816406 56.898438 Z M 690.816406 219.589844 "/>
<path fill-rule="nonzero" fill="rgb(90.196079%, 62.352943%, 0%)" fill-opacity="0.7" d="M 697.257812 219.589844 L 703.695312 219.589844 L 703.695312 71.636719 L 697.257812 71.636719 Z M 697.257812 219.589844 "/>
<path fill-rule="nonzero" fill="rgb(90.196079%, 62.352943%, 0%)" fill-opacity="0.7" d="M 703.695312 219.589844 L 710.132812 219.589844 L 710.132812 92.441406 L 703.695312 92.441406 Z M 703.695312 219.589844 "/>
<path fill-rule="nonzero" fill="rgb(90.196079%, 62.352943%, 0%)" fill-opacity="0.7" d="M 710.136719 219.589844 L 716.574219 219.589844 L 716.574219 92.152344 L 710.136719 92.152344 Z M 710.136719 219.589844 "/>
<path fill-rule="nonzero" fill="rgb(90.196079%, 62.352943%, 0%)" fill-opacity="0.7" d="M 716.574219 219.589844 L 723.011719 219.589844 L 723.011719 115.558594 L 716.574219 115.558594 Z M 716.574219 219.589844 "/>
<path fill-rule="nonzero" fill="rgb(90.196079%, 62.352943%, 0%)" fill-opacity="0.7" d="M 723.015625 219.589844 L 729.453125 219.589844 L 729.453125 128.851562 L 723.015625 128.851562 Z M 723.015625 219.589844 "/>
<path fill-rule="nonzero" fill="rgb(90.196079%, 62.352943%, 0%)" fill-opacity="0.7" d="M 729.453125 219.589844 L 735.890625 219.589844 L 735.890625 146.480469 L 729.453125 146.480469 Z M 729.453125 219.589844 "/>
<path fill-rule="nonzero" fill="rgb(90.196079%, 62.352943%, 0%)" fill-opacity="0.7" d="M 735.894531 219.589844 L 742.332031 219.589844 L 742.332031 146.191406 L 735.894531 146.191406 Z M 735.894531 219.589844 "/>
<path fill-rule="nonzero" fill="rgb(90.196079%, 62.352943%, 0%)" fill-opacity="0.7" d="M 742.332031 219.589844 L 748.769531 219.589844 L 748.769531 157.460938 L 742.332031 157.460938 Z M 742.332031 219.589844 "/>
<path fill-rule="nonzero" fill="rgb(90.196079%, 62.352943%, 0%)" fill-opacity="0.7" d="M 748.773438 219.589844 L 755.210938 219.589844 L 755.210938 169.886719 L 748.773438 169.886719 Z M 748.773438 219.589844 "/>
<path fill-rule="nonzero" fill="rgb(90.196079%, 62.352943%, 0%)" fill-opacity="0.7" d="M 755.210938 219.589844 L 761.648438 219.589844 L 761.648438 178.265625 L 755.210938 178.265625 Z M 755.210938 219.589844 "/>
<path fill-rule="nonzero" fill="rgb(90.196079%, 62.352943%, 0%)" fill-opacity="0.7" d="M 761.652344 219.589844 L 768.089844 219.589844 L 768.089844 188.378906 L 761.652344 188.378906 Z M 761.652344 219.589844 "/>
<path fill-rule="nonzero" fill="rgb(90.196079%, 62.352943%, 0%)" fill-opacity="0.7" d="M 768.089844 219.589844 L 774.527344 219.589844 L 774.527344 192.425781 L 768.089844 192.425781 Z M 768.089844 219.589844 "/>
<path fill-rule="nonzero" fill="rgb(90.196079%, 62.352943%, 0%)" fill-opacity="0.7" d="M 774.53125 219.589844 L 780.96875 219.589844 L 780.96875 199.941406 L 774.53125 199.941406 Z M 774.53125 219.589844 "/>
<path fill-rule="nonzero" fill="rgb(90.196079%, 62.352943%, 0%)" fill-opacity="0.7" d="M 780.96875 219.589844 L 787.40625 219.589844 L 787.40625 206.007812 L 780.96875 206.007812 Z M 780.96875 219.589844 "/>
<path fill-rule="nonzero" fill="rgb(90.196079%, 62.352943%, 0%)" fill-opacity="0.7" d="M 787.410156 219.589844 L 793.847656 219.589844 L 793.847656 210.921875 L 787.410156 210.921875 Z M 787.410156 219.589844 "/>
<path fill-rule="nonzero" fill="rgb(90.196079%, 62.352943%, 0%)" fill-opacity="0.7" d="M 793.847656 219.589844 L 800.285156 219.589844 L 800.285156 213.808594 L 793.847656 213.808594 Z M 793.847656 219.589844 "/>
<path fill-rule="nonzero" fill="rgb(90.196079%, 62.352943%, 0%)" fill-opacity="0.7" d="M 800.289062 219.589844 L 806.726562 219.589844 L 806.726562 213.234375 L 800.289062 213.234375 Z M 800.289062 219.589844 "/>
<path fill-rule="nonzero" fill="rgb(90.196079%, 62.352943%, 0%)" fill-opacity="0.7" d="M 806.726562 219.589844 L 813.164062 219.589844 L 813.164062 216.988281 L 806.726562 216.988281 Z M 806.726562 219.589844 "/>
<path fill-rule="nonzero" fill="rgb(90.196079%, 62.352943%, 0%)" fill-opacity="0.7" d="M 813.167969 219.589844 L 819.605469 219.589844 L 819.605469 219.011719 L 813.167969 219.011719 Z M 813.167969 219.589844 "/>
<path fill-rule="nonzero" fill="rgb(90.196079%, 62.352943%, 0%)" fill-opacity="0.7" d="M 819.605469 219.589844 L 826.042969 219.589844 L 826.042969 216.988281 L 819.605469 216.988281 Z M 819.605469 219.589844 "/>
<path fill-rule="nonzero" fill="rgb(90.196079%, 62.352943%, 0%)" fill-opacity="0.7" d="M 826.046875 219.589844 L 832.484375 219.589844 L 832.484375 219.011719 L 826.046875 219.011719 Z M 826.046875 219.589844 "/>
<path fill-rule="nonzero" fill="rgb(90.196079%, 62.352943%, 0%)" fill-opacity="0.7" d="M 838.925781 219.589844 L 845.363281 219.589844 L 845.363281 218.144531 L 838.925781 218.144531 Z M 838.925781 219.589844 "/>
<path fill-rule="nonzero" fill="rgb(90.196079%, 62.352943%, 0%)" fill-opacity="0.7" d="M 845.363281 219.589844 L 851.800781 219.589844 L 851.800781 219.300781 L 845.363281 219.300781 Z M 845.363281 219.589844 "/>
<path fill-rule="nonzero" fill="rgb(90.196079%, 62.352943%, 0%)" fill-opacity="0.7" d="M 851.804688 219.589844 L 858.242188 219.589844 L 858.242188 219.300781 L 851.804688 219.300781 Z M 851.804688 219.589844 "/>
<path fill-rule="nonzero" fill="rgb(90.196079%, 62.352943%, 0%)" fill-opacity="0.7" d="M 858.242188 219.589844 L 864.679688 219.589844 L 864.679688 219.300781 L 858.242188 219.300781 Z M 858.242188 219.589844 "/>
<g clip-path="url(#clip-3-172db4ac)">
<path fill="none" stroke-width="3" stroke-linecap="butt" stroke-linejoin="miter" stroke="rgb(0%, 44.705883%, 69.803923%)" stroke-opacity="1" stroke-miterlimit="1.154701" d="M 680.484375 228 L 680.484375 43 "/>
</g>
<g clip-path="url(#clip-4-172db4ac)">
<path fill="none" stroke-width="2" stroke-linecap="butt" stroke-linejoin="miter" stroke="rgb(0%, 44.705883%, 69.803923%)" stroke-opacity="1" stroke-dasharray="6 6" stroke-miterlimit="1.154701" d="M 633.984375 228 L 633.984375 43 "/>
</g>
<g clip-path="url(#clip-5-172db4ac)">
<path fill="none" stroke-width="2" stroke-linecap="butt" stroke-linejoin="miter" stroke="rgb(0%, 44.705883%, 69.803923%)" stroke-opacity="1" stroke-dasharray="6 6" stroke-miterlimit="1.154701" d="M 726.984375 228 L 726.984375 43 "/>
</g>
<path fill="none" stroke-width="1" stroke-linecap="butt" stroke-linejoin="miter" stroke="rgb(0%, 0%, 0%)" stroke-opacity="1" stroke-miterlimit="1.154701" d="M 15.5 228 L 441.5 228 "/>
<path fill="none" stroke-width="1" stroke-linecap="butt" stroke-linejoin="miter" stroke="rgb(0%, 0%, 0%)" stroke-opacity="1" stroke-miterlimit="1.154701" d="M 16 228.5 L 16 42.5 "/>
<path fill="none" stroke-width="1" stroke-linecap="butt" stroke-linejoin="miter" stroke="rgb(0%, 0%, 0%)" stroke-opacity="1" stroke-miterlimit="1.154701" d="M 458.5 228 L 884.5 228 "/>
<path fill="none" stroke-width="1" stroke-linecap="butt" stroke-linejoin="miter" stroke="rgb(0%, 0%, 0%)" stroke-opacity="1" stroke-miterlimit="1.154701" d="M 459 228.5 L 459 42.5 "/>
</svg>
